SplineFontDB: 3.0
FontName: Tuffy-Italic
FullName: Tuffy Italic
FamilyName: Tuffy
Weight: Regular
Copyright: Copyright (c) 2011, Thatcher Ulrich (http://tulrich.com), Karoly Barta, Michael Everson (http://www.evertype.com), with Reserved Font Name "Tuffy"\n
FontLog: "2011-08-30: Prepared v001.271 as a web font+AAoA-2010-08-20: Merged accented and extended characters from Karoly Barta and Michael Everson.+AAoA-2004-9-1: Created." 
Version: 001.271
ItalicAngle: -12
UnderlinePosition: -100
UnderlineWidth: 50
Ascent: 1597
Descent: 451
LayerCount: 2
Layer: 0 1 "Back"  1
Layer: 1 1 "Fore"  0
NeedsXUIDChange: 1
XUID: [1021 745 1046372284 8037501]
FSType: 0
OS2Version: 0
OS2_WeightWidthSlopeOnly: 0
OS2_UseTypoMetrics: 0
CreationTime: 1166531129
ModificationTime: 1314725463
PfmFamily: 33
TTFWeight: 400
TTFWidth: 5
LineGap: 0
VLineGap: 0
Panose: 2 11 6 3 6 1 0 0 0 0
OS2TypoAscent: 2340
OS2TypoAOffset: 0
OS2TypoDescent: -697
OS2TypoDOffset: 0
OS2TypoLinegap: 0
OS2WinAscent: 2340
OS2WinAOffset: 0
OS2WinDescent: 697
OS2WinDOffset: 0
HheadAscent: 2340
HheadAOffset: 0
HheadDescent: -697
HheadDOffset: 0
OS2SubXSize: 0
OS2SubYSize: 2
OS2SubXOff: -16560
OS2SubYOff: 0
OS2SupXSize: -25944
OS2SupYSize: -27176
OS2SupXOff: -16376
OS2SupYOff: 1
OS2StrikeYSize: 12312
OS2StrikeYPos: -16224
OS2Vendor: 'PfEd'
Lookup: 4 0 1 "Tuffy-Regular-'liga' Standard Ligatures Hungarian"  {"Tuffy-Regular-'liga' Standard Ligatures lookup 4-1"  } ['liga' ('latn' <'HUN ' > ) ]
Lookup: 1 0 0 "Tuffy-Regular-'locl' Localized Forms Romanian"  {"Tuffy-Regular-'locl' Localized Forms in Latin lookup 2-1"  } ['locl' ('DFLT' <'MOL ' 'ROM ' 'dflt' > 'latn' <'MOL ' 'ROM ' 'dflt' > ) ]
Lookup: 4 0 0 "Tuffy-Regular-'frac' Diagonal Fractions lookup 2"  {"Tuffy-Regular-'frac' Diagonal Fractions lookup 2-2"  } ['frac' ('DFLT' <'dflt' > 'grek' <'dflt' > 'latn' <'dflt' > ) ]

StartChar: exclam
Encoding: 33 33 1
Width: 421
Flags: HMW
LayerCount: 2
Fore
SplineSet
121 72 m 1,0,1
 120 76 120 76 126.5 107.5 c 128,-1,2
 133 139 133 139 171.5 170.5 c 128,-1,3
 210 202 210 202 251 202 c 128,-1,4
 292 202 292 202 316.5 178 c 128,-1,5
 341 154 341 154 341 130 c 0,6,7
 341 60.7763157895 341 60.7763157895 296.5 23.8881578947 c 128,-1,8
 252 -13 252 -13 210.5 -13 c 128,-1,9
 169 -13 169 -13 145 11 c 128,-1,10
 121 35 121 35 121 72 c 1,0,1
375 440 m 1,11,12
 370 415 370 415 348.5 398 c 128,-1,13
 327 381 327 381 305 381.5 c 128,-1,14
 283 382 283 382 269.5 394.5 c 128,-1,15
 256 407 256 407 256 419.5 c 128,-1,16
 256 432 256 432 258 440 c 2,17,-1
 418 1389 l 1,18,19
 426 1428 426 1428 461.5 1455.5 c 128,-1,20
 497 1483 497 1483 534 1483 c 128,-1,21
 571 1483 571 1483 595 1461 c 128,-1,22
 619 1439 619 1439 619 1417.5 c 128,-1,23
 619 1396 619 1396 618 1391 c 2,24,-1
 375 440 l 1,11,12
EndSplineSet
EndChar

StartChar: quotedbl
Encoding: 34 34 2
Width: 690
Flags: HMW
LayerCount: 2
Fore
SplineSet
425 1044 m 0,0,1
 380.928571429 1044 380.928571429 1044 380.928571429 1080.33163265 c 0,2,3
 380.928571429 1088.78571429 380.928571429 1088.78571429 382 1092 c 2,4,-1
 441 1466 l 1,5,6
 449 1502 449 1502 474.5 1522 c 128,-1,7
 500 1542 500 1542 529 1542 c 2,8,-1
 533 1542 l 2,9,10
 558 1542 558 1542 575 1527.5 c 0,11,12
 597.093632959 1508.65543071 597.093632959 1508.65543071 591 1466 c 1,13,-1
 490 1092 l 2,14,15
 484 1070 484 1070 464.5 1057 c 128,-1,16
 445 1044 445 1044 425 1044 c 0,0,1
718 1044 m 0,17,18
 671.947368421 1044 671.947368421 1044 674 1083 c 1,19,-1
 674 1092 l 1,20,-1
 734 1466 l 1,21,22
 742 1502 742 1502 767.5 1522 c 128,-1,23
 793 1542 793 1542 822 1542 c 2,24,-1
 826 1542 l 2,25,26
 852 1542 852 1542 868.5 1527.5 c 128,-1,27
 885 1513 885 1513 885 1498 c 128,-1,28
 885 1483 885 1483 883 1466 c 1,29,-1
 783 1092 l 2,30,31
 777 1070 777 1070 757.5 1057 c 128,-1,32
 738 1044 738 1044 718 1044 c 0,17,18
EndSplineSet
EndChar

StartChar: numbersign
Encoding: 35 35 3
Width: 1589
Flags: HMW
LayerCount: 2
Fore
SplineSet
1085 547 m 1,0,-1
 1157 885 l 1,1,-1
 815 885 l 1,2,-1
 743 547 l 1,3,-1
 1085 547 l 1,0,-1
1204 406 m 1,4,-1
 1129 53 l 1,5,-1
 980 53 l 1,6,-1
 1055 406 l 1,7,-1
 713 406 l 1,8,-1
 638 53 l 1,9,-1
 488 53 l 1,10,-1
 563 406 l 1,11,-1
 215 406 l 1,12,-1
 245 547 l 1,13,-1
 593 547 l 1,14,-1
 665 885 l 1,15,-1
 317 885 l 1,16,-1
 347 1024 l 1,17,-1
 695 1024 l 1,18,-1
 775 1403 l 1,19,-1
 925 1403 l 1,20,-1
 845 1024 l 1,21,-1
 1187 1024 l 1,22,-1
 1267 1403 l 1,23,-1
 1416 1403 l 1,24,-1
 1336 1024 l 1,25,-1
 1697 1024 l 1,26,-1
 1667 885 l 1,27,-1
 1306 885 l 1,28,-1
 1234 547 l 1,29,-1
 1595 547 l 1,30,-1
 1565 406 l 1,31,-1
 1204 406 l 1,4,-1
EndSplineSet
EndChar

StartChar: dollar
Encoding: 36 36 4
Width: 1017
Flags: HMW
LayerCount: 2
Back
SplineSet
434.176 1495.04 m 1,0,-1
 581.632 1495.04 l 1,1,-1
 581.632 -114.688 l 1,2,-1
 434.176 -114.688 l 1,3,-1
 434.176 1495.04 l 1,0,-1
24.5762 266.24 m 1,4,-1
 159.744 346.112 l 1,5,6
 235.408787002 229.175510997 235.408787002 229.175510997 288.87221804 184.322022354 c 0
 375.272619201 112.964295528 375.272619201 112.964295528 507.906 112.64 c 0,7,8
 644.369345304 112.64 644.369345304 112.64 727.688672652 185.494785239 c 0
 811.008 258.349570478 811.008 258.349570478 811.008 376.832 c 0,9,10
 811.008 416.178339877 811.008 416.178339877 799.981132802 450.045857173 c 0
 788.954265605 483.91337447 788.954265605 483.91337447 771.985578568 509.10913408 c 0
 755.016891531 534.304893691 755.016891531 534.304893691 726.008707146 556.824743471 c 0
 697.000522762 579.344593251 697.000522762 579.344593251 669.976027547 594.525378978 c 0
 642.951532333 609.706164706 642.951532333 609.706164706 602.279033677 625.111967961 c 0
 561.606535021 640.517771215 561.606535021 640.517771215 530.843234545 649.917204051 c 0
 500.079934068 659.316636887 500.079934068 659.316636887 454.656 671.744 c 0,11,12
 413.484986198 683.008093187 413.484986198 683.008093187 385.048736893 691.931563154 c 0
 356.612487588 700.85503312 356.612487588 700.85503312 315.33536165 717.698337721 c 0
 274.058235712 734.541642321 274.058235712 734.541642321 245.541205697 752.348029626 c 0
 217.024175683 770.154416931 217.024175683 770.154416931 185.049092262 798.262909149 c 0
 153.074008841 826.371401367 153.074008841 826.371401367 133.260519983 858.808111259 c 0
 113.447031125 891.24482115 113.447031125 891.24482115 99.558312087 936.365906234 c 0
 85.6695930488 981.486991317 85.6695930488 981.486991317 83.9678 1034.24 c 0,13,14
 81.0810423886 1123.72551497 81.0810423886 1123.72551497 113.909478587 1196.62753375 c 0
 146.737914786 1269.52955252 146.737914786 1269.52955252 205.53589485 1316.2288725 c 0
 264.333874914 1362.92819249 264.333874914 1362.92819249 341.930212962 1388.02409625 c 0
 419.526551011 1413.12 419.526551011 1413.12 507.904 1413.12 c 0,15,16
 566.475680804 1413.12 566.475680804 1413.12 615.822033823 1405.04903945 c 0
 665.168386842 1396.97807889 665.168386842 1396.97807889 704.882966177 1379.88846055 c 0
 744.597545513 1362.79884222 744.597545513 1362.79884222 776.002274564 1342.92515056 c 0
 807.407003614 1323.05145889 807.407003614 1323.05145889 836.788818029 1292.50623833 c 0
 866.170632444 1261.96101777 866.170632444 1261.96101777 887.711848638 1234.38126167 c 0
 909.253064831 1206.80150556 909.253064831 1206.80150556 935.934 1167.36 c 1,17,-1
 811.008 1087.49 l 1,18,19
 786.988467532 1128.90298701 786.988467532 1128.90298701 760.428560681 1159.9921645 c 0
 733.868653829 1191.08134199 733.868653829 1191.08134199 697.715439319 1217.5478355 c 0
 661.56222481 1244.014329 661.56222481 1244.014329 613.676560681 1257.9121645 c 0
 565.790896552 1271.81 565.790896552 1271.81 507.904 1271.81 c 0,20,21
 387.516944941 1271.81 387.516944941 1271.81 316.63847247 1212.28698204 c 0
 245.76 1152.76396409 245.76 1152.76396409 245.76 1034.24 c 0,22,23
 245.76 988.379155398 245.76 988.379155398 260.153613471 953.222406664 c 0
 274.547226942 918.065657931 274.547226942 918.065657931 295.322136529 897.021218336 c 0
 316.097046116 875.97677874 316.097046116 875.97677874 351.665706064 857.941378887 c 0
 387.234366012 839.905979033 387.234366012 839.905979033 416.73761801 830.642773891 c 0
 446.240870009 821.379568749 446.240870009 821.379568749 491.794465323 807.273351109 c 0
 537.348060637 793.167133469 537.348060637 793.167133469 565.246 782.336 c 0,24,25
 587.028449661 773.879710304 587.028449661 773.879710304 621.537270209 761.547183778 c 0
 656.046090758 749.214657252 656.046090758 749.214657252 679.536727791 740.884437222 c 0
 703.027364823 732.554217191 703.027364823 732.554217191 735.289082209 719.133657778 c 0
 767.550799595 705.713098365 767.550799595 705.713098365 789.924519791 693.872421222 c 0
 812.298239986 682.031744079 812.298239986 682.031744079 839.148718209 663.967179778 c 0
 865.999196433 645.902615477 865.999196433 645.902615477 884.091863791 626.995509222 c 0
 902.184531148 608.088402967 902.184531148 608.088402967 920.459634209 581.823861778 c 0
 938.734737271 555.559320589 938.734737271 555.559320589 949.382215791 526.029813222 c 0
 960.029694311 496.500305855 960.029694311 496.500305855 966.565286209 458.479815778 c 0
 973.100878108 420.459325701 973.100878108 420.459325701 972.8 376.832 c 0,26,27
 971.954450987 254.148828775 971.954450987 254.148828775 912.129206746 161.928685551 c 0
 852.303962505 69.708542326 852.303962505 69.708542326 747.650793254 21.0300144495 c 0
 642.997624003 -27.648513427 642.997624003 -27.648513427 507.904 -28.6719 c 1,28,29
 342.581124783 -27.1552504329 342.581124783 -27.1552504329 234.176082895 40.1431503785 c 0
 125.771041007 107.44155119 125.771041007 107.44155119 24.5762 266.24 c 1,4,-1
EndSplineSet
Fore
SplineSet
780 1537 m 1,0,-1
 909 1537 l 1,1,-1
 882 1411 l 1,2,3
 1086 1395 1086 1395 1184 1168 c 1,4,-1
 1042 1088 l 1,5,6
 1021 1154 1021 1154 972.5 1204 c 128,-1,7
 924 1254 924 1254 851 1264 c 1,8,-1
 747 775 l 1,9,10
 764 768 764 768 797.5 754.5 c 128,-1,11
 831 741 831 741 849 733.5 c 128,-1,12
 867 726 867 726 896.5 712.5 c 128,-1,13
 926 699 926 699 942.5 688 c 128,-1,14
 959 677 959 677 981.5 660 c 128,-1,15
 1004 643 1004 643 1016.5 625.5 c 128,-1,16
 1029 608 1029 608 1041.5 585 c 0,17,18
 1065 541.76 1065 541.76 1065 489.88 c 0,19,20
 1065 259.138996139 1065 259.138996139 889.5 106 c 0,21,22
 760 -7 760 -7 576 -26 c 1,23,-1
 549 -155 l 1,24,-1
 422 -155 l 1,25,-1
 449 -26 l 1,26,27
 288.724707502 -11.9759119064 288.724707502 -11.9759119064 210 63 c 0,28,29
 139.34006734 130.295173962 139.34006734 130.295173962 82 266 c 1,30,-1
 234 346 l 1,31,32
 275.706624606 249.753943218 275.706624606 249.753943218 295.353312303 224.376971609 c 128,-1,33
 315 199 315 199 334 180 c 128,-1,34
 353 161 353 161 373 150 c 0,35,36
 423.342465753 122.311643836 423.342465753 122.311643836 480 117 c 1,37,-1
 598 672 l 1,38,39
 376.869082208 728.107844813 376.869082208 728.107844813 320 850.5 c 0,40,41
 297 900 297 900 297 952.5 c 0,42,43
 297 1173.02766798 297 1173.02766798 466.5 1303 c 0,44,45
 593 1400 593 1400 752 1409 c 1,46,-1
 780 1537 l 1,0,-1
629 817 m 1,47,-1
 725 1270 l 1,48,49
 630 1258 630 1258 559 1199.5 c 0,50,51
 462 1119.57746479 462 1119.57746479 462 985 c 0,52,53
 462 913 462 913 504.5 876 c 128,-1,54
 547 839 547 839 629 817 c 1,47,-1
716 630 m 1,55,-1
 607 119 l 1,56,57
 719 137 719 137 794 207 c 128,-1,58
 869 277 869 277 892 383 c 0,59,60
 898 415 898 415 898 431 c 0,61,62
 898 570 898 570 716 630 c 1,55,-1
EndSplineSet
EndChar

StartChar: percent
Encoding: 37 37 5
Width: 1402
Flags: HMW
LayerCount: 2
Fore
SplineSet
1229.5 488.5 m 128,-1,1
 1197 522 1197 522 1141 522 c 128,-1,2
 1085 522 1085 522 1025.5 470.083333333 c 128,-1,3
 966 418.166666667 966 418.166666667 966 334 c 0,4,5
 966 283 966 283 996 251 c 128,-1,6
 1026 219 1026 219 1083 219 c 128,-1,7
 1140 219 1140 219 1192.5 263 c 128,-1,8
 1245 307 1245 307 1259 373 c 0,9,10
 1263 393 1263 393 1262 404 c 1,11,0
 1262 455 1262 455 1229.5 488.5 c 128,-1,1
835 316 m 0,12,13
 835 460.440414508 835 460.440414508 961.5 564 c 0,14,15
 1058 643 1058 643 1163.5 643 c 128,-1,16
 1269 643 1269 643 1331.5 582 c 128,-1,17
 1394 521 1394 521 1394 429 c 0,18,19
 1394 285.278350515 1394 285.278350515 1267 182.5 c 0,20,21
 1170 104 1170 104 1064 104 c 128,-1,22
 958 104 958 104 896.5 164 c 128,-1,23
 835 224 835 224 835 316 c 0,12,13
460 1077 m 0,24,25
 459 1071 459 1071 456 1039 c 1,26,27
 457 987 457 987 487 955.5 c 128,-1,28
 517 924 517 924 574.5 924 c 128,-1,29
 632 924 632 924 684.5 967.5 c 0,30,31
 755 1025.91428571 755 1025.91428571 755 1109 c 0,32,33
 755 1159 755 1159 722 1193 c 128,-1,34
 689 1227 689 1227 633.5 1227 c 128,-1,35
 578 1227 578 1227 525.5 1182 c 128,-1,36
 473 1137 473 1137 460 1077 c 0,24,25
327 1021 m 0,37,38
 327 1165.44041451 327 1165.44041451 453.5 1269 c 0,39,40
 550 1348 550 1348 656 1348 c 128,-1,41
 762 1348 762 1348 824 1287 c 128,-1,42
 886 1226 886 1226 886 1133 c 0,43,44
 886 989.12371134 886 989.12371134 759 887 c 0,45,46
 662 809 662 809 556.5 809 c 128,-1,47
 451 809 451 809 389 869 c 128,-1,48
 327 929 327 929 327 1021 c 0,37,38
453 137 m 1,49,-1
 303 137 l 1,50,-1
 1275 1319 l 1,51,-1
 1419 1319 l 1,52,-1
 453 137 l 1,49,-1
EndSplineSet
EndChar

StartChar: ampersand
Encoding: 38 38 6
Width: 1241
Flags: HMW
LayerCount: 2
Back
SplineSet
1026.05 251.904 m 13,0,-1
 870.4 299.008 l 1,1,2
 825.05491766 201.066447988 825.05491766 201.066447988 724.958840285 147.913508475 c 0
 658.532789986 112.64 658.532789986 112.64 591.87 112.64 c 0,3,4
 501.839267974 112.64 501.839267974 112.64 427.02748366 149.172351733 c 0
 352.215699346 185.704703465 352.215699346 185.704703465 306.155849673 257.696981601 c 0
 260.096 329.689259736 260.096 329.689259736 260.096 423.936 c 0,5,6
 260.096 482.279058152 260.096 482.279058152 278.869650724 532.715474269 c 0
 297.643301447 583.151890386 297.643301447 583.151890386 329.615085276 619.014189731 c 0
 361.586869105 654.876489076 361.586869105 654.876489076 403.639394724 680.564690269 c 0
 445.691920342 706.252891462 445.691920342 706.252891462 492.590669276 718.694445731 c 0
 539.48941821 731.136 539.48941821 731.136 587.776 731.136 c 2,7,-1
 665.6 731.136 l 1,8,-1
 665.6 856.064 l 1,9,-1
 567.296 856.064 l 2,10,11
 504.716696514 856.064 504.716696514 856.064 450.104507462 888.501268616 c 0
 395.49231841 920.938537232 395.49231841 920.938537232 361.586159205 981.323398051 c 0
 327.68 1041.70825887 327.68 1041.70825887 327.68 1116.16 c 0,12,13
 327.68 1216.67107955 327.68 1216.67107955 401.180211037 1287.24553977 c 0
 474.680422075 1357.82 474.680422075 1357.82 569.344 1357.82 c 2,14,-1
 575.488 1357.82 l 2,15,16
 656.281266627 1357.82 656.281266627 1357.82 716.788740819 1315.38860374 c 0
 777.296215011 1272.95720748 777.296215011 1272.95720748 808.958 1200.13 c 1,17,-1
 946.176 1263.62 l 1,18,19
 892.584249325 1369.22265553 892.584249325 1369.22265553 792.514760638 1433.15632777 c 0
 692.44527195 1497.09 692.44527195 1497.09 569.344 1497.09 c 0,20,21
 494.172362807 1497.09 494.172362807 1497.09 422.287393801 1469.09645695 c 0
 350.402424795 1441.10291391 350.402424795 1441.10291391 294.384606199 1392.3152618 c 0
 238.366787602 1343.52760968 238.366787602 1343.52760968 204.175393801 1271.14364445 c 0
 169.984 1198.75967923 169.984 1198.75967923 169.984 1116.16 c 0,22,23
 169.984 1053.85140379 169.984 1053.85140379 188.494989 997.374785087 c 0
 207.005977999 940.89816638 207.005977999 940.89816638 236.241011 901.537214913 c 0
 265.476044001 862.176263446 265.476044001 862.176263446 294.798989 835.646785087 c 0
 324.121933998 809.117306728 324.121933998 809.117306728 352.256 794.624 c 1,24,25
 327.839005376 787.242177353 327.839005376 787.242177353 300.528748686 770.738304132 c 0
 273.218491995 754.23443091 273.218491995 754.23443091 245.080292981 730.027404202 c 0
 216.942093967 705.820377494 216.942093967 705.820377494 191.455350538 672.750980058 c 0
 165.968607109 639.681582621 165.968607109 639.681582621 146.005255944 602.110885683 c 0
 126.041904779 564.540188745 126.041904779 564.540188745 114.220952389 518.170655983 c 0
 102.4 471.801123222 102.4 471.801123222 102.4 423.936 c 0,26,27
 102.4 294.353382551 102.4 294.353382551 167.312169507 190.324370638 c 0
 232.224339013 86.2953587244 232.224339013 86.2953587244 344.005163827 28.8117293622 c 0
 455.78598864 -28.6719 455.78598864 -28.6719 591.872 -28.6719 c 0,28,29
 671.82618426 -28.6719 671.82618426 -28.6719 755.660598198 2.9673316931 c 0
 839.495012136 34.6065633862 839.495012136 34.6065633862 914.143401802 100.115234974 c 0
 988.791791468 165.623906561 988.791791468 165.623906561 1026.05 251.904 c 13,0,-1
EndSplineSet
Fore
SplineSet
1066 1200 m 17,0,1
 1044 1275 1044 1275 996.5 1313.5 c 128,-1,2
 949 1352 949 1352 852 1352 c 128,-1,3
 755 1352 755 1352 672.5 1287.5 c 128,-1,4
 590 1223 590 1223 568 1120 c 0,5,6
 562 1093 562 1093 562 1068 c 0,7,8
 562 983 562 983 618.5 930 c 128,-1,9
 675 877 675 877 753 877 c 2,10,-1
 854 877 l 1,11,-1
 824 735 l 1,12,-1
 727 735 l 2,13,14
 584 735 584 735 482.5 656 c 128,-1,15
 381 577 381 577 349 430 c 0,16,17
 341 394 341 394 341 355 c 0,18,19
 341 243 341 243 412.5 178 c 128,-1,20
 484 113 484 113 596.5 113 c 128,-1,21
 709 113 709 113 811.5 202 c 128,-1,22
 914 291 914 291 939 408 c 1,23,-1
 744 408 l 1,24,-1
 773 547 l 1,25,-1
 1275 547 l 1,26,-1
 1245 406 l 1,27,-1
 1104 406 l 1,28,29
 1080.05066947 292.784982935 1080.05066947 292.784982935 986 180.5 c 0,30,31
 810.521367521 -29 810.521367521 -29 555 -29 c 0,32,33
 395 -29 395 -29 288 75 c 128,-1,34
 181 179 181 179 181 337 c 0,35,36
 181 464.357142857 181 464.357142857 250 581 c 0,37,38
 321.676539527 702.167483486 321.676539527 702.167483486 445.5 774.5 c 0,39,40
 496 804 496 804 538 813 c 1,41,42
 478 841 478 841 439.5 897.5 c 128,-1,43
 401 954 401 954 401 1015 c 128,-1,44
 401 1076 401 1076 413 1133.5 c 128,-1,45
 425 1191 425 1191 467.5 1258 c 128,-1,46
 510 1325 510 1325 571 1377.5 c 0,47,48
 705.2 1493 705.2 1493 884 1493 c 0,49,50
 1015 1493 1015 1493 1100 1429 c 128,-1,51
 1185 1365 1185 1365 1215 1266 c 1,52,-1
 1066 1200 l 17,0,1
EndSplineSet
EndChar

StartChar: quotesingle
Encoding: 39 39 7
Width: 382
Flags: HMW
LayerCount: 2
Fore
SplineSet
425 1044 m 0,0,1
 380.928571429 1044 380.928571429 1044 380.928571429 1080.33163265 c 0,2,3
 380.928571429 1088.78571429 380.928571429 1088.78571429 382 1092 c 2,4,-1
 441 1466 l 1,5,6
 449 1502 449 1502 474.5 1522 c 128,-1,7
 500 1542 500 1542 529 1542 c 2,8,-1
 533 1542 l 2,9,10
 558 1542 558 1542 575 1527.5 c 0,11,12
 597.093632959 1508.65543071 597.093632959 1508.65543071 591 1466 c 1,13,-1
 490 1092 l 2,14,15
 484 1070 484 1070 464.5 1057 c 128,-1,16
 445 1044 445 1044 425 1044 c 0,0,1
EndSplineSet
EndChar

StartChar: parenleft
Encoding: 40 40 8
Width: 548
Flags: HMW
LayerCount: 2
Fore
SplineSet
261 -84 m 1,0,1
 163 139 163 139 163 414 c 0,2,3
 163 781.169014085 163 781.169014085 347.5 1154.5 c 0,4,5
 454 1370 454 1370 608 1550 c 1,6,-1
 786 1550 l 1,7,8
 441 1168 441 1168 348 729 c 0,9,10
 320 596 320 596 320 462 c 0,11,12
 320 166 320 166 439 -84 c 1,13,-1
 261 -84 l 1,0,1
EndSplineSet
EndChar

StartChar: parenright
Encoding: 41 41 9
Width: 536
Flags: HMW
LayerCount: 2
Fore
SplineSet
248 -84 m 1,0,-1
 72 -84 l 1,1,2
 239 102 239 102 352.5 315 c 128,-1,3
 466 528 466 528 501 689.5 c 0,4,5
 536 851 536 851 536 993 c 0,6,7
 536 1301 536 1301 419 1550 c 1,8,-1
 595 1550 l 1,9,10
 692 1321 692 1321 692 1034 c 0,11,12
 692 872 692 872 654.5 694.5 c 0,13,14
 617 517 617 517 511.5 307.5 c 128,-1,15
 406 98 406 98 248 -84 c 1,0,-1
EndSplineSet
EndChar

StartChar: asterisk
Encoding: 42 42 10
Width: 913
Flags: HMW
LayerCount: 2
Fore
SplineSet
228 562 m 1,0,1
 166 562 166 562 166 617 c 0,2,3
 166 662.8 166 662.8 196 687.4 c 128,-1,4
 226 712 226 712 260 712 c 1,5,-1
 505 698 l 1,6,-1
 414 906 l 1,7,8
 407 926 407 926 412.5 956.5 c 128,-1,9
 418 987 418 987 463 1009 c 0,10,11
 486 1021 486 1021 506 1021 c 0,12,13
 549 1021 549 1021 560 981 c 2,14,-1
 624 762 l 1,15,-1
 779 979 l 2,16,17
 808 1019 808 1019 839 1019 c 128,-1,18
 870 1019 870 1019 893 1004 c 128,-1,19
 916 989 916 989 916 959 c 0,20,21
 916 934.666666667 916 934.666666667 893 904 c 1,22,-1
 714 698 l 1,23,-1
 964 712 l 1,24,25
 993 712 993 712 1010 697 c 128,-1,26
 1027 682 1027 682 1027 666 c 128,-1,27
 1027 650 1027 650 1021.5 623.5 c 128,-1,28
 1016 597 1016 597 988.5 579.5 c 128,-1,29
 961 562 961 562 932 562 c 1,30,-1
 691 576 l 1,31,-1
 782 371 l 1,32,33
 790 350 790 350 785 330 c 0,34,35
 777 290 777 290 734 268 c 0,36,37
 711 256 711 256 689 256 c 0,38,39
 647 256 647 256 636 296 c 2,40,-1
 572 518 l 1,41,-1
 411 294 l 1,42,43
 384 254 384 254 351.5 254 c 128,-1,44
 319 254 319 254 297 268.5 c 128,-1,45
 275 283 275 283 275 314 c 0,46,47
 275 341.133333333 275 341.133333333 297 369 c 1,48,-1
 476 576 l 1,49,-1
 228 562 l 1,0,1
EndSplineSet
EndChar

StartChar: plus
Encoding: 43 43 11
Width: 894
Flags: HMW
LayerCount: 2
Fore
SplineSet
229 711 m 1,0,-1
 536 711 l 1,1,-1
 602 1022 l 1,2,-1
 743 1022 l 1,3,-1
 677 711 l 1,4,-1
 985 711 l 1,5,-1
 955 569 l 1,6,-1
 647 569 l 1,7,-1
 581 258 l 1,8,-1
 440 258 l 1,9,-1
 506 569 l 1,10,-1
 199 569 l 1,11,-1
 229 711 l 1,0,-1
EndSplineSet
EndChar

StartChar: comma
Encoding: 44 44 12
Width: 399
Flags: HMW
LayerCount: 2
Fore
SplineSet
316.5 178 m 128,-1,1
 341 154 341 154 341 115.538461538 c 128,-1,2
 341 77.0769230769 341 77.0769230769 315.5 19.5384615385 c 128,-1,3
 290 -38 290 -38 264 -76 c 128,-1,4
 238 -114 238 -114 219 -138.5 c 128,-1,5
 200 -163 200 -163 174.5 -191 c 128,-1,6
 149 -219 149 -219 148 -221 c 1,7,-1
 99 -190 l 1,8,9
 193 -86 193 -86 208 -12 c 1,10,11
 169 -12 169 -12 145 11.5 c 128,-1,12
 121 35 121 35 121 72 c 1,13,14
 120 76 120 76 126.5 107.5 c 128,-1,15
 133 139 133 139 171.5 170.5 c 128,-1,16
 210 202 210 202 251 202 c 128,-1,0
 292 202 292 202 316.5 178 c 128,-1,1
EndSplineSet
EndChar

StartChar: hyphen
Encoding: 45 45 13
Width: 866
Flags: HMW
LayerCount: 2
Fore
SplineSet
259 705 m 1,0,-1
 936 705 l 1,1,-1
 906 563 l 1,2,-1
 229 563 l 1,3,-1
 259 705 l 1,0,-1
EndSplineSet
EndChar

StartChar: period
Encoding: 46 46 14
Width: 405
Flags: HMW
LayerCount: 2
Back
SplineSet
55.5117 138.778 m 4,0,1
 55.5117 196.231162015 55.5117 196.231162015 96.1734310062 236.893581008 c 0
 136.835162012 277.556 136.835162012 277.556 194.288 277.556 c 0,2,3
 213.14852468 277.556 213.14852468 277.556 231.138059875 272.566778713 c 0
 249.127595071 267.577557425 249.127595071 267.577557425 264.343690125 258.628721287 c 0
 279.559785178 249.679885149 279.559785178 249.679885149 292.375152468 236.864408342 c 0
 305.190519758 224.048931535 305.190519758 224.048931535 314.139171606 208.832795361 c 0
 323.087823454 193.616659188 323.087823454 193.616659188 328.076911727 175.627371305 c 0
 333.066 157.638083423 333.066 157.638083423 333.066 138.778 c 0,4,5
 333.066 81.3234422652 333.066 81.3234422652 292.404258633 40.6617211326 c 0
 251.742517265 -7.1054294928e-15 251.742517265 -7.1054294928e-15 194.288 0 c 0,6,7
 136.834799448 0 136.834799448 0 96.1732497241 40.6618127765 c 0
 55.5117 81.3236255531 55.5117 81.3236255531 55.5117 138.778 c 4,0,1
EndSplineSet
Fore
SplineSet
121 72 m 1,0,1
 120 76 120 76 126.5 107.5 c 128,-1,2
 133 139 133 139 171.5 170.5 c 128,-1,3
 210 202 210 202 251 202 c 128,-1,4
 292 202 292 202 316.5 178 c 128,-1,5
 341 154 341 154 341 130 c 0,6,7
 341 60.7763157895 341 60.7763157895 296.5 23.8881578947 c 128,-1,8
 252 -13 252 -13 210.5 -13 c 128,-1,9
 169 -13 169 -13 145 11 c 128,-1,10
 121 35 121 35 121 72 c 1,0,1
EndSplineSet
EndChar

StartChar: slash
Encoding: 47 47 15
Width: 808
Flags: HMW
LayerCount: 2
Fore
SplineSet
135 0 m 1,0,-1
 -23 0 l 1,1,-1
 1022 1544 l 1,2,-1
 1180 1544 l 1,3,-1
 135 0 l 1,0,-1
EndSplineSet
EndChar

StartChar: zero
Encoding: 48 48 16
Width: 1136
Flags: HMW
LayerCount: 2
Fore
SplineSet
683 1431 m 0,0,1
 788 1493 788 1493 899.5 1493 c 128,-1,2
 1011 1493 1011 1493 1087.5 1429.5 c 0,3,4
 1235 1307.06535948 1235 1307.06535948 1235 1010 c 0,5,6
 1235 873 1235 873 1197.5 696.5 c 128,-1,7
 1160 520 1160 520 1069.5 350.5 c 128,-1,8
 979 181 979 181 846.5 76 c 128,-1,9
 714 -29 714 -29 584 -29 c 128,-1,10
 454 -29 454 -29 376 34.5 c 0,11,12
 225 157.429487179 225 157.429487179 225 449.41074359 c 128,-1,13
 225 741.392 225 741.392 353.933794235 1027.10928802 c 128,-1,14
 482.86758847 1312.82657605 482.86758847 1312.82657605 683 1431 c 0,0,1
473 164 m 0,15,16
 522 113 522 113 599.5 113 c 128,-1,17
 677 113 677 113 752.5 169 c 128,-1,18
 828 225 828 225 884 316.5 c 0,19,20
 1075 628.580357143 1075 628.580357143 1075 999 c 0,21,22
 1075.04878049 1003.92682927 1075.04878049 1003.92682927 1075.04878049 1053.82926829 c 128,-1,23
 1075.04878049 1103.73170732 1075.04878049 1103.73170732 1056.02439024 1178.36585366 c 128,-1,24
 1037 1253 1037 1253 989.5 1302.5 c 128,-1,25
 942 1352 942 1352 865.5 1352 c 128,-1,26
 789 1352 789 1352 713 1294.5 c 0,27,28
 578.781132075 1192.95283019 578.781132075 1192.95283019 481.390566038 949.476415094 c 128,-1,29
 384 706 384 706 384 481.316326531 c 128,-1,30
 384 256.632653061 384 256.632653061 473 164 c 0,15,16
EndSplineSet
EndChar

StartChar: one
Encoding: 49 49 17
Width: 1136
Flags: HMW
LayerCount: 2
Fore
SplineSet
838 1206 m 1,0,-1
 680 1206 l 1,1,-1
 956 1456 l 1,2,-1
 1048 1456 l 1,3,-1
 739 0 l 1,4,-1
 582 0 l 1,5,-1
 838 1206 l 1,0,-1
EndSplineSet
EndChar

StartChar: two
Encoding: 50 50 18
Width: 1136
Flags: HMW
LayerCount: 2
Back
SplineSet
111.81 1007.74 m 4,0,1
 111.81 1106.7230777 111.81 1106.7230777 146.997597187 1196.86577337 c 0
 182.185194374 1287.00846903 182.185194374 1287.00846903 241.656902813 1352.19844538 c 0
 301.128611252 1417.38842173 301.128611252 1417.38842173 383.363597187 1455.95921087 c 0
 465.598583123 1494.53 465.598583123 1494.53 555.898 1494.53 c 0,2,3
 616.251516887 1494.53 616.251516887 1494.53 673.817744281 1477.02984522 c 0
 731.383971676 1459.52969043 731.383971676 1459.52969043 780.075505719 1428.14057145 c 0
 828.767039762 1396.75145247 828.767039762 1396.75145247 869.776151689 1351.79919707 c 0
 910.785263616 1306.84694167 910.785263616 1306.84694167 939.421024237 1253.47353441 c 0
 968.056784859 1200.10012716 968.056784859 1200.10012716 984.021892429 1136.99854892 c 0
 999.987 1073.89697068 999.987 1073.89697068 999.987 1007.74 c 0,4,5
 999.987 950.955055472 999.987 950.955055472 988.330740827 896.25351264 c 0
 976.674481654 841.551969809 976.674481654 841.551969809 954.748276666 793.635665202 c 0
 932.822071677 745.719360596 932.822071677 745.719360596 902.465131498 703.422130716 c 0
 872.108191318 661.124900836 872.108191318 661.124900836 833.521256257 627.849012141 c 0
 794.934321196 594.573123447 794.934321196 594.573123447 751.22121313 570.538620512 c 0
 707.508105064 546.504117577 707.508105064 546.504117577 657.60495305 533.727058788 c 0
 607.701801037 520.95 607.701801037 520.95 555.898 520.95 c 0,6,7
 465.598624706 520.95 465.598624706 520.95 383.363604118 559.520925437 c 0
 301.128583529 598.091850874 301.128583529 598.091850874 241.656895882 663.281933938 c 0
 182.185208235 728.472017002 182.185208235 728.472017002 146.997604118 818.614644187 c 0
 111.81 908.757271372 111.81 908.757271372 111.81 1007.74 c 4,0,1
338.125 1007.74 m 4,8,9
 338.125 1124.41641908 338.125 1124.41641908 401.93233236 1206.98820954 c 0
 465.739664721 1289.56 465.739664721 1289.56 555.898 1289.56 c 0,10,11
 585.494526934 1289.56 585.494526934 1289.56 613.724111953 1279.42883005 c 0
 641.953696972 1269.29766011 641.953696972 1269.29766011 665.831388047 1251.12575328 c 0
 689.709079123 1232.95384645 689.709079123 1232.95384645 709.819352693 1206.92966339 c 0
 729.929626264 1180.90548033 729.929626264 1180.90548033 743.972239899 1150.00575328 c 0
 758.014853535 1119.10602623 758.014853535 1119.10602623 765.843926767 1082.57383005 c 0
 773.673 1046.04163388 773.673 1046.04163388 773.673 1007.74 c 0,12,13
 773.673 891.064540949 773.673 891.064540949 709.86491923 808.489270474 c 0
 646.056838461 725.914 646.056838461 725.914 555.898 725.914 c 0,14,15
 465.740506842 725.914 465.740506842 725.914 401.932753421 808.489370573 c 0
 338.125 891.064741145 338.125 891.064741145 338.125 1007.74 c 4,8,9
EndSplineSet
Fore
SplineSet
498 1110 m 9,0,-1
 371 1165 l 1,1,2
 439 1303 439 1303 588 1399 c 128,-1,3
 737 1495 737 1495 887 1495 c 0,4,5
 1087.47651007 1495 1087.47651007 1495 1178 1354.5 c 0,6,7
 1226 1280 1226 1280 1226 1197.5 c 128,-1,8
 1226 1115 1226 1115 1214 1058.5 c 128,-1,9
 1202 1002 1202 1002 1178 953 c 128,-1,10
 1154 904 1154 904 1125 864.5 c 128,-1,11
 1096 825 1096 825 1055.5 785.5 c 128,-1,12
 1015 746 1015 746 980 718 c 128,-1,13
 945 690 945 690 900 659 c 128,-1,14
 855 628 855 628 825.5 610.5 c 128,-1,15
 796 593 796 593 758 571 c 0,16,17
 607.510283491 483.874374653 607.510283491 483.874374653 474.755141745 356.937187326 c 128,-1,18
 342 230 342 230 323 141 c 1,19,-1
 1046 141 l 1,20,-1
 1016 0 l 1,21,-1
 109 0 l 1,22,23
 178.104449112 324.790910827 178.104449112 324.790910827 541.5 580 c 0,24,25
 628.71657754 641.251336898 628.71657754 641.251336898 701.35828877 683.625668449 c 128,-1,26
 774 726 774 726 793.5 738 c 128,-1,27
 813 750 813 750 848.5 774 c 128,-1,28
 884 798 884 798 905.5 816.5 c 128,-1,29
 927 835 927 835 955.5 863.5 c 128,-1,30
 984 892 984 892 1002 919 c 0,31,32
 1069 1019.5 1069 1019.5 1069 1127.75 c 128,-1,33
 1069 1236 1069 1236 1008 1295 c 128,-1,34
 947 1354 947 1354 852 1354 c 128,-1,35
 757 1354 757 1354 658 1290.5 c 128,-1,36
 559 1227 559 1227 498 1110 c 9,0,-1
EndSplineSet
EndChar

StartChar: three
Encoding: 51 51 19
Width: 1126
Flags: HMW
LayerCount: 2
Back
SplineSet
25.6201 1076.06 m 4,0,1
 25.6201 1195.96090875 25.6201 1195.96090875 85.3895128605 1292.36606052 c 0
 145.158925721 1388.77121229 145.158925721 1388.77121229 246.514253806 1441.65060615 c 0
 347.869581891 1494.53 347.869581891 1494.53 469.709 1494.53 c 0,2,3
 591.548391987 1494.53 591.548391987 1494.53 692.903514664 1441.65059668 c 0
 794.25863734 1388.77119336 794.25863734 1388.77119336 854.02781867 1292.36606999 c 0
 913.797 1195.96094662 913.797 1195.96094662 913.797 1076.06 c 0,4,5
 913.797 956.161354103 913.797 956.161354103 854.027894694 859.756921859 c 0
 794.258789388 763.352489615 794.258789388 763.352489615 692.903438639 710.472744808 c 0
 591.548087891 657.593 591.548087891 657.593 469.709 657.593 c 0,6,7
 291.330143008 657.593 291.330143008 657.593 165.611796745 766.100524905 c 0
 39.3208881683 875.102228436 39.3208881683 875.102228436 26.8312639505 1043.18996669 c 0
 25.6560349102 1060.00449668 25.6560349102 1060.00449668 25.6201 1076.06 c 4,0,1
226.314 1076.06 m 4,8,9
 226.314 1174.38103001 226.314 1174.38103001 296.200312938 1234.105515 c 0
 366.086625876 1293.83 366.086625876 1293.83 469.709 1293.83 c 0,10,11
 573.330804882 1293.83 573.330804882 1293.83 643.217402441 1234.10544123 c 0
 713.104 1174.38088246 713.104 1174.38088246 713.104 1076.06 c 0,12,13
 713.104 977.735849583 713.104 977.735849583 643.217670242 918.010924792 c 0
 573.331340484 858.286 573.331340484 858.286 469.709 858.286 c 0,14,15
 419.416986608 858.286 419.416986608 858.286 375.013060268 873.613580564 c 0
 330.609133928 888.941161129 330.609133928 888.941161129 297.613627232 916.595810061 c 0
 264.618120536 944.250458993 264.618120536 944.250458993 245.466060268 985.545861814 c 0
 226.314 1026.84126464 226.314 1026.84126464 226.314 1076.06 c 4,8,9
469.709 1076.06 m 29
23.4863 414.198 m 4,17,18
 23.4863 466.00119306 23.4863 466.00119306 35.1424869816 515.903955107 c 0
 46.7986739632 565.806717154 46.7986739632 565.806717154 68.7247920271 609.51970087 c 0
 90.650910091 653.232684586 90.650910091 653.232684586 121.007732463 691.819605253 c 0
 151.364554834 730.406525919 151.364554834 730.406525919 189.951445088 760.763578421 c 0
 228.538335342 791.120630923 228.538335342 791.120630923 272.251405932 813.046952191 c 0
 315.964476522 834.97327346 315.964476522 834.97327346 365.867751794 846.62963673 c 0
 415.771027066 858.286 415.771027066 858.286 467.575 858.286 c 0,19,20
 557.87389483 858.286 557.87389483 858.286 640.10864393 823.098249616 c 0
 722.34339303 787.910499233 722.34339303 787.910499233 781.814746695 728.438734759 c 0
 841.28610036 668.966970284 841.28610036 668.966970284 876.47355018 586.731968366 c 0
 911.661 504.496966448 911.661 504.496966448 911.661 414.198 c 0,21,22
 911.661 341.879948837 911.661 341.879948837 889.238305992 274.109196805 c 0
 866.815611985 206.338444772 866.815611985 206.338444772 825.712318008 151.750249595 c 0
 784.609024031 97.1620544184 784.609024031 97.1620544184 730.020881992 56.0587904046 c 0
 675.432739954 14.9555263908 675.432739954 14.9555263908 607.662494008 -7.46703680459 c 0
 539.892248062 -29.8896 539.892248062 -29.8896 467.575 -29.8896 c 0,23,24
 298.692845521 -29.8896 298.692845521 -29.8896 172.545637604 82.3582420897 c 0
 50.3585826248 191.082275535 50.3585826248 191.082275535 27.7990944198 352.105629144 c 0
 23.5554916904 383.404908739 23.5554916904 383.404908739 23.4863 414.198 c 4,17,18
224.181 414.198 m 4,25,26
 224.181 463.689622162 224.181 463.689622162 243.4662304 508.760900569 c 0
 262.7514608 553.832178976 262.7514608 553.832178976 295.346285225 586.427208806 c 0
 327.941109651 619.022238637 327.941109651 619.022238637 373.01226165 638.307619319 c 0
 418.083413649 657.593 418.083413649 657.593 467.575 657.593 c 0,27,28
 568.339904695 657.593 568.339904695 657.593 639.653952348 586.278547652 c 0
 710.968 514.964095304 710.968 514.964095304 710.968 414.198 c 0,29,30
 710.968 364.707152638 710.968 364.707152638 691.682640467 319.636103565 c 0
 672.397280934 274.565054491 672.397280934 274.565054491 639.802468908 241.97003706 c 0
 607.207656882 209.375019629 607.207656882 209.375019629 562.136734217 190.089509815 c 0
 517.065811553 170.804 517.065811553 170.804 467.575 170.804 c 0,31,32
 366.809095303 170.804 366.809095303 170.804 295.495047652 242.118452347 c 0
 224.181 313.432904695 224.181 313.432904695 224.181 414.198 c 4,25,26
467.575 414.198 m 29
EndSplineSet
Fore
SplineSet
167 252 m 9,0,-1
 332 299 l 1,1,2
 352 217 352 217 420 165 c 128,-1,3
 488 113 488 113 571 113 c 0,4,5
 710 113 710 113 824.5 198 c 128,-1,6
 939 283 939 283 969 424 c 0,7,8
 977 462 977 462 977 492 c 0,9,10
 977 604 977 604 897.5 667.5 c 128,-1,11
 818 731 818 731 706 731 c 2,12,-1
 628 731 l 1,13,-1
 655 856 l 1,14,-1
 753 856 l 2,15,16
 850 856 850 856 937 930 c 128,-1,17
 1024 1004 1024 1004 1048 1116 c 0,18,19
 1053 1137 1053 1137 1053 1164 c 0,20,21
 1053 1248 1053 1248 996.5 1303 c 128,-1,22
 940 1358 940 1358 858 1358 c 2,23,-1
 852 1358 l 2,24,25
 772 1358 772 1358 702 1315.5 c 128,-1,26
 632 1273 632 1273 585 1200 c 1,27,-1
 462 1264 l 1,28,29
 537 1369 537 1369 650.5 1433 c 128,-1,30
 764 1497 764 1497 894 1497 c 0,31,32
 1024 1497 1024 1497 1119.5 1412.5 c 128,-1,33
 1215 1328 1215 1328 1215 1193 c 0,34,35
 1215 1156 1215 1156 1206 1116 c 0,36,37
 1181 998 1181 998 1104.5 913 c 128,-1,38
 1028 828 1028 828 955 795 c 1,39,40
 1021 774 1021 774 1078 693.5 c 128,-1,41
 1135 613 1135 613 1135 504 c 0,42,43
 1135 466 1135 466 1126 424 c 0,44,45
 1084 228 1084 228 916 99.5 c 128,-1,46
 748 -29 748 -29 541 -29 c 0,47,48
 416 -29 416 -29 305.5 47.5 c 128,-1,49
 195 124 195 124 167 252 c 9,0,-1
EndSplineSet
EndChar

StartChar: four
Encoding: 52 52 20
Width: 1136
Flags: HMW
LayerCount: 2
Fore
SplineSet
1173 1456 m 1,0,-1
 978 537 l 1,1,-1
 1167 537 l 1,2,-1
 1137 397 l 1,3,-1
 948 397 l 1,4,-1
 864 0 l 1,5,-1
 707 0 l 1,6,-1
 791 397 l 1,7,-1
 172 397 l 1,8,-1
 1003 1456 l 1,9,-1
 1173 1456 l 1,0,-1
971 1221 m 1,10,-1
 439 539 l 1,11,-1
 826 539 l 1,12,-1
 971 1221 l 1,10,-1
EndSplineSet
EndChar

StartChar: five
Encoding: 53 53 21
Width: 1136
Flags: HMW
LayerCount: 2
Back
SplineSet
224.181 1131.57 m 4,0,1
 224.181 1230.11179941 224.181 1230.11179941 273.34268013 1313.72878319 c 0
 322.50436026 1397.34576696 322.50436026 1397.34576696 407.103986537 1445.93788348 c 0
 491.703612813 1494.53 491.703612813 1494.53 591.405 1494.53 c 0,2,3
 691.107354571 1494.53 691.107354571 1494.53 775.707671976 1445.9378766 c 0
 860.307989381 1397.34575321 860.307989381 1397.34575321 909.469994691 1313.72879006 c 0
 958.632 1230.11182691 958.632 1230.11182691 958.632 1131.57 c 0,4,5
 958.632 1033.02827775 958.632 1033.02827775 909.469949515 949.412236105 c 0
 860.30789903 865.796194458 860.30789903 865.796194458 775.707717152 817.205097229 c 0
 691.107535274 768.614 691.107535274 768.614 591.405 768.614 c 0,6,7
 491.703432112 768.614 491.703432112 768.614 407.103941361 817.205090353 c 0
 322.504450611 865.796180706 322.504450611 865.796180706 273.342725305 949.41224298 c 0
 224.181 1033.02830525 224.181 1033.02830525 224.181 1131.57 c 4,0,1
145.182 414.198 m 4,8,9
 145.182 504.496982129 145.182 504.496982129 180.369640638 586.73197098 c 0
 215.557281276 668.966959831 215.557281276 668.966959831 275.028999987 728.438732145 c 0
 334.500718698 787.91050446 334.500718698 787.91050446 416.736046888 823.09825223 c 0
 498.971375077 858.286 498.971375077 858.286 589.271 858.286 c 0,10,11
 679.570624923 858.286 679.570624923 858.286 761.805953112 823.09825223 c 0
 844.041281302 787.91050446 844.041281302 787.91050446 903.513000013 728.438732145 c 0
 962.984718724 668.966959831 962.984718724 668.966959831 998.172359362 586.73197098 c 0
 1033.36 504.496982129 1033.36 504.496982129 1033.36 414.198 c 0,12,13
 1033.36 323.897974909 1033.36 323.897974909 998.17238383 241.662839568 c 0
 962.984767661 159.427704228 962.984767661 159.427704228 903.512975545 99.9563291819 c 0
 844.041183428 40.4849541362 844.041183428 40.4849541362 761.80597758 5.29767706809 c 0
 679.570771733 -29.8896 679.570771733 -29.8896 589.271 -29.8896 c 0,14,15
 498.971228267 -29.8896 498.971228267 -29.8896 416.73602242 5.29767706809 c 0
 334.500816572 40.4849541362 334.500816572 40.4849541362 275.029024455 99.9563291819 c 0
 215.557232339 159.427704228 215.557232339 159.427704228 180.36961617 241.662839568 c 0
 145.182 323.897974909 145.182 323.897974909 145.182 414.198 c 4,8,9
345.877 414.198 m 4,16,17
 345.877 514.964 345.877 514.964 417.1915 586.2785 c 0
 488.506 657.593 488.506 657.593 589.271 657.593 c 0,18,19
 690.036095305 657.593 690.036095305 657.593 761.351047652 586.278452349 c 0
 832.666 514.963904697 832.666 514.963904697 832.666 414.198 c 0,20,21
 832.666 313.433345303 832.666 313.433345303 761.350922652 242.118672651 c 0
 690.035845303 170.804 690.035845303 170.804 589.271 170.804 c 0,22,23
 488.50625 170.804 488.50625 170.804 417.191625 242.118625 c 0
 345.877 313.43325 345.877 313.43325 345.877 414.198 c 4,16,17
589.271 414.198 m 29
EndSplineSet
Fore
SplineSet
667.375 795.5 m 128,-1,1
 630 784 630 784 610.5 777 c 128,-1,2
 591 770 591 770 570 758.5 c 128,-1,3
 549 747 549 747 539 741 c 0,4,5
 504 720 504 720 495 711 c 1,6,-1
 366 786 l 1,7,-1
 602 1456 l 1,8,-1
 1274 1456 l 1,9,-1
 1245 1315 l 1,10,-1
 704 1315 l 1,11,-1
 547 887 l 1,12,13
 649 942 649 942 808 942 c 128,-1,14
 967 942 967 942 1063 845 c 128,-1,15
 1159 748 1159 748 1160 584 c 0,16,17
 1160 523 1160 523 1147 459 c 0,18,19
 1104 258 1104 258 949 114.5 c 128,-1,20
 794 -29 794 -29 608 -29 c 128,-1,21
 422 -29 422 -29 319 69.5 c 128,-1,22
 216 168 216 168 205 330 c 1,23,-1
 367 358 l 1,24,25
 398 113 398 113 622 113 c 0,26,27
 754 113 754 113 856 209.5 c 128,-1,28
 958 306 958 306 991 461 c 0,29,30
 1000 502 1000 502 1000 539 c 2,31,-1
 1000 544 l 1,32,33
 1001 658 1001 658 937 732.5 c 128,-1,34
 873 807 873 807 788.875 807 c 128,-1,0
 704.75 807 704.75 807 667.375 795.5 c 128,-1,1
EndSplineSet
EndChar

StartChar: six
Encoding: 54 54 22
Width: 1136
Flags: HMW
LayerCount: 2
Back
SplineSet
199.348 1131.57 m 4,0,1
 199.348 1230.11175528 199.348 1230.11175528 248.509936671 1313.72877215 c 0
 297.671873343 1397.34578903 297.671873343 1397.34578903 382.271729995 1445.93789451 c 0
 466.871586648 1494.53 466.871586648 1494.53 566.573 1494.53 c 0,2,3
 641.244261351 1494.53 641.244261351 1494.53 709.2466946 1465.77016358 c 0
 777.249127849 1437.01032717 777.249127849 1437.01032717 826.427352275 1388.40280517 c 0
 875.6055767 1339.79528317 875.6055767 1339.79528317 904.70278835 1272.58360108 c 0
 933.8 1205.371919 933.8 1205.371919 933.8 1131.57 c 0,4,5
 933.8 1033.02827775 933.8 1033.02827775 884.637949515 949.412236105 c 0
 835.47589903 865.796194458 835.47589903 865.796194458 750.875717152 817.205097229 c 0
 666.275535274 768.614 666.275535274 768.614 566.573 768.614 c 0,6,7
 491.902356268 768.614 491.902356268 768.614 423.900439586 797.373225243 c 0
 355.898522904 826.132450486 355.898522904 826.132450486 306.720419789 874.739181007 c 0
 257.542316673 923.345911528 257.542316673 923.345911528 228.445158336 990.557037743 c 0
 199.348 1057.76816396 199.348 1057.76816396 199.348 1131.57 c 4,0,1
120.35 414.198 m 4,8,9
 120.35 504.496982129 120.35 504.496982129 155.537640638 586.73197098 c 0
 190.725281276 668.966959831 190.725281276 668.966959831 250.196999987 728.438732145 c 0
 309.668718698 787.91050446 309.668718698 787.91050446 391.904046888 823.09825223 c 0
 474.139375077 858.286 474.139375077 858.286 564.439 858.286 c 0,10,11
 654.738646219 858.286 654.738646219 858.286 736.974269161 823.098243843 c 0
 819.209892104 787.910487686 819.209892104 787.910487686 878.681996464 728.438740532 c 0
 938.154100823 668.966993379 938.154100823 668.966993379 973.342050411 586.731962593 c 0
 1008.53 504.496931807 1008.53 504.496931807 1008.53 414.198 c 0,12,13
 1008.53 323.89802523 1008.53 323.89802523 973.34207488 241.662847955 c 0
 938.15414976 159.42767068 938.15414976 159.42767068 878.681971995 99.9563207949 c 0
 819.20979423 40.4849709101 819.20979423 40.4849709101 736.97429363 5.29768545505 c 0
 654.738793029 -29.8896 654.738793029 -29.8896 564.439 -29.8896 c 0,14,15
 474.139228267 -29.8896 474.139228267 -29.8896 391.90402242 5.29767706809 c 0
 309.668816572 40.4849541362 309.668816572 40.4849541362 250.197024455 99.9563291819 c 0
 190.725232339 159.427704228 190.725232339 159.427704228 155.53761617 241.662839568 c 0
 120.35 323.897974909 120.35 323.897974909 120.35 414.198 c 4,8,9
321.045 414.198 m 4,16,17
 321.045 514.964 321.045 514.964 392.3595 586.2785 c 0
 463.674 657.593 463.674 657.593 564.439 657.593 c 0,18,19
 665.204095305 657.593 665.204095305 657.593 736.519047652 586.278452349 c 0
 807.834 514.963904697 807.834 514.963904697 807.834 414.198 c 0,20,21
 807.834 348.116968464 807.834 348.116968464 775.249307745 292.044908783 c 0
 742.66461549 235.972849101 742.66461549 235.972849101 686.592358922 203.388424551 c 0
 630.520102353 170.804 630.520102353 170.804 564.439 170.804 c 0,22,23
 463.67425 170.804 463.67425 170.804 392.359625 242.118625 c 0
 321.045 313.43325 321.045 313.43325 321.045 414.198 c 4,16,17
564.439 414.198 m 29
EndSplineSet
Fore
SplineSet
838 208.5 m 0,0,1
 972 321.240384615 972 321.240384615 972 472 c 0,2,3
 972 574 972 574 905 641.5 c 128,-1,4
 838 709 838 709 717 709 c 128,-1,5
 596 709 596 709 494 619 c 128,-1,6
 392 529 392 529 367 412 c 0,7,8
 359 377 359 377 359 349 c 0,9,10
 359 247 359 247 427.5 184 c 128,-1,11
 496 121 496 121 615 121 c 128,-1,12
 734 121 734 121 838 208.5 c 0,0,1
612 827 m 1,13,14
 692 858 692 858 755 858 c 0,15,16
 917 858 917 858 1021 757.5 c 128,-1,17
 1125 657 1125 657 1125 502 c 2,18,-1
 1125 496 l 2,19,20
 1125 372.704081633 1125 372.704081633 1049 252.5 c 0,21,22
 941.880629409 83.0765056972 941.880629409 83.0765056972 762 10 c 0,23,24
 666 -29 666 -29 565 -29 c 0,25,26
 400 -29 400 -29 303.5 74 c 128,-1,27
 207 177 207 177 207 324 c 0,28,29
 207 475.557142857 207 475.557142857 311 637.5 c 0,30,31
 372.046511628 732.558139535 372.046511628 732.558139535 482 870 c 1,32,-1
 940 1454 l 1,33,-1
 1095 1454 l 1,34,-1
 612 827 l 1,13,14
EndSplineSet
EndChar

StartChar: seven
Encoding: 55 55 23
Width: 1136
Flags: HMW
LayerCount: 2
Fore
SplineSet
1388 1456 m 1,0,-1
 524 0 l 1,1,-1
 342 0 l 1,2,-1
 1136 1307 l 1,3,-1
 389 1307 l 1,4,-1
 420 1456 l 1,5,-1
 1388 1456 l 1,0,-1
EndSplineSet
EndChar

StartChar: eight
Encoding: 56 56 24
Width: 1136
Flags: HMW
LayerCount: 2
Back
SplineSet
136.642 1076.06 m 4,0,1
 136.642 1195.96079417 136.642 1195.96079417 196.411625775 1292.36603188 c 0
 256.181251549 1388.77126958 256.181251549 1388.77126958 357.536374225 1441.65063479 c 0
 458.891496902 1494.53 458.891496902 1494.53 580.73 1494.53 c 0,2,3
 702.569450035 1494.53 702.569450035 1494.53 803.925029175 1441.65061772 c 0
 905.280608316 1388.77123543 905.280608316 1388.77123543 965.050304158 1292.36604895 c 0
 1024.82 1195.96086247 1024.82 1195.96086247 1024.82 1076.06 c 0,4,5
 1024.82 956.161438255 1024.82 956.161438255 965.050380182 859.756942897 c 0
 905.280760365 763.352447539 905.280760365 763.352447539 803.924953151 710.47272377 c 0
 702.569145938 657.593 702.569145938 657.593 580.73 657.593 c 0,6,7
 489.708979993 657.593 489.708979993 657.593 408.075329999 688.822939093 c 0
 326.441680005 720.052878186 326.441680005 720.052878186 266.609170001 774.584295282 c 0
 206.776659998 829.115712378 206.776659998 829.115712378 171.709329999 907.574782843 c 0
 136.642 986.033853309 136.642 986.033853309 136.642 1076.06 c 4,0,1
337.336 1076.06 m 4,8,9
 337.336 1174.38081636 337.336 1174.38081636 407.222437938 1234.10540818 c 0
 477.108875876 1293.83 477.108875876 1293.83 580.73 1293.83 c 0,10,11
 684.352374124 1293.83 684.352374124 1293.83 754.238687062 1234.105515 c 0
 824.125 1174.38103001 824.125 1174.38103001 824.125 1076.06 c 0,12,13
 824.125 1026.84126464 824.125 1026.84126464 804.972939732 985.545861814 c 0
 785.820879464 944.250458993 785.820879464 944.250458993 752.825372768 916.595810061 c 0
 719.829866072 888.941161129 719.829866072 888.941161129 675.425939732 873.613580564 c 0
 631.022013392 858.286 631.022013392 858.286 580.73 858.286 c 0,14,15
 477.108340275 858.286 477.108340275 858.286 407.222170138 918.010957843 c 0
 337.336 977.735915685 337.336 977.735915685 337.336 1076.06 c 4,8,9
580.73 1076.06 m 29
134.508 414.198 m 4,17,18
 134.508 504.496982129 134.508 504.496982129 169.695640638 586.73197098 c 0
 204.883281276 668.966959831 204.883281276 668.966959831 264.354999987 728.438732145 c 0
 323.826718698 787.91050446 323.826718698 787.91050446 406.062046888 823.09825223 c 0
 488.297375077 858.286 488.297375077 858.286 578.597 858.286 c 0,19,20
 668.895862886 858.286 668.895862886 858.286 751.130169856 823.098262197 c 0
 833.364476826 787.910524394 833.364476826 787.910524394 892.835252019 728.438722178 c 0
 952.306027212 668.966919962 952.306027212 668.966919962 987.493013606 586.731980947 c 0
 1022.68 504.497041933 1022.68 504.497041933 1022.68 414.198 c 0,21,22
 1022.68 323.897915104 1022.68 323.897915104 987.493038074 241.662829601 c 0
 952.306076148 159.427744097 952.306076148 159.427744097 892.835227551 99.9563391493 c 0
 833.364378953 40.4849342014 833.364378953 40.4849342014 751.130194324 5.29766710072 c 0
 668.896009695 -29.8896 668.896009695 -29.8896 578.597 -29.8896 c 0,23,24
 488.297228267 -29.8896 488.297228267 -29.8896 406.06202242 5.29767706809 c 0
 323.826816572 40.4849541362 323.826816572 40.4849541362 264.355024455 99.9563291819 c 0
 204.883232339 159.427704228 204.883232339 159.427704228 169.69561617 241.662839568 c 0
 134.508 323.897974909 134.508 323.897974909 134.508 414.198 c 4,17,18
335.202 414.198 m 4,25,26
 335.202 514.96425 335.202 514.96425 406.516375 586.278625 c 0
 477.83075 657.593 477.83075 657.593 578.597 657.593 c 0,27,28
 679.36180939 657.593 679.36180939 657.593 750.675404695 586.278595304 c 0
 821.989 514.964190609 821.989 514.964190609 821.989 414.198 c 0,29,30
 821.989 313.433059391 821.989 313.433059391 750.675279697 242.118529696 c 0
 679.361559393 170.804 679.361559393 170.804 578.597 170.804 c 0,31,32
 512.515008758 170.804 512.515008758 170.804 456.44275219 203.388464996 c 0
 400.370495621 235.972929992 400.370495621 235.972929992 367.78624781 292.044868337 c 0
 335.202 348.116806682 335.202 348.116806682 335.202 414.198 c 4,25,26
578.597 414.198 m 29
EndSplineSet
Fore
SplineSet
420 183 m 128,-1,1
 493 113 493 113 618 113 c 128,-1,2
 743 113 743 113 860 206.5 c 128,-1,3
 977 300 977 300 1005 432 c 0,4,5
 1013 469 1013 469 1013 498 c 0,6,7
 1013 608 1013 608 935.5 673.5 c 128,-1,8
 858 739 858 739 730.5 739 c 128,-1,9
 603 739 603 739 493.5 656.5 c 0,10,11
 355.674826452 552.65911582 355.674826452 552.65911582 346 364 c 1,12,0
 347 253 347 253 420 183 c 128,-1,1
673 1290 m 0,13,14
 564 1201.18518519 564 1201.18518519 564 1064 c 0,15,16
 564 979 564 979 621 930 c 128,-1,17
 678 881 678 881 781 881 c 128,-1,18
 884 881 884 881 968.5 946 c 128,-1,19
 1053 1011 1053 1011 1077 1124 c 0,20,21
 1082 1148 1082 1148 1082 1178 c 0,22,23
 1082 1259 1082 1259 1027.5 1307.5 c 128,-1,24
 973 1356 973 1356 863.5 1356 c 128,-1,25
 754 1356 754 1356 673 1290 c 0,13,14
586.5 1390 m 128,-1,27
 726 1497 726 1497 890.5 1497 c 128,-1,28
 1055 1497 1055 1497 1148.5 1414.5 c 128,-1,29
 1242 1332 1242 1332 1242 1201 c 2,30,-1
 1242 1193 l 2,31,32
 1242 1162 1242 1162 1234 1124 c 0,33,34
 1190 917 1190 917 979 807 c 1,35,36
 1046.13580247 773.432098765 1046.13580247 773.432098765 1090.56790123 721.716049383 c 0,37,38
 1172 626.93442623 1172 626.93442623 1172 512 c 0,39,40
 1172 345.364640884 1172 345.364640884 1045.5 196.5 c 0,41,42
 955 90 955 90 830.5 30.5 c 128,-1,43
 706 -29 706 -29 576 -29 c 0,44,45
 405 -29 405 -29 295.5 74 c 128,-1,46
 186 177 186 177 185 336 c 1,47,48
 194.115725618 573.008866076 194.115725618 573.008866076 382.5 721.5 c 0,49,50
 454.407258065 778.17983871 454.407258065 778.17983871 532 807 c 1,51,52
 403 894.72 403 894.72 403 1037 c 2,53,-1
 403 1042 l 2,54,55
 403 1074 403 1074 413 1124 c 0,56,26
 447 1283 447 1283 586.5 1390 c 128,-1,27
EndSplineSet
EndChar

StartChar: nine
Encoding: 57 57 25
Width: 1136
Flags: HMW
LayerCount: 2
Back
SplineSet
241.089 1054.5 m 4,0,1
 241.089 955.247934343 241.089 955.247934343 310.328436386 883.302967172 c 0
 379.567872772 811.358 379.567872772 811.358 484.653 811.358 c 0,2,3
 585.30259215 811.358 585.30259215 811.358 652.363296075 881.427551075 c 0
 719.424 951.49710215 719.424 951.49710215 719.424 1043.11 c 0,4,5
 719.424 1086.32348872 719.424 1086.32348872 706.905033726 1125.33751609 c 0
 694.386067453 1164.35154346 694.386067453 1164.35154346 671.861054274 1194.39984391 c 0
 649.336041094 1224.44814436 649.336041094 1224.44814436 619.325865726 1246.58935609 c 0
 589.315690359 1268.73056782 589.315690359 1268.73056782 553.025246274 1280.34528391 c 0
 516.734802188 1291.96 516.734802188 1291.96 477.993 1291.96 c 0,6,7
 431.818264224 1291.96 431.818264224 1291.96 388.778476329 1274.30820142 c 0
 345.738688434 1256.65640284 345.738688434 1256.65640284 313.059851796 1225.96101733 c 0
 280.381015158 1195.26563183 280.381015158 1195.26563183 260.735007579 1150.42663892 c 0
 241.089 1105.58764601 241.089 1105.58764601 241.089 1054.5 c 4,0,1
737.784 716.073 m 4,8,9
 716.5566734 686.991163852 716.5566734 686.991163852 685.411391151 664.985683559 c 0
 654.266108902 642.980203265 654.266108902 642.980203265 619.749530724 630.637722691 c 0
 585.232952545 618.295242117 585.232952545 618.295242117 551.351984901 612.323621059 c 0
 517.471017258 606.352 517.471017258 606.352 484.653 606.352 c 0,10,11
 402.176884543 606.352 402.176884543 606.352 329.079960268 632.692049151 c 0
 255.983035992 659.032098302 255.983035992 659.032098302 203.076914132 703.530734849 c 0
 150.170792272 748.029371397 150.170792272 748.029371397 111.529185868 805.476945151 c 0
 72.8875794642 862.924518905 72.8875794642 862.924518905 53.7377397321 926.297070849 c 0
 34.5879 989.669622794 34.5879 989.669622794 34.5879 1052.6 c 0,12,13
 34.5879 1143.42469727 34.5879 1143.42469727 69.6102734625 1225.8691683 c 0
 104.632646925 1308.31363932 104.632646925 1308.31363932 163.949748412 1367.84567545 c 0
 223.2668499 1427.37771159 223.2668499 1427.37771159 305.396529713 1462.5238558 c 0
 387.526209525 1497.67 387.526209525 1497.67 477.993 1497.67 c 0,14,15
 567.08109357 1497.67 567.08109357 1497.67 643.623852315 1467.93503344 c 0
 720.166611061 1438.20006689 720.166611061 1438.20006689 775.403459685 1386.59115856 c 0
 830.640308308 1334.98225022 830.640308308 1334.98225022 870.672220315 1265.46972144 c 0
 910.704132322 1195.95719267 910.704132322 1195.95719267 931.479267685 1116.36088656 c 0
 952.254403047 1036.76458044 952.254403047 1036.76458044 955.165 951.096 c 0,16,17
 958.318457284 858.186138543 958.318457284 858.186138543 943.432 720.511 c 0
EndSplineSet
Fore
SplineSet
645 1253 m 0,0,1
 510 1138.76923077 510 1138.76923077 510 995 c 2,2,3
 510 989 l 2,4,5
 510 887 510 887 577.5 819.5 c 128,-1,6
 645 752 645 752 766 752 c 128,-1,7
 887 752 887 752 989 841.5 c 128,-1,8
 1091 931 1091 931 1116 1049 c 1,9,10
 1123 1087 1123 1087 1122 1111 c 1,11,12
 1122 1213 1122 1213 1054 1277 c 128,-1,13
 986 1341 986 1341 867.5 1341 c 128,-1,14
 749 1341 749 1341 645 1253 c 0,0,1
870 633 m 1,15,16
 790 602 790 602 726 602 c 0,17,18
 564 602 564 602 460.5 702.5 c 128,-1,19
 357 803 357 803 357 958 c 0,20,21
 357 1088.45454545 357 1088.45454545 433.5 1209 c 0,22,23
 541.411336032 1379.04210526 541.411336032 1379.04210526 721 1452 c 0,24,25
 817 1491 817 1491 922.5 1491 c 128,-1,26
 1028 1491 1028 1491 1111 1441 c 0,27,28
 1275 1342.20481928 1275 1342.20481928 1275 1139 c 0,29,30
 1275 987.861111111 1275 987.861111111 1169 821.5 c 0,31,32
 1107.61767627 725.163853029 1107.61767627 725.163853029 1055.30883813 660.081926514 c 128,-1,33
 1003 595 1003 595 999 590 c 2,34,-1
 550 0 l 1,35,-1
 382 0 l 1,36,-1
 870 633 l 1,15,16
EndSplineSet
EndChar

StartChar: colon
Encoding: 58 58 26
Width: 423
Flags: HMW
LayerCount: 2
Fore
SplineSet
131 72 m 1,0,1
 130 76 130 76 136.5 107.5 c 128,-1,2
 143 139 143 139 181.5 170.5 c 128,-1,3
 220 202 220 202 261 202 c 128,-1,4
 302 202 302 202 326.5 178 c 128,-1,5
 351 154 351 154 351 130 c 0,6,7
 351 60.7763157895 351 60.7763157895 306.5 23.8881578947 c 128,-1,8
 262 -13 262 -13 220.5 -13 c 128,-1,9
 179 -13 179 -13 155 11 c 128,-1,10
 131 35 131 35 131 72 c 1,0,1
286 801 m 1,11,12
 285 805 285 805 291.5 836.5 c 128,-1,13
 298 868 298 868 336.5 899.5 c 128,-1,14
 375 931 375 931 416.5 931 c 128,-1,15
 458 931 458 931 482 906.5 c 128,-1,16
 506 882 506 882 506 858.5 c 0,17,18
 506 789.776315789 506 789.776315789 461.5 752.888157895 c 128,-1,19
 417 716 417 716 375.5 716 c 128,-1,20
 334 716 334 716 310 740 c 128,-1,21
 286 764 286 764 286 801 c 1,11,12
EndSplineSet
EndChar

StartChar: semicolon
Encoding: 59 59 27
Width: 423
Flags: HMW
LayerCount: 2
Fore
SplineSet
286 801 m 1,0,1
 285 805 285 805 291.5 836.5 c 128,-1,2
 298 868 298 868 336.5 899.5 c 128,-1,3
 375 931 375 931 416.5 931 c 128,-1,4
 458 931 458 931 482 906.5 c 128,-1,5
 506 882 506 882 506 858.5 c 0,6,7
 506 789.776315789 506 789.776315789 461.5 752.888157895 c 128,-1,8
 417 716 417 716 375.5 716 c 128,-1,9
 334 716 334 716 310 740 c 128,-1,10
 286 764 286 764 286 801 c 1,0,1
326.5 178 m 128,-1,12
 351 154 351 154 351 115.538461538 c 128,-1,13
 351 77.0769230769 351 77.0769230769 325.5 19.5384615385 c 128,-1,14
 300 -38 300 -38 274 -76 c 128,-1,15
 248 -114 248 -114 229 -138.5 c 128,-1,16
 210 -163 210 -163 184.5 -191 c 128,-1,17
 159 -219 159 -219 158 -221 c 1,18,-1
 109 -190 l 1,19,20
 203 -86 203 -86 218 -12 c 1,21,22
 179 -12 179 -12 155 11.5 c 128,-1,23
 131 35 131 35 131 72 c 1,24,25
 130 76 130 76 136.5 107.5 c 128,-1,26
 143 139 143 139 181.5 170.5 c 128,-1,27
 220 202 220 202 261 202 c 128,-1,11
 302 202 302 202 326.5 178 c 128,-1,12
EndSplineSet
EndChar

StartChar: less
Encoding: 60 60 28
Width: 843
Flags: HMW
LayerCount: 2
Fore
SplineSet
597 23 m 1,0,-1
 219 635 l 1,1,-1
 855 1235 l 1,2,-1
 1054 1235 l 1,3,-1
 416 633 l 1,4,-1
 796 23 l 1,5,-1
 597 23 l 1,0,-1
EndSplineSet
EndChar

StartChar: equal
Encoding: 61 61 29
Width: 907
Flags: HMW
LayerCount: 2
Fore
SplineSet
172 500 m 1,0,-1
 972 500 l 1,1,-1
 942 358 l 1,2,-1
 142 358 l 1,3,-1
 172 500 l 1,0,-1
250 866 m 1,4,-1
 1050 866 l 1,5,-1
 1020 725 l 1,6,-1
 220 725 l 1,7,-1
 250 866 l 1,4,-1
EndSplineSet
EndChar

StartChar: greater
Encoding: 62 62 30
Width: 856
Flags: HMW
LayerCount: 2
Fore
SplineSet
295 20 m 1,0,-1
 96 20 l 1,1,-1
 735 633 l 1,2,-1
 355 1235 l 1,3,-1
 554 1235 l 1,4,-1
 932 635 l 1,5,-1
 295 20 l 1,0,-1
EndSplineSet
EndChar

StartChar: question
Encoding: 63 63 31
Width: 985
Flags: HMW
LayerCount: 2
Back
SplineSet
264.745 1093.14 m 0,0,1
 264.745 1173.09874893 264.745 1173.09874893 336.309762606 1231.32937446 c 0
 407.874525212 1289.56 407.874525212 1289.56 508.14 1289.56 c 0,2,3
 536.490521995 1289.56 536.490521995 1289.56 563.879543985 1284.28050768 c 0
 591.268565976 1279.00101536 591.268565976 1279.00101536 615.195237356 1269.13955063 c 0
 639.121908735 1259.2780859 639.121908735 1259.2780859 660.294844277 1245.684531 c 0
 681.467779819 1232.0909761 681.467779819 1232.0909761 698.088216947 1214.94444859 c 0
 714.708654076 1197.79792108 714.708654076 1197.79792108 726.736313665 1178.5012657 c 0
 738.763973253 1159.20461031 738.763973253 1159.20461031 745.148986627 1137.38398212 c 0
 751.534 1115.56335392 751.534 1115.56335392 751.534 1093.14 c 0,4,5
 751.534 1054.06831908 751.534 1054.06831908 732.248621615 1018.48595943 c 0
 712.96324323 982.903599783 712.96324323 982.903599783 680.368347135 957.170696821 c 0
 647.77345104 931.437793858 647.77345104 931.437793858 602.702309115 916.212396929 c 0
 557.63116719 900.987 557.63116719 900.987 508.14 900.987 c 0,6,7
 407.375170166 900.987 407.375170166 900.987 336.060085083 957.288031513 c 0
 264.745 1013.58906303 264.745 1013.58906303 264.745 1093.14 c 0,0,1
51.2402 1093.14 m 0,8,9
 51.2402 1202.11835857 51.2402 1202.11835857 111.83589995 1294.58875631 c 0
 172.431599901 1387.05915405 172.431599901 1387.05915405 276.705966716 1440.79457703 c 0
 380.980333532 1494.53 380.980333532 1494.53 503.869 1494.53 c 0,10,11
 577.577552415 1494.53 577.577552415 1494.53 646.651504052 1474.26341235 c 0
 715.725455689 1453.9968247 715.725455689 1453.9968247 771.363735948 1416.84562765 c 0
 827.002016207 1379.69443059 827.002016207 1379.69443059 868.895984052 1330.35477235 c 0
 910.789951896 1281.01511411 910.789951896 1281.01511411 933.643975948 1219.76018765 c 0
 956.498 1158.50526118 956.498 1158.50526118 956.498 1093.14 c 0,12,13
 956.498 984.163061185 956.498 984.163061185 895.902279391 891.69334863 c 0
 835.306558781 799.223636074 835.306558781 799.223636074 731.032053943 745.488318037 c 0
 626.757549104 691.753 626.757549104 691.753 503.869 691.753 c 0,14,15
 380.980456129 691.753 380.980456129 691.753 276.705997366 745.488320017 c 0
 172.431538602 799.223640034 172.431538602 799.223640034 111.835869301 891.69334665 c 0
 51.2402 984.163053266 51.2402 984.163053266 51.2402 1093.14 c 0,8,9
EndSplineSet
Fore
SplineSet
414 72 m 1,0,1
 413 76 413 76 419.5 107.5 c 128,-1,2
 426 139 426 139 464.5 170.5 c 128,-1,3
 503 202 503 202 544.5 202 c 128,-1,4
 586 202 586 202 610 178 c 128,-1,5
 634 154 634 154 634 130 c 0,6,7
 634 60.7763157895 634 60.7763157895 589.5 23.8881578947 c 128,-1,8
 545 -13 545 -13 503.5 -13 c 128,-1,9
 462 -13 462 -13 438 11 c 128,-1,10
 414 35 414 35 414 72 c 1,0,1
679 501 m 2,11,-1
 650 360 l 1,12,-1
 493 360 l 1,13,-1
 523 505 l 1,14,15
 541.872586873 589.926640927 541.872586873 589.926640927 576.936293436 636.963320463 c 128,-1,16
 612 684 612 684 645.5 714 c 128,-1,17
 679 744 679 744 703 761.5 c 128,-1,18
 727 779 727 779 767.5 807.5 c 128,-1,19
 808 836 808 836 837.5 858.5 c 128,-1,20
 867 881 867 881 878 889.5 c 128,-1,21
 889 898 889 898 917.5 924.5 c 128,-1,22
 946 951 946 951 957.5 970 c 0,23,24
 1014 1063.34782609 1014 1063.34782609 1014 1158.67391304 c 128,-1,25
 1014 1254 1014 1254 952 1305 c 128,-1,26
 890 1356 890 1356 776 1356 c 128,-1,27
 662 1356 662 1356 558 1266.5 c 128,-1,28
 454 1177 454 1177 434 1085 c 1,29,-1
 293 1110 l 1,30,31
 347 1274 347 1274 492.5 1385.5 c 128,-1,32
 638 1497 638 1497 807 1497 c 0,33,34
 1024.3943662 1497 1024.3943662 1497 1124 1361 c 0,35,36
 1176 1290 1176 1290 1176 1190 c 0,37,38
 1176 919.990990991 1176 919.990990991 873.5 726.5 c 0,39,40
 818 691 818 691 786 669 c 128,-1,41
 754 647 754 647 722.5 603.5 c 128,-1,42
 691 560 691 560 679 501 c 2,11,-1
EndSplineSet
EndChar

StartChar: at
Encoding: 64 64 32
Width: 1624
Flags: HMW
LayerCount: 2
Back
SplineSet
1095.49 730.855 m 4,0,1
 1095.49 800.59625 1095.49 800.59625 1144.846875 849.953125 c 0
 1194.20375 899.31 1194.20375 899.31 1263.94 899.31 c 0,2,3
 1333.68297654 899.31 1333.68297654 899.31 1383.04148827 849.95351174 c 0
 1432.4 800.59702348 1432.4 800.59702348 1432.4 730.855 c 0,4,5
 1432.4 661.114803868 1432.4 661.114803868 1383.04127693 611.757901934 c 0
 1333.68255387 562.401 1333.68255387 562.401 1263.94 562.401 c 0,6,7
 1218.20784467 562.401 1218.20784467 562.401 1179.40112783 584.952579204 c 0
 1140.594411 607.504158408 1140.594411 607.504158408 1118.0422055 646.312087463 c 0
 1095.49 685.120016518 1095.49 685.120016518 1095.49 730.855 c 4,0,1
969.309 730.184 m 0,8,9
 969.309 852.162744495 969.309 852.162744495 1055.63499723 938.491372247 c 0
 1141.96099446 1024.82 1141.96099446 1024.82 1263.94 1024.82 c 0,10,11
 1385.91986326 1024.82 1385.91986326 1024.82 1472.24993163 938.490943371 c 0
 1558.58 852.161886743 1558.58 852.161886743 1558.58 730.184 c 0,12,13
 1558.58 608.204381211 1558.58 608.204381211 1472.25019061 521.876190606 c 0
 1385.92038122 435.548 1385.92038122 435.548 1263.94 435.548 c 0,14,15
 1141.96047652 435.548 1141.96047652 435.548 1055.63473826 521.875761733 c 0
 969.309 608.203523466 969.309 608.203523466 969.309 730.184 c 0,8,9
581.585 730.654 m 0,16,17
 581.585 818.564577731 581.585 818.564577731 644.424413865 881.403788865 c 0
 707.263827731 944.243 707.263827731 944.243 795.175 944.243 c 0,18,19
 883.084544116 944.243 883.084544116 944.243 945.922272058 881.403852945 c 0
 1008.76 818.564705889 1008.76 818.564705889 1008.76 730.654 c 0,20,21
 1008.76 673.024886796 1008.76 673.024886796 980.027741227 623.777555032 c 0
 951.295482454 574.530223269 951.295482454 574.530223269 902.049258773 545.797111634 c 0
 852.803035093 517.064 852.803035093 517.064 795.175 517.064 c 0,22,23
 707.26375 517.064 707.26375 517.064 644.424375 579.903375 c 0
 581.585 642.74275 581.585 642.74275 581.585 730.654 c 0,16,17
157.566 730.323 m 0,24,25
 157.566 860.174605441 157.566 860.174605441 207.869058349 978.101199865 c 0
 258.172116699 1096.02779429 258.172116699 1096.02779429 343.350097901 1181.20575326 c 0
 428.528079102 1266.38371223 428.528079102 1266.38371223 546.455245849 1316.68685612 c 0
 664.382412597 1366.99 664.382412597 1366.99 794.235 1366.99 c 0,26,27
 898.22905495 1366.99 898.22905495 1366.99 995.462641869 1334.93600382 c 0
 1092.69622879 1302.88200765 1092.69622879 1302.88200765 1170.92627813 1244.05965218 c 0
 1249.15632747 1185.2372967 1249.15632747 1185.2372967 1307.97912187 1107.00798782 c 0
 1366.80191626 1028.77867894 1366.80191626 1028.77867894 1398.85595813 931.546756176 c 0
 1430.91 834.314833409 1430.91 834.314833409 1430.91 730.323 c 0,28,29
 1430.91 626.329730626 1430.91 626.329730626 1398.85594331 529.097149228 c 0
 1366.80188662 431.864567831 1366.80188662 431.864567831 1307.97913669 353.635251572 c 0
 1249.15638677 275.405935313 1249.15638677 275.405935313 1170.92626331 216.583808428 c 0
 1092.69613985 157.761681544 1092.69613985 157.761681544 995.462656692 125.707990772 c 0
 898.229173539 93.6543 898.229173539 93.6543 794.235 93.6543 c 0,30,31
 664.38222657 93.6543 664.38222657 93.6543 546.455214845 143.957024934 c 0
 428.52820312 194.259749867 428.52820312 194.259749867 343.350128905 279.437503191 c 0
 258.17205469 364.615256516 258.17205469 364.615256516 207.869027345 482.542443684 c 0
 157.566 600.469630851 157.566 600.469630851 157.566 730.323 c 0,24,25
29.8896 730.184 m 0,32,33
 29.8896 885.926471798 29.8896 885.926471798 90.3349863523 1027.49089113 c 0
 150.780372705 1169.05531047 150.780372705 1169.05531047 253.071601148 1271.34692137 c 0
 355.362829591 1373.63853227 355.362829591 1373.63853227 496.927386352 1434.08426613 c 0
 638.491943114 1494.53 638.491943114 1494.53 794.235 1494.53 c 0,34,35
 949.977005332 1494.53 949.977005332 1494.53 1091.54129776 1434.08424494 c 0
 1233.1055902 1373.63848989 1233.1055902 1373.63848989 1335.39706161 1271.34694256 c 0
 1437.68853303 1169.05539522 1437.68853303 1169.05539522 1498.13426651 1027.49086994 c 0
 1558.58 885.926344664 1558.58 885.926344664 1558.58 730.184 c 0,36,37
 1558.58 473.121139664 1558.58 473.121139664 1404.2927727 269.127452511 c 0
 1262.44703162 81.5835045289 1262.44703162 81.5835045289 1040.69902057 6.30773138896 c 0
 920.939866041 -33.9906390907 920.939866041 -33.9906390907 794.235 -34.1602 c 0,38,39
 537.171858203 -34.1602 537.171858203 -34.1602 333.178151593 120.125763126 c 0
 145.633513543 261.970850367 145.633513543 261.970850367 70.3576592758 483.718812203 c 0
 30.0591606391 603.47819359 30.0591606391 603.47819359 29.8896 730.184 c 0,32,33
452.629 730.184 m 0,40,41
 452.629 799.375520074 452.629 799.375520074 479.794658113 862.612310637 c 0
 506.960316225 925.849101201 506.960316225 925.849101201 552.765107512 971.653892488 c 0
 598.569898799 1017.45868377 598.569898799 1017.45868377 661.806689363 1044.62434189 c 0
 725.043479926 1071.79 725.043479926 1071.79 794.235 1071.79 c 0,42,43
 849.649155698 1071.79 849.649155698 1071.79 901.730368462 1054.4783659 c 0
 953.811581227 1037.16673179 953.811581227 1037.16673179 995.824039538 1005.4763701 c 0
 1037.83649785 973.786008419 1037.83649785 973.786008419 1069.52672046 931.773389895 c 0
 1101.21694308 889.760771371 1101.21694308 889.760771371 1118.52847154 837.679474105 c 0
 1135.84 785.598176838 1135.84 785.598176838 1135.84 730.184 c 0,44,45
 1135.84 637.796582717 1135.84 637.796582717 1089.96968847 559.057395679 c 0
 1044.09937694 480.318208641 1044.09937694 480.318208641 965.360644862 434.447604321 c 0
 886.621912781 388.577 886.621912781 388.577 794.235 388.577 c 0,46,47
 701.848061214 388.577 701.848061214 388.577 623.109098637 434.447593255 c 0
 544.37013606 480.31818651 544.37013606 480.31818651 498.49956803 559.057406745 c 0
 452.629 637.796626981 452.629 637.796626981 452.629 730.184 c 0,40,41
EndSplineSet
Fore
SplineSet
1292 805 m 1,0,-1
 1279.96969697 689.497704316 l 1,1,2
 1279.96969697 633.666666667 1279.96969697 633.666666667 1311.48484848 590.333333333 c 128,-1,3
 1343 547 1343 547 1396.5 547 c 128,-1,4
 1450 547 1450 547 1516 618.5 c 128,-1,5
 1582 690 1582 690 1597.5 762.5 c 128,-1,6
 1613 835 1613 835 1613 907 c 128,-1,7
 1613 979 1613 979 1576 1066.5 c 128,-1,8
 1539 1154 1539 1154 1473.5 1221 c 128,-1,9
 1408 1288 1408 1288 1309.5 1328 c 128,-1,10
 1211 1368 1211 1368 1087.5 1368 c 128,-1,11
 964 1368 964 1368 834.5 1316 c 128,-1,12
 705 1264 705 1264 602 1177 c 128,-1,13
 499 1090 499 1090 424.5 972 c 0,14,15
 309 789.060402685 309 789.060402685 309 585.030201342 c 128,-1,16
 309 381 309 381 452 236.5 c 128,-1,17
 595 92 595 92 825 92 c 0,18,19
 918 92 918 92 1026.5 126 c 128,-1,20
 1135 160 1135 160 1221 213 c 1,21,-1
 1277 111 l 1,22,23
 1046 -35 1046 -35 798 -35 c 0,24,25
 662 -35 662 -35 546 11 c 128,-1,26
 430 57 430 57 349.5 137 c 0,27,28
 179 306.440993789 179 306.440993789 179 568 c 0,29,30
 179 862.258064516 179 862.258064516 379.5 1114.5 c 0,31,32
 519 1290 519 1290 717 1392.5 c 128,-1,33
 915 1495 915 1495 1123 1495 c 0,34,35
 1259 1495 1259 1495 1376.5 1448.5 c 128,-1,36
 1494 1402 1494 1402 1574 1323 c 0,37,38
 1745 1154.1375 1745 1154.1375 1745 913 c 0,39,40
 1745 757.240963855 1745 757.240963855 1673.5 637.5 c 0,41,42
 1596.77842511 509.014470964 1596.77842511 509.014470964 1473 446 c 0,43,44
 1418 418 1418 418 1368 418 c 128,-1,45
 1318 418 1318 418 1264 446.5 c 128,-1,46
 1210 475 1210 475 1179 518 c 1,47,48
 1122 458 1122 458 1044.5 423.5 c 128,-1,49
 967 389 967 389 888 389 c 0,50,51
 765 389 765 389 687.5 466.5 c 128,-1,52
 610 544 610 544 610 661 c 0,53,54
 610 693 610 693 618 731 c 0,55,56
 648 871 648 871 769.5 971 c 128,-1,57
 891 1071 891 1071 1021 1071 c 128,-1,58
 1151 1071 1151 1071 1221.5 994.5 c 128,-1,59
 1292 918 1292 918 1292 805 c 1,0,-1
843 882.5 m 0,60,61
 742 800.275641026 742 800.275641026 742 683 c 0,62,63
 742 609 742 609 790.5 562.5 c 128,-1,64
 839 516 839 516 922 516 c 128,-1,65
 1005 516 1005 516 1072.5 578 c 128,-1,66
 1140 640 1140 640 1159 731 c 0,67,68
 1163 748 1163 748 1163 768 c 0,69,70
 1163 841 1163 841 1118 893.5 c 128,-1,71
 1073 946 1073 946 997 946 c 128,-1,72
 921 946 921 946 843 882.5 c 0,60,61
EndSplineSet
EndChar

StartChar: m
Encoding: 109 109 33
Width: 1533
Flags: HMW
LayerCount: 2
Back
SplineSet
280.576 0 m 9,0,-1
 129.024 0 l 1,1,-1
 129.024 1073.15 l 1,2,-1
 280.576 1073.15 l 1,3,-1
 280.576 870.4 l 1,4,5
 283.681283193 876.610566387 283.681283193 876.610566387 289.870507191 889.105330134 c 0
 304.767581587 919.179443657 304.767581587 919.179443657 312.753932544 934.5900663 c 0
 320.7402835 950.000688942 320.7402835 950.000688942 336.464639362 976.611525374 c 0
 352.188995224 1003.22236181 352.188995224 1003.22236181 364.25441771 1017.55698287 c 0
 376.319840196 1031.89160393 376.319840196 1031.89160393 395.505212598 1050.5673407 c 0
 414.690584999 1069.24307747 414.690584999 1069.24307747 433.72680376 1078.64629929 c 0
 452.76302252 1088.0495211 452.76302252 1088.0495211 478.301136206 1094.93476055 c 0
 503.839249891 1101.82 503.839249891 1101.82 532.48 1101.82 c 0,6,7
 583.087563879 1101.82 583.087563879 1101.82 625.369467499 1091.4222869 c 0
 667.651371119 1081.0245738 667.651371119 1081.0245738 704.037865834 1059.05637977 c 0
 740.42436055 1037.08818573 740.42436055 1037.08818573 767.837356388 1001.63436097 c 0
 795.250352226 966.18053622 795.250352226 966.18053622 814.704754723 917.442898284 c 0
 834.15915722 868.705260349 834.15915722 868.705260349 844.08657861 803.302435049 c 0
 854.014 737.899609749 854.014 737.899609749 854.014 657.408 c 2,8,-1
 854.016 0 l 1,9,-1
 702.464 0 l 1,10,-1
 702.462 657.408 l 2,11,12
 702.462 826.977752864 702.462 826.977752864 666.807540155 895.792876432 c 0
 631.153080311 964.608 631.153080311 964.608 532.482 964.608 c 0,13,14
 476.063023359 964.608 476.063023359 964.608 427.781805976 934.779599989 c 0
 379.500588594 904.951199977 379.500588594 904.951199977 347.835287774 856.004400011 c 0
 316.169986953 807.057600045 316.169986953 807.057600045 298.372993476 745.211599989 c 0
 280.576 683.365599932 280.576 683.365599932 280.576 618.496 c 2,15,-1
 280.576 0 l 9,0,-1
143.36 1474.56 m 25,16,-1
 143.36 -53.248 l 1
430.08 1466.37 m 25,18,-1
 430.08 -61.4404 l 1
286.72 -69.6318 m 25,20,-1
 286.72 1458.18 l 1,21,-1
 286.72 -69.6318 l 25,20,-1
573.44 1470.46 m 25,22,-1
 573.44 -57.3438 l 1
716.8 1466.37 m 25,24,-1
 716.8 -61.4404 l 1
860.16 -49.1523 m 25,26,-1
 860.16 1478.66 l 1,27,-1
 860.16 -49.1523 l 25,26,-1
EndSplineSet
Fore
SplineSet
854 0 m 1,0,-1
 702 0 l 1,1,-1
 818 547 l 2,2,3
 849 695 849 695 849 776 c 0,4,5
 849 965 849 965 704 965 c 0,6,7
 487 965 487 965 398 550 c 2,8,-1
 281 0 l 1,9,-1
 129 0 l 1,10,-1
 357 1073 l 1,11,-1
 509 1073 l 1,12,-1
 470 891 l 1,13,14
 575.925233645 1049.88785047 575.925233645 1049.88785047 673 1085 c 0,15,16
 720 1102 720 1102 776 1102 c 0,17,18
 892 1102 892 1102 952.5 1033.5 c 128,-1,19
 1013 965 1013 965 1017 860 c 1,20,21
 1066 964 1066 964 1155 1033 c 128,-1,22
 1244 1102 1244 1102 1353 1102 c 0,23,24
 1588 1102 1588 1102 1588 836 c 0,25,26
 1588 757 1588 757 1566 653 c 2,27,-1
 1427 0 l 1,28,-1
 1276 0 l 1,29,-1
 1391 543 l 2,30,31
 1422 686 1422 686 1422 773 c 0,32,33
 1422 958 1422 958 1280 958 c 0,34,35
 1058 958 1058 958 971 549 c 2,36,-1
 854 0 l 1,0,-1
EndSplineSet
EndChar

StartChar: n
Encoding: 110 110 34
Width: 1064
Flags: HMW
LayerCount: 2
Back
SplineSet
280.576 0 m 13,0,-1
 129.024 0 l 1,1,-1
 129.024 1073.15 l 1,2,-1
 280.576 1073.15 l 1,3,-1
 280.576 892.928 l 1,4,5
 287.77243843 910.019541271 287.77243843 910.019541271 299.144119333 929.015817944 c 0
 310.515800236 948.012094617 310.515800236 948.012094617 326.40344918 968.362619374 c 0
 342.291098125 988.713144132 342.291098125 988.713144132 360.846836534 1007.82962552 c 0
 379.402574943 1026.94610692 379.402574943 1026.94610692 401.970469588 1044.0951908 c 0
 424.538364234 1061.24427469 424.538364234 1061.24427469 448.200305922 1074.03272756 c 0
 471.86224761 1086.82118044 471.86224761 1086.82118044 499.032533728 1094.32059022 c 0
 526.202819847 1101.82 526.202819847 1101.82 552.96 1101.82 c 0,6,7
 627.906551494 1101.82 627.906551494 1101.82 701.286425357 1066.42237674 c 0
 774.66629922 1031.02475348 774.66629922 1031.02475348 830.819809018 972.10174826 c 0
 886.973318815 913.178743039 886.973318815 913.178743039 921.696394107 830.58012674 c 0
 956.419469399 747.981510441 956.419469399 747.981510441 956.414 659.456 c 2,8,-1
 956.416 0 l 1,9,-1
 804.864 0 l 1,10,-1
 804.864 661.504 l 2,11,12
 804.864 729.821252983 804.864 729.821252983 782.416902647 788.202990081 c 0
 759.969805295 846.584727178 759.969805295 846.584727178 723.567534853 884.394916169 c 0
 687.16526441 922.205105161 687.16526441 922.205105161 642.140777647 943.406552581 c 0
 597.116290884 964.608 597.116290884 964.608 550.912 964.608 c 0,13,14
 498.082174188 964.608 498.082174188 964.608 448.346716531 936.769052211 c 0
 398.611258875 908.930104422 398.611258875 908.930104422 361.827970969 862.462947789 c 0
 325.044683063 815.995791157 325.044683063 815.995791157 302.809341531 751.809052211 c 0
 280.574 687.622313265 280.574 687.622313265 280.574 618.496 c 2,15,-1
 280.576 0 l 13,0,-1
1003.52 -49.1523 m 25,16,-1
 1003.52 1478.66 l 1,17,-1
 1003.52 -49.1523 l 25,16,-1
143.36 1474.56 m 25,18,-1
 143.36 -53.248 l 1
430.08 1466.37 m 25,20,-1
 430.08 -61.4404 l 1
286.72 -69.6318 m 25,22,-1
 286.72 1458.18 l 1,23,-1
 286.72 -69.6318 l 25,22,-1
573.44 1470.46 m 25,24,-1
 573.44 -57.3438 l 1
716.8 1466.37 m 25,26,-1
 716.8 -61.4404 l 1
860.16 -49.1523 m 25,28,-1
 860.16 1478.66 l 1,29,-1
 860.16 -49.1523 l 25,28,-1
EndSplineSet
Fore
SplineSet
941 718 m 0,0,1
 941 965 941 965 751 965 c 0,2,3
 619 965 619 965 527 844.5 c 128,-1,4
 435 724 435 724 396 540 c 2,5,-1
 281 0 l 9,6,-1
 129 0 l 1,7,-1
 357 1073 l 1,8,-1
 509 1073 l 1,9,-1
 471 892 l 1,10,11
 518 981 518 981 612.5 1041.5 c 128,-1,12
 707 1102 707 1102 828.5 1102 c 128,-1,13
 950 1102 950 1102 1024 1018.5 c 128,-1,14
 1098 935 1098 935 1098 766 c 0,15,16
 1098 668.5 1098 668.5 1071 541 c 2,17,-1
 956 0 l 1,18,-1
 805 0 l 1,19,-1
 920 541 l 2,20,21
 941 643 941 643 941 718 c 0,0,1
EndSplineSet
EndChar

StartChar: o
Encoding: 111 111 35
Width: 1054
Flags: HMW
LayerCount: 2
Back
SplineSet
1003.52 -49.1523 m 29,0,-1
 1003.52 1478.66 l 1,1,-1
 1003.52 -49.1523 l 29,0,-1
143.36 1474.56 m 25,2,-1
 143.36 -53.248 l 1
430.08 1466.37 m 25,4,-1
 430.08 -61.4404 l 1
286.72 -69.6318 m 25,6,-1
 286.72 1458.18 l 1,7,-1
 286.72 -69.6318 l 25,6,-1
573.44 1470.46 m 25,8,-1
 573.44 -57.3438 l 1
716.8 1466.37 m 25,10,-1
 716.8 -61.4404 l 1
860.16 -49.1523 m 25,12,-1
 860.16 1478.66 l 1,13,-1
 860.16 -49.1523 l 25,12,-1
EndSplineSet
Fore
SplineSet
216 537 m 0,0,1
 268 783 268 783 416 938.5 c 128,-1,2
 564 1094 564 1094 772 1094 c 0,3,4
 938 1094 938 1094 1023.5 990.5 c 128,-1,5
 1109 887 1109 887 1109 713 c 0,6,7
 1109 632 1109 632 1082 504 c 128,-1,8
 1055 376 1055 376 980.5 250 c 128,-1,9
 906 124 906 124 789.5 47.5 c 128,-1,10
 673 -29 673 -29 520 -29 c 128,-1,11
 367 -29 367 -29 281.5 76 c 128,-1,12
 196 181 196 181 196 357 c 0,13,14
 196 440 196 440 216 537 c 0,0,1
370 537 m 0,15,16
 351 451 351 451 351 349 c 128,-1,17
 351 247 351 247 402.5 176.5 c 128,-1,18
 454 106 454 106 562 106 c 0,19,20
 770.177631579 106 770.177631579 106 883.5 371 c 0,21,22
 954 535.861538462 954 535.861538462 954 677.930769231 c 128,-1,23
 954 820 954 820 902.5 889 c 128,-1,24
 851 958 851 958 743 958 c 0,25,26
 599 958 599 958 504.5 841 c 128,-1,27
 410 724 410 724 370 537 c 0,15,16
EndSplineSet
EndChar

StartChar: p
Encoding: 112 112 36
Width: 1044
Flags: HMW
LayerCount: 2
Back
SplineSet
280.576 0 m 13,0,-1
 129.024 0 l 1,1,-1
 129.024 1073.15 l 1,2,-1
 280.576 1073.15 l 1,3,-1
 280.576 870.4 l 1,4,5
 298.125437 905.498874 298.125437 905.498874 319.298658624 937.10963525 c 0
 340.471880247 968.7203965 340.471880247 968.7203965 369.353629376 999.46095675 c 0
 398.235378505 1030.201517 398.235378505 1030.201517 430.021730624 1052.38528325 c 0
 461.808082742 1074.5690495 461.808082742 1074.5690495 501.703581376 1088.19452475 c 0
 541.599080011 1101.82 541.599080011 1101.82 583.68 1101.82 c 0,6,7
 634.593571065 1101.82 634.593571065 1101.82 680.39266081 1091.32708327 c 0
 726.191750556 1080.83416654 726.191750556 1080.83416654 768.48133919 1059.1515834 c 0
 810.770927824 1037.46900026 810.770927824 1037.46900026 844.667957106 1001.53915734 c 0
 878.564986389 965.609314424 878.564986389 965.609314424 903.800079931 917.538101917 c 0
 929.035173472 869.46688941 929.035173472 869.46688941 942.724586736 803.207231416 c 0
 956.414 736.947573423 956.414 736.947573423 956.414 657.408 c 2,8,-1
 956.416 0 l 1,9,-1
 804.864 0 l 1,10,-1
 804.862 657.408 l 2,11,12
 804.862 816.107622935 804.862 816.107622935 747.155726684 890.357811468 c 0
 689.449453368 964.608 689.449453368 964.608 583.682 964.608 c 0,13,14
 538.082434346 964.608 538.082434346 964.608 492.595936293 945.343578805 c 0
 447.109438241 926.07915761 447.109438241 926.07915761 409.541327707 892.105637195 c 0
 371.973217173 858.13211678 371.973217173 858.13211678 342.648672293 814.861402805 c 0
 313.324127414 771.59068883 313.324127414 771.59068883 296.950063707 720.335781195 c 0
 280.576 669.080873559 280.576 669.080873559 280.576 618.496 c 2,15,-1
 280.576 0 l 13,0,-1
143.36 1474.56 m 25,16,-1
 143.36 -53.248 l 1
430.08 1466.37 m 25,18,-1
 430.08 -61.4404 l 1
286.72 -69.6318 m 25,20,-1
 286.72 1458.18 l 1,21,-1
 286.72 -69.6318 l 25,20,-1
573.44 1470.46 m 25,22,-1
 573.44 -57.3438 l 1
716.8 1466.37 m 25,24,-1
 716.8 -61.4404 l 1
860.16 -49.1523 m 25,26,-1
 860.16 1478.66 l 1,27,-1
 860.16 -49.1523 l 25,26,-1
EndSplineSet
Fore
SplineSet
509 1073 m 9,0,-1
 469 886 l 1,1,2
 606 1102 606 1102 814 1102 c 0,3,4
 966 1102 966 1102 1039 1002 c 128,-1,5
 1112 902 1112 902 1112 737 c 0,6,7
 1112 646 1112 646 1089 537 c 128,-1,8
 1066 428 1066 428 1022 329.5 c 128,-1,9
 978 231 978 231 915 149 c 128,-1,10
 852 67 852 67 763 19 c 128,-1,11
 674 -29 674 -29 592 -29 c 128,-1,12
 510 -29 510 -29 463.5 -11.5 c 128,-1,13
 417 6 417 6 389 38 c 0,14,15
 340 94 340 94 320 184 c 1,16,-1
 190 -428 l 1,17,-1
 38 -428 l 1,18,-1
 357 1073 l 1,19,-1
 509 1073 l 9,0,-1
936 539 m 0,20,21
 954 621 954 621 954 723.5 c 128,-1,22
 954 826 954 826 900.5 896 c 128,-1,23
 847 966 847 966 757 966 c 0,24,25
 641 966 641 966 536.5 851 c 128,-1,26
 432 736 432 736 390 537 c 0,27,28
 373 458 373 458 373 385 c 0,29,30
 373 254 373 254 428.5 180 c 128,-1,31
 484 106 484 106 587 106 c 128,-1,32
 690 106 690 106 792 222.5 c 128,-1,33
 894 339 894 339 936 539 c 0,20,21
EndSplineSet
EndChar

StartChar: q
Encoding: 113 113 37
Width: 1048
Flags: HMW
LayerCount: 2
Back
SplineSet
262.144 538.624 m 4,0,1
 262.144 360.092223467 262.144 360.092223467 333.424248105 232.699755588 c 1
 404.836489502 107.305677079 404.836489502 107.305677079 509.954 106.496 c 0,2,3
 545.267979189 106.496 545.267979189 106.496 584.866693399 123.653339434 c 0
 624.465407608 140.810678867 624.465407608 140.810678867 664.040378601 177.074980566 c 0
 703.615349594 213.339282266 703.615349594 213.339282266 735.401701399 263.081179434 c 0
 767.188053203 312.823076601 767.188053203 312.823076601 787.050026601 384.824100566 c 0
 806.912 456.825124532 806.912 456.825124532 806.912 538.624 c 0,4,5
 806.912 625.817677113 806.912 625.817677113 780.32204554 704.840451394 c 0
 753.73209108 783.863225675 753.73209108 783.863225675 711.068251335 838.175407981 c 0
 668.404411589 892.487590288 668.404411589 892.487590288 614.32838929 924.451795144 c 0
 560.252366991 956.416 560.252366991 956.416 505.856 956.416 c 0,6,7
 437.44819128 956.416 437.44819128 956.416 381.404714487 900.949333333 c 0
 325.361237693 845.482666667 325.361237693 845.482666667 293.752618847 749.738666667 c 0
 262.144 653.994666667 262.144 653.994666667 262.144 538.624 c 4,0,1
802.816 161.792 m 5,8,9
 673.562059679 -28.6963 673.562059679 -28.6963 513.495 -28.6963 c 0,10,11
 512.629786145 -28.6963 512.629786145 -28.6963 511.745921187 -28.690088248 c 0
 510.862056229 -28.6838764959 510.862056229 -28.6838764959 509.95 -28.6719 c 0,12,13
 508.449844828 -28.6816 508.449844828 -28.6816 507.263 -28.6816 c 0,14,15
 450.93744845 -28.6816 450.93744845 -28.6816 400.361803406 -10.844097409 c 0
 349.786158361 6.99340518209 349.786158361 6.99340518209 310.127552279 38.5057988667 c 0
 270.468946197 70.0181925513 270.468946197 70.0181925513 237.2058967 113.275131746 c 0
 203.942847203 156.53207094 203.942847203 156.53207094 180.415960443 207.214778459 c 0
 156.889073682 257.897485977 156.889073682 257.897485977 140.525162006 314.24219297 c 0
 124.161250331 370.586899963 124.161250331 370.586899963 116.352625166 428.108252511 c 0
 108.544 485.629605059 108.544 485.629605059 108.544 542.72 c 0,16,17
 108.544 628.010805672 108.544 628.010805672 125.015227273 708.478232709 c 0
 141.486454545 788.945659746 141.486454545 788.945659746 174.943044727 858.797911291 c 0
 208.399634909 928.650162836 208.399634909 928.650162836 255.136955273 981.041368709 c 0
 301.874275636 1033.43257458 301.874275636 1033.43257458 366.504772727 1063.53128729 c 0
 431.135269818 1093.63 431.135269818 1093.63 505.856 1093.63 c 0,18,19
 599.273447972 1093.63 599.273447972 1093.63 678.137328309 1035.87749586 c 0
 757.001208645 978.124991718 757.001208645 978.124991718 802.818 894.976 c 1,20,-1
 802.816 1073.15 l 1,21,-1
 954.368 1073.15 l 1,22,-1
 954.368 -18.4316 l 2,23,24
 954.368 -75.5506285714 954.368 -75.5506285714 942.569213686 -127.911333528 c 0
 930.770427373 -180.272038484 930.770427373 -180.272038484 909.419870862 -222.92320758 c 0
 888.069314351 -265.574376676 888.069314351 -265.574376676 858.631067914 -301.949714869 c 0
 829.192821477 -338.325053061 829.192821477 -338.325053061 793.561585147 -365.113036152 c 0
 757.930348818 -391.901019242 757.930348818 -391.901019242 717.946006689 -410.786351603 c 0
 677.961664561 -429.671683965 677.961664561 -429.671683965 635.143112844 -439.091841983 c 0
 592.324561127 -448.512 592.324561127 -448.512 548.864 -448.512 c 0,25,26
 475.114284269 -448.512 475.114284269 -448.512 409.443400161 -426.97954139 c 0
 343.772516053 -405.447082781 343.772516053 -405.447082781 296.699111839 -370.43370661 c 0
 249.625707625 -335.420330439 249.625707625 -335.420330439 213.713928161 -290.52477339 c 0
 177.802148696 -245.629216342 177.802148696 -245.629216342 158.159959839 -199.34477861 c 0
 138.517770982 -153.060340878 138.517770982 -153.060340878 133.12 -108.544 c 1,27,-1
 276.478 -108.544 l 1,28,29
 283.324832591 -152.513429099 283.324832591 -152.513429099 309.018114641 -191.276113183 c 0
 334.711396691 -230.038797267 334.711396691 -230.038797267 371.176744734 -256.455261817 c 0
 407.642092776 -282.871726366 407.642092776 -282.871726366 452.020958391 -298.107863183 c 0
 496.399824006 -313.344 496.399824006 -313.344 540.672 -313.344 c 0,30,31
 578.974655285 -313.344 578.974655285 -313.344 615.935607911 -302.876638317 c 0
 652.896560536 -292.409276634 652.896560536 -292.409276634 686.887304089 -269.793284883 c 0
 720.878047643 -247.177293132 720.878047643 -247.177293132 746.548855911 -214.927243117 c 0
 772.219664179 -182.677193102 772.219664179 -182.677193102 787.517832089 -135.640913683 c 0
 802.816 -88.6046342647 802.816 -88.6046342647 802.816 -32.7676 c 2,32,-1
 802.816 161.792 l 5,8,9
143.36 1474.56 m 25,33,-1
 143.36 -53.248 l 1
430.08 1466.37 m 25,35,-1
 430.08 -61.4404 l 1
286.72 -69.6318 m 25,37,-1
 286.72 1458.18 l 1,38,-1
 286.72 -69.6318 l 25,37,-1
573.44 1470.46 m 25,39,-1
 573.44 -57.3438 l 1
716.8 1466.37 m 25,41,-1
 716.8 -61.4404 l 1
860.16 -49.1523 m 25,43,-1
 860.16 1478.66 l 1,44,-1
 860.16 -49.1523 l 25,43,-1
EndSplineSet
Fore
SplineSet
877 -199 m 2,0,1
 871 -225 871 -225 871 -252.5 c 0,2,3
 871 -313 871 -313 970 -313 c 1,4,-1
 942 -449 l 1,5,6
 715 -449 715 -449 715 -279 c 0,7,8
 715 -241 715 -241 723 -205 c 2,9,-1
 806 184 l 1,10,11
 703.007518797 25.6967418546 703.007518797 25.6967418546 578 -12.5 c 0,12,13
 524 -29 524 -29 460 -29 c 0,14,15
 310 -29 310 -29 238 73.5 c 128,-1,16
 166 176 166 176 166 342 c 0,17,18
 166 521.532258065 166 521.532258065 238 708.5 c 0,19,20
 344.477164073 984.997151867 344.477164073 984.997151867 547 1071 c 0,21,22
 620 1102 620 1102 692 1102 c 128,-1,23
 764 1102 764 1102 810 1084.5 c 128,-1,24
 856 1067 856 1067 884.5 1034.5 c 0,25,26
 935.314401623 976.553752535 935.314401623 976.553752535 955 886 c 1,27,-1
 995 1073 l 1,28,-1
 1147 1073 l 1,29,-1
 877 -199 l 2,0,1
342 539 m 0,30,31
 323 446 323 446 323 379 c 0,32,33
 323 250 323 250 376.5 178 c 128,-1,34
 430 106 430 106 519 106 c 0,35,36
 635 106 635 106 739.5 222.5 c 128,-1,37
 844 339 844 339 886 537 c 0,38,39
 904 621 904 621 904 690 c 0,40,41
 904 821 904 821 848 893.5 c 128,-1,42
 792 966 792 966 688.5 966 c 128,-1,43
 585 966 585 966 485 853 c 128,-1,44
 385 740 385 740 342 539 c 0,30,31
EndSplineSet
EndChar

StartChar: r
Encoding: 114 114 38
Width: 686
Flags: HMW
LayerCount: 2
Back
SplineSet
143.36 1474.56 m 29,0,-1
 143.36 -53.248 l 1
430.08 1466.37 m 29,2,-1
 430.08 -61.4404 l 1
286.72 -69.6318 m 29,4,-1
 286.72 1458.18 l 1,5,-1
 286.72 -69.6318 l 29,4,-1
573.44 1470.46 m 29,6,-1
 573.44 -57.3438 l 1
716.8 1466.37 m 29,8,-1
 716.8 -61.4404 l 1
860.16 -49.1523 m 29,10,-1
 860.16 1478.66 l 1,11,-1
 860.16 -49.1523 l 29,10,-1
EndSplineSet
Fore
SplineSet
964 1066 m 1,0,-1
 856 935 l 1,1,2
 813 965 813 965 751 965 c 0,3,4
 619 965 619 965 527 844.5 c 128,-1,5
 435 724 435 724 396 540 c 2,6,-1
 281 0 l 1,7,-1
 129 0 l 1,8,-1
 357 1073 l 1,9,-1
 509 1073 l 1,10,-1
 471 892 l 1,11,12
 518 981 518 981 612.5 1041.5 c 128,-1,13
 707 1102 707 1102 804.5 1102 c 0,14,15
 902 1102 902 1102 964 1066 c 1,0,-1
EndSplineSet
EndChar

StartChar: s
Encoding: 115 115 39
Width: 921
Flags: HMW
LayerCount: 2
Back
SplineSet
108.544 806.912 m 4,0,1
 108.544 866.045503372 108.544 866.045503372 136.293029098 919.898365145 c 0
 164.042058196 973.751226918 164.042058196 973.751226918 210.941439652 1012.6972911 c 0
 257.840821108 1051.64335529 257.840821108 1051.64335529 322.691466598 1074.68667765 c 0
 387.542112089 1097.73 387.542112089 1097.73 458.752 1097.73 c 0,2,3
 553.832760503 1097.73 553.832760503 1097.73 634.512190126 1058.79645398 c 0
 715.191619748 1019.86290795 715.191619748 1019.86290795 762.075809874 952.865546024 c 0
 808.96 885.868184094 808.96 885.868184094 808.96 806.912 c 0,4,5
 808.96 767.389190589 808.96 767.389190589 796.369830382 729.6914598 c 0
 783.779660765 691.99372901 783.779660765 691.99372901 761.197419618 660.107623534 c 0
 738.615178471 628.221518057 738.615178471 628.221518057 706.275330382 601.366219059 c 0
 673.935482294 574.510920061 673.935482294 574.510920061 635.537419618 555.758438349 c 0
 597.139356942 537.005956636 597.139356942 537.005956636 551.742830382 526.550978318 c 0
 506.346303823 516.096 506.346303823 516.096 458.752 516.096 c 0,6,7
 310.984645645 516.096 310.984645645 516.096 207.807164048 604.123363065 c 0
 109.099832389 689.500435017 109.099832389 689.500435017 108.544 806.912 c 4,0,1
264.192 802.816 m 0,8,9
 264.192 835.298023752 264.192 835.298023752 279.932487491 864.879155 c 0
 295.672974982 894.460286248 295.672974982 894.460286248 322.276590634 915.853141875 c 0
 348.880206285 937.245997501 348.880206285 937.245997501 385.666893741 949.90349875 c 0
 422.453581197 962.561 422.453581197 962.561 462.848 962.561 c 0,10,11
 489.846022808 962.561 489.846022808 962.561 515.597305985 956.818089016 c 0
 541.348589161 951.075178032 541.348589161 951.075178032 563.129944015 940.774452651 c 0
 584.91129887 930.47372727 584.91129887 930.47372727 603.256102281 915.722135312 c 0
 621.600905691 900.970543355 621.600905691 900.970543355 634.410684756 883.455526725 c 0
 647.220463821 865.940510095 647.220463821 865.940510095 654.36223191 845.233181609 c 0
 661.504 824.525853122 661.504 824.525853122 661.504 802.816 c 0,12,13
 661.504 781.106390607 661.504 781.106390607 654.362230793 760.399239061 c 0
 647.220461586 739.692087515 647.220461586 739.692087515 634.410685873 722.177177606 c 0
 621.60091016 704.662267697 621.60091016 704.662267697 603.256101164 689.910739061 c 0
 584.911292167 675.159210424 584.911292167 675.159210424 563.129945133 664.858510939 c 0
 541.348598099 654.557811455 541.348598099 654.557811455 515.597304867 648.814905727 c 0
 489.846011636 643.072 489.846011636 643.072 462.848 643.072 c 0,14,15
 380.604051033 643.072 380.604051033 643.072 322.398025517 689.877128965 c 0
 264.192 736.682257931 264.192 736.682257931 264.192 802.816 c 0,8,9
104.448 296.96 m 0,16,17
 104.448 349.654020481 104.448 349.654020481 122.751102233 399.03496856 c 0
 141.054204466 448.41591664 141.054204466 448.41591664 174.605825767 488.19162344 c 0
 208.157447067 527.96733024 208.157447067 527.96733024 252.716334233 557.91733656 c 0
 297.275221399 587.86734288 297.275221399 587.86734288 352.594337767 604.20567144 c 0
 407.913454135 620.544 407.913454135 620.544 466.944 620.544 c 0,18,19
 540.652916394 620.544 540.652916394 620.544 607.779038149 594.904613216 c 0
 674.905159904 569.265226432 674.905159904 569.265226432 723.450055601 525.931293034 c 0
 771.994951298 482.597359636 771.994951298 482.597359636 800.717475649 422.676925716 c 0
 829.44 362.756491797 829.44 362.756491797 829.44 296.96 c 0,20,21
 829.44 167.56108984 829.44 167.56108984 729.399348554 73.8293951644 c 0
 627.331656645 -21.8015068347 627.331656645 -21.8015068347 479.868821753 -26.4218244436 c 0
 472.912851174 -26.6095325889 472.912851174 -26.6095325889 466.944 -26.624 c 0,22,23
 407.913454135 -26.624 407.913454135 -26.624 352.594337767 -10.2856714399 c 0
 297.275221399 6.05265712015 297.275221399 6.05265712015 252.716334233 36.0026634399 c 0
 208.157447067 65.9526697597 208.157447067 65.9526697597 174.605825767 105.72837656 c 0
 141.054204466 145.50408336 141.054204466 145.50408336 122.751102233 194.88503144 c 0
 104.448 244.265979519 104.448 244.265979519 104.448 296.96 c 0,16,17
256 301.056 m 0,24,25
 256 340.617229358 256 340.617229358 272.551923085 376.645335101 c 0
 289.103846171 412.673440845 289.103846171 412.673440845 317.07884254 438.728649274 c 0
 345.053838909 464.783857703 345.053838909 464.783857703 383.736704335 480.199928851 c 0
 422.419569762 495.616 422.419569762 495.616 464.896 495.616 c 0,26,27
 521.611316085 495.616 521.611316085 495.616 569.735829021 469.569273316 c 0
 617.860341957 443.522546633 617.860341957 443.522546633 645.826170979 398.700726684 c 0
 673.792 353.878906734 673.792 353.878906734 673.792 301.056 c 0,28,29
 673.792 212.520926258 673.792 212.520926258 601.977939838 154.281475041 c 0
 542.390371165 106.884657951 542.390371165 106.884657951 464.896 106.496 c 0,30,31
 378.412842687 106.496 378.412842687 106.496 317.206421343 163.502081837 c 0
 256 220.508163674 256 220.508163674 256 301.056 c 0,24,25
143.36 1474.56 m 25,32,-1
 143.36 -53.248 l 1
430.08 1466.37 m 25,34,-1
 430.08 -61.4404 l 1
286.72 -69.6318 m 25,36,-1
 286.72 1458.18 l 1,37,-1
 286.72 -69.6318 l 25,36,-1
573.44 1470.46 m 25,38,-1
 573.44 -57.3438 l 1
716.8 1466.37 m 25,40,-1
 716.8 -61.4404 l 1
860.16 -49.1523 m 25,42,-1
 860.16 1478.66 l 1,43,-1
 860.16 -49.1523 l 25,42,-1
EndSplineSet
Fore
SplineSet
633.5 452 m 128,-1,1
 607 464 607 464 557.5 481.5 c 128,-1,2
 508 499 508 499 466 518 c 128,-1,3
 424 537 424 537 378.5 569 c 0,4,5
 286 634.054945055 286 634.054945055 286 746 c 0,6,7
 286 872.5 286 872.5 376 967.5 c 0,8,9
 497.61461794 1095.8709856 497.61461794 1095.8709856 702 1098 c 1,10,11
 880.317460317 1098 880.317460317 1098 961 987.5 c 0,12,13
 1001.71703057 931.735371179 1001.71703057 931.735371179 1008 871 c 1,14,-1
 856 841 l 1,15,16
 828 963 828 963 676 963 c 0,17,18
 596 963 596 963 529 923.5 c 0,19,20
 443 872.798507463 443 872.798507463 443 779 c 0,21,22
 443 694.428571429 443 694.428571429 556 646 c 0,23,24
 563 643 563 643 582.5 635.5 c 128,-1,25
 602 628 602 628 607.5 626 c 128,-1,26
 613 624 613 624 649.5 610 c 128,-1,27
 686 596 686 596 701.5 589.5 c 128,-1,28
 717 583 717 583 750.5 566.5 c 128,-1,29
 784 550 784 550 800.5 538 c 128,-1,30
 817 526 817 526 841.5 504.5 c 128,-1,31
 866 483 866 483 878 462 c 0,32,33
 908 409.5 908 409.5 908 364.25 c 0,34,35
 908 224.541353383 908 224.541353383 815.5 123 c 0,36,37
 749 50 749 50 657 10.5 c 128,-1,38
 565 -29 565 -29 467 -29 c 0,39,40
 315 -29 315 -29 235.5 38 c 128,-1,41
 156 105 156 105 142 217 c 1,42,-1
 295 245 l 1,43,44
 311 178 311 178 355.5 142 c 128,-1,45
 400 106 400 106 496.5 106 c 128,-1,46
 593 106 593 106 661 154 c 128,-1,47
 729 202 729 202 747 287 c 0,48,49
 750 303.5 750 303.5 750 326.25 c 128,-1,50
 750 349 750 349 734.5 375.5 c 128,-1,51
 719 402 719 402 689.5 421 c 128,-1,0
 660 440 660 440 633.5 452 c 128,-1,1
EndSplineSet
EndChar

StartChar: t
Encoding: 116 116 40
Width: 696
Flags: HMW
LayerCount: 2
Back
SplineSet
143.36 1474.56 m 29,0,-1
 143.36 -53.248 l 1
430.08 1466.37 m 29,2,-1
 430.08 -61.4404 l 1
286.72 -69.6318 m 29,4,-1
 286.72 1458.18 l 1,5,-1
 286.72 -69.6318 l 29,4,-1
573.44 1470.46 m 29,6,-1
 573.44 -57.3438 l 1
716.8 1466.37 m 29,8,-1
 716.8 -61.4404 l 1
860.16 -49.1523 m 29,10,-1
 860.16 1478.66 l 1,11,-1
 860.16 -49.1523 l 29,10,-1
EndSplineSet
Fore
SplineSet
443 938 m 1,0,-1
 301 938 l 1,1,-1
 330 1073 l 1,2,-1
 472 1073 l 1,3,-1
 525 1323 l 1,4,-1
 676 1323 l 1,5,-1
 623 1073 l 1,6,-1
 820 1073 l 1,7,-1
 791 938 l 1,8,-1
 594 938 l 1,9,-1
 441 215 l 2,10,11
 436 193 436 193 436 178 c 0,12,13
 436 98 436 98 533 98 c 2,14,-1
 603 98 l 1,15,-1
 576 -29 l 1,16,-1
 506 -29 l 2,17,18
 385 -29 385 -29 331.5 7.5 c 128,-1,19
 278 44 278 44 278 125 c 0,20,21
 278 161 278 161 289 211 c 2,22,-1
 443 938 l 1,0,-1
EndSplineSet
EndChar

StartChar: u
Encoding: 117 117 41
Width: 1064
Flags: HMW
LayerCount: 2
Back
SplineSet
143.36 1474.56 m 29,0,-1
 143.36 -53.248 l 1
430.08 1466.37 m 29,2,-1
 430.08 -61.4404 l 1
286.72 -69.6318 m 29,4,-1
 286.72 1458.18 l 1,5,-1
 286.72 -69.6318 l 29,4,-1
573.44 1470.46 m 29,6,-1
 573.44 -57.3438 l 1
716.8 1466.37 m 29,8,-1
 716.8 -61.4404 l 1
860.16 -49.1523 m 29,10,-1
 860.16 1478.66 l 1,11,-1
 860.16 -49.1523 l 29,10,-1
EndSplineSet
Fore
SplineSet
363 355 m 0,0,1
 363 108 363 108 553 108 c 0,2,3
 685 108 685 108 777 228.5 c 128,-1,4
 869 349 869 349 908 533 c 2,5,-1
 1023 1073 l 9,6,-1
 1175 1073 l 1,7,-1
 947 0 l 1,8,-1
 795 0 l 1,9,-1
 833 181 l 1,10,11
 786 92 786 92 691.5 31.5 c 128,-1,12
 597 -29 597 -29 475.5 -29 c 128,-1,13
 354 -29 354 -29 280 54.5 c 128,-1,14
 206 138 206 138 206 307 c 0,15,16
 206 404.5 206 404.5 233 532 c 2,17,-1
 348 1073 l 1,18,-1
 499 1073 l 1,19,-1
 384 532 l 2,20,21
 363 430 363 430 363 355 c 0,0,1
EndSplineSet
EndChar

StartChar: v
Encoding: 118 118 42
Width: 1024
Flags: HMW
LayerCount: 2
Back
SplineSet
143.36 1474.56 m 29,0,-1
 143.36 -53.248 l 1
430.08 1466.37 m 29,2,-1
 430.08 -61.4404 l 1
286.72 -69.6318 m 29,4,-1
 286.72 1458.18 l 1,5,-1
 286.72 -69.6318 l 29,4,-1
573.44 1470.46 m 29,6,-1
 573.44 -57.3438 l 1
716.8 1466.37 m 29,8,-1
 716.8 -61.4404 l 1
860.16 -49.1523 m 29,10,-1
 860.16 1478.66 l 1,11,-1
 860.16 -49.1523 l 29,10,-1
EndSplineSet
Fore
SplineSet
446 0 m 1,0,-1
 310 1073 l 1,1,-1
 470 1073 l 1,2,-1
 563 195 l 1,3,-1
 1037 1073 l 1,4,-1
 1195 1073 l 1,5,-1
 598 0 l 1,6,-1
 446 0 l 1,0,-1
EndSplineSet
EndChar

StartChar: w
Encoding: 119 119 43
Width: 1374
Flags: HMW
LayerCount: 2
Back
SplineSet
143.36 1474.56 m 29,0,-1
 143.36 -53.248 l 1
430.08 1466.37 m 29,2,-1
 430.08 -61.4404 l 1
286.72 -69.6318 m 29,4,-1
 286.72 1458.18 l 1,5,-1
 286.72 -69.6318 l 29,4,-1
573.44 1470.46 m 29,6,-1
 573.44 -57.3438 l 1
716.8 1466.37 m 29,8,-1
 716.8 -61.4404 l 1
860.16 -49.1523 m 29,10,-1
 860.16 1478.66 l 1,11,-1
 860.16 -49.1523 l 29,10,-1
EndSplineSet
Fore
SplineSet
881 862 m 1,0,-1
 471 0 l 1,1,-1
 354 0 l 1,2,-1
 296 1073 l 1,3,-1
 449 1073 l 1,4,-1
 467 250 l 1,5,-1
 849 1065 l 1,6,7
 1000 1065 l 1,8,-1
 1036 250 l 1,9,-1
 1404 1073 l 1,10,-1
 1557 1073 l 1,11,-1
 1042 0 l 1,12,-1
 920 0 l 1,13,-1
 881 862 l 1,0,-1
EndSplineSet
EndChar

StartChar: x
Encoding: 120 120 44
Width: 901
Flags: HMW
LayerCount: 2
Back
SplineSet
143.36 1474.56 m 29,0,-1
 143.36 -53.248 l 1
430.08 1466.37 m 29,2,-1
 430.08 -61.4404 l 1
286.72 -69.6318 m 29,4,-1
 286.72 1458.18 l 1,5,-1
 286.72 -69.6318 l 29,4,-1
573.44 1470.46 m 29,6,-1
 573.44 -57.3438 l 1
716.8 1466.37 m 29,8,-1
 716.8 -61.4404 l 1
860.16 -49.1523 m 29,10,-1
 860.16 1478.66 l 1,11,-1
 860.16 -49.1523 l 29,10,-1
EndSplineSet
Fore
SplineSet
870 0 m 1,0,-1
 700 0 l 1,1,-1
 553 440 l 1,2,-1
 229 0 l 1,3,-1
 53 0 l 1,4,-1
 482 539 l 1,5,-1
 283 1073 l 1,6,-1
 453 1073 l 1,7,-1
 595 639 l 1,8,-1
 920 1073 l 1,9,-1
 1090 1073 l 1,10,-1
 666 543 l 1,11,-1
 870 0 l 1,0,-1
EndSplineSet
EndChar

StartChar: y
Encoding: 121 121 45
Width: 1064
Flags: HMW
LayerCount: 2
Back
SplineSet
794.624 1073.15 m 13,0,-1
 946.176 1073.15 l 1,1,-1
 946.176 0 l 1,2,-1
 794.624 0 l 1,3,-1
 794.624 180.224 l 1,4,5
 781.5366072 149.1414421 781.5366072 149.1414421 755.812272018 114.435589308 c 0
 730.087936835 79.7297365165 730.087936835 79.7297365165 695.099727982 46.9084763166 c 0
 660.111519129 14.0872161167 660.111519129 14.0872161167 614.052272018 -7.29234194163 c 0
 567.993024906 -28.6719 567.993024906 -28.6719 522.24 -28.6719 c 0,6,7
 447.29388392 -28.6719 447.29388392 -28.6719 373.914006587 6.72633396181 c 0
 300.534129254 42.1245679236 300.534129254 42.1245679236 244.380555913 101.048300413 c 0
 188.226982573 159.972032903 188.226982573 159.972032903 153.503756587 242.571265212 c 0
 118.780530601 325.170497521 118.780530601 325.170497521 118.786 413.696 c 2,8,-1
 118.784 1073.15 l 1,9,-1
 270.336 1073.15 l 1,10,-1
 270.336 411.648 l 2,11,12
 270.336 365.623096854 270.336 365.623096854 280.671002882 323.665650426 c 0
 291.006005763 281.708203998 291.006005763 281.708203998 309.064830452 248.902599574 c 0
 327.12365514 216.096995149 327.12365514 216.096995149 351.554299178 189.313409685 c 0
 375.984943216 162.529824221 375.984943216 162.529824221 404.224237859 144.982747722 c 0
 432.463532503 127.435671223 432.463532503 127.435671223 463.108262141 117.989835611 c 0
 493.752991779 108.544 493.752991779 108.544 524.288 108.544 c 0,13,14
 559.575880124 108.544 559.575880124 108.544 594.035602827 121.181992846 c 0
 628.495325531 133.819985692 628.495325531 133.819985692 658.146397173 156.322007154 c 0
 687.797468815 178.824028617 687.797468815 178.824028617 713.161788012 211.028511364 c 0
 738.52610721 243.232994112 738.52610721 243.232994112 756.451360136 281.098303451 c 0
 774.376613062 318.963612789 774.376613062 318.963612789 784.501306531 363.680363216 c 0
 794.626 408.397113643 794.626 408.397113643 794.626 454.656 c 2,15,-1
 794.624 1073.15 l 13,0,-1
143.36 1474.56 m 25,16,-1
 143.36 -53.248 l 1
430.08 1466.37 m 25,18,-1
 430.08 -61.4404 l 1
286.72 -69.6318 m 25,20,-1
 286.72 1458.18 l 1,21,-1
 286.72 -69.6318 l 25,20,-1
573.44 1470.46 m 25,22,-1
 573.44 -57.3438 l 1
716.8 1466.37 m 25,24,-1
 716.8 -61.4404 l 1
860.16 -49.1523 m 25,26,-1
 860.16 1478.66 l 1,27,-1
 860.16 -49.1523 l 25,26,-1
EndSplineSet
Fore
SplineSet
363 355 m 0,0,1
 363 108 363 108 553 108 c 0,2,3
 685 108 685 108 777 228.5 c 128,-1,4
 869 349 869 349 908 533 c 2,5,-1
 1023 1073 l 1,6,-1
 1175 1073 l 1,7,-1
 943 -18 l 2,8,9
 922 -117 922 -117 866.5 -200 c 128,-1,10
 811 -283 811 -283 738 -336.5 c 0,11,12
 584.495327103 -449 584.495327103 -449 425 -449 c 0,13,14
 213 -449 213 -449 99 -275 c 1,15,-1
 223 -190 l 1,16,17
 300 -313 300 -313 453 -313 c 0,18,19
 552.846153846 -313 552.846153846 -313 651.5 -245.5 c 0,20,21
 757.583333333 -172.916666667 757.583333333 -172.916666667 788 -33 c 1,22,23
 811 82 811 82 833 181 c 1,24,25
 786 92 786 92 691.5 31.5 c 128,-1,26
 597 -29 597 -29 475.5 -29 c 128,-1,27
 354 -29 354 -29 280 54.5 c 128,-1,28
 206 138 206 138 206 307 c 0,29,30
 206 404.5 206 404.5 233 532 c 2,31,-1
 348 1073 l 1,32,-1
 499 1073 l 1,33,-1
 384 532 l 2,34,35
 363 430 363 430 363 355 c 0,0,1
EndSplineSet
EndChar

StartChar: z
Encoding: 122 122 46
Width: 962
Flags: HMW
LayerCount: 2
Back
SplineSet
143.36 1474.56 m 29,0,-1
 143.36 -53.248 l 1
430.08 1466.37 m 29,2,-1
 430.08 -61.4404 l 1
286.72 -69.6318 m 29,4,-1
 286.72 1458.18 l 1,5,-1
 286.72 -69.6318 l 29,4,-1
573.44 1470.46 m 29,6,-1
 573.44 -57.3438 l 1
716.8 1466.37 m 29,8,-1
 716.8 -61.4404 l 1
860.16 -49.1523 m 29,10,-1
 860.16 1478.66 l 1,11,-1
 860.16 -49.1523 l 29,10,-1
EndSplineSet
Fore
SplineSet
372 141 m 1,0,-1
 907 141 l 1,1,-1
 877 0 l 1,2,-1
 90 0 l 1,3,-1
 853 932 l 1,4,-1
 329 932 l 1,5,-1
 359 1073 l 1,6,-1
 1135 1073 l 1,7,-1
 372 141 l 1,0,-1
EndSplineSet
EndChar

StartChar: Ograve
Encoding: 210 210 47
Width: 1333
Flags: HMW
LayerCount: 2
Fore
SplineSet
1056 1676 m 2,0,1
 1065 1666 1065 1666 1065 1655 c 0,2,3
 1065 1627.625 1065 1627.625 1046.5 1607.8125 c 0,4,5
 1022.39747634 1582 1022.39747634 1582 1000.94873817 1582 c 128,-1,6
 979.5 1582 979.5 1582 969 1591 c 2,7,-1
 711 1810 l 1,8,9
 688.15862069 1834.11034483 688.15862069 1834.11034483 693.579310345 1864.55517241 c 128,-1,10
 699 1895 699 1895 720 1915.5 c 0,11,12
 749.195121951 1944 749.195121951 1944 779.597560976 1944 c 128,-1,13
 810 1944 810 1944 828 1926 c 1,14,-1
 1056 1676 l 2,0,1
1124 394 m 0,15,16
 1275 651.958333333 1275 651.958333333 1275 952 c 0,17,18
 1275 1117.73913043 1275 1117.73913043 1208.5 1230.5 c 0,19,20
 1135.66666667 1354 1135.66666667 1354 964 1354 c 0,21,22
 871 1354 871 1354 788.5 1314 c 128,-1,23
 706 1274 706 1274 646.5 1210.5 c 128,-1,24
 587 1147 587 1147 538.5 1062.5 c 0,25,26
 393.356114092 809.620446202 393.356114092 809.620446202 388 507 c 1,27,28
 388 341.657142857 388 341.657142857 455 233.5 c 0,29,30
 529.646017699 113 529.646017699 113 700 113 c 0,31,32
 959.512195122 113 959.512195122 113 1124 394 c 0,15,16
223 511 m 0,33,34
 223 838.298507463 223 838.298507463 416 1135 c 0,35,36
 561.07360545 1358.02360241 561.07360545 1358.02360241 759 1445.5 c 0,37,38
 871 1495 871 1495 981 1495 c 128,-1,39
 1091 1495 1091 1495 1168.5 1464 c 128,-1,40
 1246 1433 1246 1433 1296 1381.5 c 128,-1,41
 1346 1330 1346 1330 1379 1259 c 0,42,43
 1440 1127.75757576 1440 1127.75757576 1440 983.378787879 c 128,-1,44
 1440 839 1440 839 1419 740.5 c 128,-1,45
 1398 642 1398 642 1366 558 c 128,-1,46
 1334 474 1334 474 1287.5 388 c 128,-1,47
 1241 302 1241 302 1177.5 228 c 128,-1,48
 1114 154 1114 154 1039 96 c 0,49,50
 877.362068966 -29 877.362068966 -29 670 -29 c 0,51,52
 392.829787234 -29 392.829787234 -29 284 203.5 c 0,53,54
 223 333.818181818 223 333.818181818 223 511 c 0,33,34
EndSplineSet
EndChar

StartChar: Oacute
Encoding: 211 211 48
Width: 1333
Flags: HMW
LayerCount: 2
Fore
SplineSet
948 1676 m 1,0,-1
 1282 1926 l 1,1,2
 1308 1944 1308 1944 1327 1944 c 0,3,4
 1371 1944 1371 1944 1386 1914 c 1,5,6
 1403.42553191 1885.85106383 1403.42553191 1885.85106383 1389.21276596 1856.42553191 c 128,-1,7
 1375 1827 1375 1827 1351 1810 c 1,8,-1
 999 1591 l 2,9,10
 986 1582 986 1582 977 1582 c 0,11,12
 943.2 1582 943.2 1582 931.6 1602 c 0,13,14
 915.610421836 1629.56823821 915.610421836 1629.56823821 925.305210918 1646.78411911 c 128,-1,15
 935 1664 935 1664 948 1676 c 1,0,-1
1124 394 m 0,16,17
 1275 651.958333333 1275 651.958333333 1275 952 c 0,18,19
 1275 1117.73913043 1275 1117.73913043 1208.5 1230.5 c 0,20,21
 1135.66666667 1354 1135.66666667 1354 964 1354 c 0,22,23
 871 1354 871 1354 788.5 1314 c 128,-1,24
 706 1274 706 1274 646.5 1210.5 c 128,-1,25
 587 1147 587 1147 538.5 1062.5 c 0,26,27
 393.356114092 809.620446202 393.356114092 809.620446202 388 507 c 1,28,29
 388 341.657142857 388 341.657142857 455 233.5 c 0,30,31
 529.646017699 113 529.646017699 113 700 113 c 0,32,33
 959.512195122 113 959.512195122 113 1124 394 c 0,16,17
223 511 m 0,34,35
 223 838.298507463 223 838.298507463 416 1135 c 0,36,37
 561.07360545 1358.02360241 561.07360545 1358.02360241 759 1445.5 c 0,38,39
 871 1495 871 1495 981 1495 c 128,-1,40
 1091 1495 1091 1495 1168.5 1464 c 128,-1,41
 1246 1433 1246 1433 1296 1381.5 c 128,-1,42
 1346 1330 1346 1330 1379 1259 c 0,43,44
 1440 1127.75757576 1440 1127.75757576 1440 983.378787879 c 128,-1,45
 1440 839 1440 839 1419 740.5 c 128,-1,46
 1398 642 1398 642 1366 558 c 128,-1,47
 1334 474 1334 474 1287.5 388 c 128,-1,48
 1241 302 1241 302 1177.5 228 c 128,-1,49
 1114 154 1114 154 1039 96 c 0,50,51
 877.362068966 -29 877.362068966 -29 670 -29 c 0,52,53
 392.829787234 -29 392.829787234 -29 284 203.5 c 0,54,55
 223 333.818181818 223 333.818181818 223 511 c 0,34,35
EndSplineSet
EndChar

StartChar: Ocircumflex
Encoding: 212 212 49
Width: 1329
Flags: HMW
LayerCount: 2
Fore
SplineSet
1134 394 m 0,0,1
 1285 651.958333333 1285 651.958333333 1285 952 c 0,2,3
 1285 1117.73913043 1285 1117.73913043 1218.5 1230.5 c 0,4,5
 1145.66666667 1354 1145.66666667 1354 974 1354 c 0,6,7
 881 1354 881 1354 798.5 1314 c 128,-1,8
 716 1274 716 1274 656.5 1210.5 c 128,-1,9
 597 1147 597 1147 548.5 1062.5 c 0,10,11
 403.356114092 809.620446202 403.356114092 809.620446202 398 507 c 1,12,13
 398 341.657142857 398 341.657142857 465 233.5 c 0,14,15
 539.646017699 113 539.646017699 113 710 113 c 0,16,17
 969.512195122 113 969.512195122 113 1134 394 c 0,0,1
233 511 m 0,18,19
 233 838.298507463 233 838.298507463 426 1135 c 0,20,21
 571.07360545 1358.02360241 571.07360545 1358.02360241 769 1445.5 c 0,22,23
 881 1495 881 1495 991 1495 c 128,-1,24
 1101 1495 1101 1495 1178.5 1464 c 128,-1,25
 1256 1433 1256 1433 1306 1381.5 c 128,-1,26
 1356 1330 1356 1330 1389 1259 c 0,27,28
 1450 1127.75757576 1450 1127.75757576 1450 983.378787879 c 128,-1,29
 1450 839 1450 839 1429 740.5 c 128,-1,30
 1408 642 1408 642 1376 558 c 128,-1,31
 1344 474 1344 474 1297.5 388 c 128,-1,32
 1251 302 1251 302 1187.5 228 c 128,-1,33
 1124 154 1124 154 1049 96 c 0,34,35
 887.362068966 -29 887.362068966 -29 680 -29 c 0,36,37
 402.829787234 -29 402.829787234 -29 294 203.5 c 0,38,39
 233 333.818181818 233 333.818181818 233 511 c 0,18,19
1362 1563 m 1,40,-1
 1174 1563 l 1,41,-1
 1064 1776 l 1,42,-1
 861 1565 l 1,43,-1
 675 1565 l 1,44,-1
 1024 1907 l 1,45,-1
 1155 1907 l 1,46,-1
 1362 1563 l 1,40,-1
EndSplineSet
EndChar

StartChar: Otilde
Encoding: 213 213 50
Width: 1329
Flags: HMW
LayerCount: 2
Fore
SplineSet
1134 394 m 0,0,1
 1285 651.958333333 1285 651.958333333 1285 952 c 0,2,3
 1285 1117.73913043 1285 1117.73913043 1218.5 1230.5 c 0,4,5
 1145.66666667 1354 1145.66666667 1354 974 1354 c 0,6,7
 881 1354 881 1354 798.5 1314 c 128,-1,8
 716 1274 716 1274 656.5 1210.5 c 128,-1,9
 597 1147 597 1147 548.5 1062.5 c 0,10,11
 403.356114092 809.620446202 403.356114092 809.620446202 398 507 c 1,12,13
 398 341.657142857 398 341.657142857 465 233.5 c 0,14,15
 539.646017699 113 539.646017699 113 710 113 c 0,16,17
 969.512195122 113 969.512195122 113 1134 394 c 0,0,1
233 511 m 0,18,19
 233 838.298507463 233 838.298507463 426 1135 c 0,20,21
 571.07360545 1358.02360241 571.07360545 1358.02360241 769 1445.5 c 0,22,23
 881 1495 881 1495 991 1495 c 128,-1,24
 1101 1495 1101 1495 1178.5 1464 c 128,-1,25
 1256 1433 1256 1433 1306 1381.5 c 128,-1,26
 1356 1330 1356 1330 1389 1259 c 0,27,28
 1450 1127.75757576 1450 1127.75757576 1450 983.378787879 c 128,-1,29
 1450 839 1450 839 1429 740.5 c 128,-1,30
 1408 642 1408 642 1376 558 c 128,-1,31
 1344 474 1344 474 1297.5 388 c 128,-1,32
 1251 302 1251 302 1187.5 228 c 128,-1,33
 1124 154 1124 154 1049 96 c 0,34,35
 887.362068966 -29 887.362068966 -29 680 -29 c 0,36,37
 402.829787234 -29 402.829787234 -29 294 203.5 c 0,38,39
 233 333.818181818 233 333.818181818 233 511 c 0,18,19
746 1770 m 17,40,41
 751 1774 751 1774 773.5 1789.5 c 128,-1,42
 796 1805 796 1805 806 1812 c 128,-1,43
 816 1819 816 1819 838 1831.5 c 128,-1,44
 860 1844 860 1844 875 1850 c 0,45,46
 915 1866 915 1866 946 1866 c 128,-1,47
 977 1866 977 1866 1001.5 1850.5 c 128,-1,48
 1026 1835 1026 1835 1045.5 1812.5 c 128,-1,49
 1065 1790 1065 1790 1084.5 1768 c 0,50,51
 1131.47727273 1715 1131.47727273 1715 1184 1715 c 0,52,53
 1245.12195122 1715 1245.12195122 1715 1351.5 1786.5 c 0,54,55
 1382 1807 1382 1807 1392 1813 c 1,56,-1
 1362 1668 l 1,57,58
 1327.33333333 1642 1327.33333333 1642 1305.66666667 1629 c 128,-1,59
 1284 1616 1284 1616 1260 1601.5 c 128,-1,60
 1236 1587 1236 1587 1223 1583 c 0,61,62
 1177.5 1569 1177.5 1569 1149.25 1569 c 128,-1,63
 1121 1569 1121 1569 1092.5 1584.5 c 128,-1,64
 1064 1600 1064 1600 1043 1622.5 c 128,-1,65
 1022 1645 1022 1645 1002.5 1667.5 c 0,66,67
 956.133333333 1721 956.133333333 1721 917 1721 c 0,68,69
 852.857142857 1721 852.857142857 1721 780 1670 c 0,70,71
 770 1663 770 1663 747 1646.5 c 128,-1,72
 724 1630 724 1630 715 1624 c 1,73,-1
 746 1770 l 17,40,41
EndSplineSet
EndChar

StartChar: Odieresis
Encoding: 214 214 51
Width: 1329
Flags: HMW
LayerCount: 2
Fore
SplineSet
1134 394 m 0,0,1
 1285 651.958333333 1285 651.958333333 1285 952 c 0,2,3
 1285 1117.73913043 1285 1117.73913043 1218.5 1230.5 c 0,4,5
 1145.66666667 1354 1145.66666667 1354 974 1354 c 0,6,7
 881 1354 881 1354 798.5 1314 c 128,-1,8
 716 1274 716 1274 656.5 1210.5 c 128,-1,9
 597 1147 597 1147 548.5 1062.5 c 0,10,11
 403.356114092 809.620446202 403.356114092 809.620446202 398 507 c 1,12,13
 398 341.657142857 398 341.657142857 465 233.5 c 0,14,15
 539.646017699 113 539.646017699 113 710 113 c 0,16,17
 969.512195122 113 969.512195122 113 1134 394 c 0,0,1
233 511 m 0,18,19
 233 838.298507463 233 838.298507463 426 1135 c 0,20,21
 571.07360545 1358.02360241 571.07360545 1358.02360241 769 1445.5 c 0,22,23
 881 1495 881 1495 991 1495 c 128,-1,24
 1101 1495 1101 1495 1178.5 1464 c 128,-1,25
 1256 1433 1256 1433 1306 1381.5 c 128,-1,26
 1356 1330 1356 1330 1389 1259 c 0,27,28
 1450 1127.75757576 1450 1127.75757576 1450 983.378787879 c 128,-1,29
 1450 839 1450 839 1429 740.5 c 128,-1,30
 1408 642 1408 642 1376 558 c 128,-1,31
 1344 474 1344 474 1297.5 388 c 128,-1,32
 1251 302 1251 302 1187.5 228 c 128,-1,33
 1124 154 1124 154 1049 96 c 0,34,35
 887.362068966 -29 887.362068966 -29 680 -29 c 0,36,37
 402.829787234 -29 402.829787234 -29 294 203.5 c 0,38,39
 233 333.818181818 233 333.818181818 233 511 c 0,18,19
844 1620 m 128,-1,41
 810 1592 810 1592 775 1592 c 128,-1,42
 740 1592 740 1592 718.5 1613.5 c 128,-1,43
 697 1635 697 1635 697 1675.82608696 c 128,-1,44
 697 1716.65217391 697 1716.65217391 736 1748.82608696 c 128,-1,45
 775 1781 775 1781 810.5 1781 c 128,-1,46
 846 1781 846 1781 866.5 1760.5 c 0,47,48
 897.6 1729.4 897.6 1729.4 887.8 1688.7 c 128,-1,40
 878 1648 878 1648 844 1620 c 128,-1,41
1284 1783 m 0,49,50
 1357.05849289 1783 1357.05849289 1783 1359 1700.51492537 c 0,51,52
 1360 1658.02985075 1360 1658.02985075 1321 1626.01492537 c 128,-1,53
 1282 1594 1282 1594 1246.5 1594 c 128,-1,54
 1211 1594 1211 1594 1189.5 1615.5 c 128,-1,55
 1168 1637 1168 1637 1168 1660 c 0,56,57
 1168 1718.65217391 1168 1718.65217391 1207 1750.82608696 c 128,-1,58
 1246 1783 1246 1783 1284 1783 c 0,49,50
EndSplineSet
EndChar

StartChar: multiply
Encoding: 215 215 52
Width: 833
Flags: HMW
LayerCount: 2
Fore
SplineSet
206 430 m 1,0,-1
 468 649 l 1,1,-1
 293 867 l 1,2,-1
 413 968 l 1,3,-1
 589 750 l 1,4,-1
 851 969 l 1,5,-1
 931 870 l 1,6,-1
 669 650 l 1,7,-1
 844 432 l 1,8,-1
 724 331 l 1,9,-1
 548 550 l 1,10,-1
 287 331 l 1,11,-1
 206 430 l 1,0,-1
EndSplineSet
EndChar

StartChar: Oslash
Encoding: 216 216 53
Width: 1285
Flags: HMW
LayerCount: 2
Fore
SplineSet
1390 949 m 2,0,-1
 1390 936 l 2,1,2
 1390 611.1875 1390 611.1875 1203 319 c 0,3,4
 1064.92375979 103.255874674 1064.92375979 103.255874674 874 18.5 c 0,5,6
 767 -29 767 -29 636.5 -29 c 128,-1,7
 506 -29 506 -29 409 41 c 1,8,-1
 363 -29 l 1,9,-1
 211 -29 l 1,10,-1
 319 134 l 1,11,12
 226 271 226 271 226 500 c 0,13,14
 226 826.441860465 226 826.441860465 413.5 1121.5 c 0,15,16
 553.128987517 1341.22623617 553.128987517 1341.22623617 743.5 1428 c 0,17,18
 851 1477 851 1477 971 1477 c 128,-1,19
 1091 1477 1091 1477 1177 1427 c 1,20,-1
 1223 1496 l 1,21,-1
 1375 1496 l 1,22,-1
 1274 1345 l 1,23,24
 1390 1202 1390 1202 1390 949 c 2,0,-1
494 170 m 1,25,26
 567 111 567 111 667.5 111 c 128,-1,27
 768 111 768 111 847.5 149 c 128,-1,28
 927 187 927 187 985 248 c 128,-1,29
 1043 309 1043 309 1090.5 390 c 0,30,31
 1177.50829384 538.372037915 1177.50829384 538.372037915 1209.25414692 688.186018957 c 128,-1,32
 1241 838 1241 838 1241 973 c 128,-1,33
 1241 1108 1241 1108 1183 1207 c 1,34,-1
 494 170 l 1,25,26
415 279 m 1,35,-1
 1092 1300 l 1,36,37
 1027 1338 1027 1338 938.5 1338 c 128,-1,38
 850 1338 850 1338 770 1298.5 c 128,-1,39
 690 1259 690 1259 632 1196.5 c 128,-1,40
 574 1134 574 1134 526.5 1050.5 c 0,41,42
 438.74353916 896.233379365 438.74353916 896.233379365 407.37176958 749.616689682 c 128,-1,43
 376 603 376 603 376 503 c 2,44,-1
 376 498 l 2,45,46
 376 364 376 364 415 279 c 1,35,-1
EndSplineSet
EndChar

StartChar: Ucircumflex
Encoding: 219 219 54
Width: 1298
Flags: HMW
LayerCount: 2
Fore
SplineSet
1323 1456 m 1,0,-1
 1484 1456 l 1,1,-1
 1312 645 l 2,2,3
 1244 328 1244 328 1068.5 149.5 c 128,-1,4
 893 -29 893 -29 647 -29 c 0,5,6
 450 -29 450 -29 345.5 86.5 c 128,-1,7
 241 202 241 202 241 415 c 0,8,9
 241 520 241 520 268 645 c 2,10,-1
 440 1456 l 1,11,-1
 602 1456 l 1,12,-1
 430 645 l 2,13,14
 407 540 407 540 407 450 c 0,15,16
 407 282 407 282 480 197.5 c 128,-1,17
 553 113 553 113 677 113 c 0,18,19
 829 113 829 113 957 239 c 0,20,21
 1092.42110671 372.305151915 1092.42110671 372.305151915 1151 645 c 2,22,-1
 1323 1456 l 1,0,-1
1318 1567 m 1,23,-1
 1130 1567 l 1,24,-1
 1019 1780 l 1,25,-1
 817 1569 l 1,26,-1
 631 1569 l 1,27,-1
 980 1911 l 1,28,-1
 1111 1911 l 1,29,-1
 1318 1567 l 1,23,-1
EndSplineSet
EndChar

StartChar: Udieresis
Encoding: 220 220 55
Width: 1298
Flags: HMW
LayerCount: 2
Fore
SplineSet
1323 1456 m 1,0,-1
 1484 1456 l 1,1,-1
 1312 645 l 2,2,3
 1244 328 1244 328 1068.5 149.5 c 128,-1,4
 893 -29 893 -29 647 -29 c 0,5,6
 450 -29 450 -29 345.5 86.5 c 128,-1,7
 241 202 241 202 241 415 c 0,8,9
 241 520 241 520 268 645 c 2,10,-1
 440 1456 l 1,11,-1
 602 1456 l 1,12,-1
 430 645 l 2,13,14
 407 540 407 540 407 450 c 0,15,16
 407 282 407 282 480 197.5 c 128,-1,17
 553 113 553 113 677 113 c 0,18,19
 829 113 829 113 957 239 c 0,20,21
 1092.42110671 372.305151915 1092.42110671 372.305151915 1151 645 c 2,22,-1
 1323 1456 l 1,0,-1
822 1620 m 128,-1,24
 788 1592 788 1592 753 1592 c 128,-1,25
 718 1592 718 1592 696.5 1613.5 c 128,-1,26
 675 1635 675 1635 675 1675.82608696 c 128,-1,27
 675 1716.65217391 675 1716.65217391 714 1748.82608696 c 128,-1,28
 753 1781 753 1781 788.5 1781 c 128,-1,29
 824 1781 824 1781 844.5 1760.5 c 0,30,31
 875.6 1729.4 875.6 1729.4 865.8 1688.7 c 128,-1,23
 856 1648 856 1648 822 1620 c 128,-1,24
1262 1783 m 0,32,33
 1335.05849289 1783 1335.05849289 1783 1337 1700.51492537 c 0,34,35
 1338 1658.02985075 1338 1658.02985075 1299 1626.01492537 c 128,-1,36
 1260 1594 1260 1594 1224.5 1594 c 128,-1,37
 1189 1594 1189 1594 1167.5 1615.5 c 128,-1,38
 1146 1637 1146 1637 1146 1660 c 0,39,40
 1146 1718.65217391 1146 1718.65217391 1185 1750.82608696 c 128,-1,41
 1224 1783 1224 1783 1262 1783 c 0,32,33
EndSplineSet
EndChar

StartChar: Yacute
Encoding: 221 221 56
Width: 1179
Flags: HMW
LayerCount: 2
Fore
SplineSet
847 1676 m 1,0,-1
 1181 1926 l 1,1,2
 1207 1944 1207 1944 1226 1944 c 0,3,4
 1270 1944 1270 1944 1285 1914 c 1,5,6
 1302.42553191 1885.85106383 1302.42553191 1885.85106383 1288.21276596 1856.42553191 c 128,-1,7
 1274 1827 1274 1827 1250 1810 c 1,8,-1
 898 1591 l 2,9,10
 884 1582 884 1582 875.5 1582 c 0,11,12
 842.2 1582 842.2 1582 830.6 1602 c 0,13,14
 814.610421836 1629.56823821 814.610421836 1629.56823821 824.305210918 1646.78411911 c 128,-1,15
 834 1664 834 1664 847 1676 c 1,0,-1
385 1456 m 1,16,-1
 553 1456 l 1,17,-1
 782 856 l 1,18,-1
 1265 1456 l 1,19,-1
 1433 1456 l 1,20,-1
 837 748 l 1,21,-1
 678 0 l 1,22,-1
 520 0 l 1,23,-1
 679 748 l 1,24,-1
 385 1456 l 1,16,-1
EndSplineSet
EndChar

StartChar: Thorn
Encoding: 222 222 57
Width: 1329
Flags: HMW
LayerCount: 2
Fore
SplineSet
404 477 m 1,0,1
 626.736842105 477 626.736842105 477 798.5 530.5 c 0,2,3
 890 559 890 559 951 615 c 0,4,5
 1034 691.196721311 1034 691.196721311 1034 794 c 0,6,7
 1034 1010 1034 1010 518 1010 c 1,8,-1
 404 477 l 1,0,1
454 1456 m 1,9,-1
 612 1456 l 1,10,-1
 547 1150 l 1,11,12
 1195 1150 1195 1150 1195 828 c 0,13,14
 1195 710.265060241 1195 710.265060241 1126.5 600.5 c 0,15,16
 1054.96612124 485.873423196 1054.96612124 485.873423196 891.5 415 c 0,17,18
 711.596774194 337 711.596774194 337 375 337 c 1,19,-1
 303 0 l 1,20,-1
 145 0 l 1,21,-1
 454 1456 l 1,9,-1
EndSplineSet
EndChar

StartChar: germandbls
Encoding: 223 223 58
Width: 1212
Flags: HMW
LayerCount: 2
Fore
SplineSet
419 1152 m 1,0,1
 504 1298 504 1298 646 1388.5 c 128,-1,2
 788 1479 788 1479 961 1479 c 128,-1,3
 1134 1479 1134 1479 1238 1397.5 c 128,-1,4
 1342 1316 1342 1316 1342 1174 c 0,5,6
 1342 1139 1342 1139 1335 1107.5 c 128,-1,7
 1328 1076 1328 1076 1328 1074 c 0,8,9
 1313 1005 1313 1005 1268.5 946 c 128,-1,10
 1224 887 1224 887 1164.5 848.5 c 0,11,12
 1049.53867403 774.113259669 1049.53867403 774.113259669 939 747 c 1,13,14
 1058.21182266 717.197044335 1058.21182266 717.197044335 1139.5 624.5 c 0,15,16
 1205 549.807017544 1205 549.807017544 1205 446 c 2,17,-1
 1205 441 l 2,18,19
 1205 413 1205 413 1197 378 c 0,20,21
 1110 -30 1110 -30 605 -30 c 0,22,23
 525 -30 525 -30 430 23 c 1,24,-1
 547 146 l 1,25,26
 557 142 557 142 575 132 c 0,27,28
 614.6 110 614.6 110 634 110 c 0,29,30
 838.881355932 110 838.881355932 110 940 188.5 c 0,31,32
 1022.56859832 252.599306587 1022.56859832 252.599306587 1050 378 c 0,33,34
 1055 403 1055 403 1055 423 c 0,35,36
 1055 497 1055 497 1002.5 557 c 128,-1,37
 950 617 950 617 868 648 c 128,-1,38
 786 679 786 679 696 679 c 2,39,-1
 660 679 l 2,40,41
 635 679 635 679 617 673 c 1,42,-1
 649 825 l 1,43,44
 663 821 663 821 685 821 c 2,45,-1
 727 821 l 2,46,47
 816 821 816 821 912 850.5 c 128,-1,48
 1008 880 1008 880 1085.5 940 c 128,-1,49
 1163 1000 1163 1000 1179 1074 c 0,50,51
 1187 1110 1187 1110 1187 1150 c 0,52,53
 1187 1342 1187 1342 940 1342 c 0,54,55
 797 1342 797 1342 706.5 1280.5 c 128,-1,56
 616 1219 616 1219 556.5 1113 c 128,-1,57
 497 1007 497 1007 441.5 812 c 128,-1,58
 386 617 386 617 325.5 353 c 128,-1,59
 265 89 265 89 240 0 c 1,60,-1
 92 0 l 1,61,62
 131 130 131 130 192.5 391 c 128,-1,63
 254 652 254 652 309.5 852.5 c 128,-1,64
 365 1053 365 1053 419 1152 c 1,0,1
EndSplineSet
EndChar

StartChar: acircumflex
Encoding: 226 226 59
Width: 1036
Flags: HMW
LayerCount: 2
Fore
SplineSet
758 529 m 128,-1,1
 701 582 701 582 606.5 582 c 128,-1,2
 512 582 512 582 427 512.5 c 0,3,4
 315 420.923529412 315 420.923529412 315 292 c 0,5,6
 315 209 315 209 372 157.5 c 128,-1,7
 429 106 429 106 523.5 106 c 128,-1,8
 618 106 618 106 703.5 175.5 c 0,9,10
 815 266.134502924 815 266.134502924 815 393 c 0,11,0
 815 476 815 476 758 529 c 128,-1,1
619 717 m 0,12,13
 723 717 723 717 787.5 662.5 c 128,-1,14
 852 608 852 608 854 559 c 1,15,-1
 874 655 l 2,16,17
 886 711 886 711 886 756 c 0,18,19
 886 852 886 852 837 903 c 128,-1,20
 788 954 788 954 706.5 954 c 0,21,22
 547.117647059 954 547.117647059 954 452 877 c 1,23,-1
 397 981 l 1,24,25
 554 1090 554 1090 707.5 1090 c 128,-1,26
 861 1090 861 1090 945 1009 c 128,-1,27
 1029 928 1029 928 1029 779 c 0,28,29
 1029 725 1029 725 1015 655 c 2,30,-1
 876 0 l 1,31,-1
 737 0 l 1,32,-1
 770 156 l 1,33,34
 752.890613148 107.597653287 752.890613148 107.597653287 657.945306574 39.2988266435 c 128,-1,35
 563 -29 563 -29 442.5 -29 c 128,-1,36
 322 -29 322 -29 239.5 47 c 128,-1,37
 157 123 157 123 157 253 c 0,38,39
 157 298 157 298 167 344 c 0,40,41
 201 504 201 504 332.5 610.5 c 128,-1,42
 464 717 464 717 619 717 c 0,12,13
1077 1139 m 1,43,-1
 889 1139 l 1,44,-1
 778 1352 l 1,45,-1
 576 1141 l 1,46,-1
 390 1141 l 1,47,-1
 739 1483 l 1,48,-1
 870 1483 l 1,49,-1
 1077 1139 l 1,43,-1
EndSplineSet
EndChar

StartChar: atilde
Encoding: 227 227 60
Width: 1036
Flags: HMW
LayerCount: 2
Fore
SplineSet
758 529 m 128,-1,1
 701 582 701 582 606.5 582 c 128,-1,2
 512 582 512 582 427 512.5 c 0,3,4
 315 420.923529412 315 420.923529412 315 292 c 0,5,6
 315 209 315 209 372 157.5 c 128,-1,7
 429 106 429 106 523.5 106 c 128,-1,8
 618 106 618 106 703.5 175.5 c 0,9,10
 815 266.134502924 815 266.134502924 815 393 c 0,11,0
 815 476 815 476 758 529 c 128,-1,1
619 717 m 0,12,13
 723 717 723 717 787.5 662.5 c 128,-1,14
 852 608 852 608 854 559 c 1,15,-1
 874 655 l 2,16,17
 886 711 886 711 886 756 c 0,18,19
 886 852 886 852 837 903 c 128,-1,20
 788 954 788 954 706.5 954 c 0,21,22
 547.117647059 954 547.117647059 954 452 877 c 1,23,-1
 397 981 l 1,24,25
 554 1090 554 1090 707.5 1090 c 128,-1,26
 861 1090 861 1090 945 1009 c 128,-1,27
 1029 928 1029 928 1029 779 c 0,28,29
 1029 725 1029 725 1015 655 c 2,30,-1
 876 0 l 1,31,-1
 737 0 l 1,32,-1
 770 156 l 1,33,34
 752.890613148 107.597653287 752.890613148 107.597653287 657.945306574 39.2988266435 c 128,-1,35
 563 -29 563 -29 442.5 -29 c 128,-1,36
 322 -29 322 -29 239.5 47 c 128,-1,37
 157 123 157 123 157 253 c 0,38,39
 157 298 157 298 167 344 c 0,40,41
 201 504 201 504 332.5 610.5 c 128,-1,42
 464 717 464 717 619 717 c 0,12,13
471 1352 m 17,43,44
 476 1356 476 1356 498.5 1371.5 c 128,-1,45
 521 1387 521 1387 531 1394 c 128,-1,46
 541 1401 541 1401 563 1413.5 c 128,-1,47
 585 1426 585 1426 600 1432 c 0,48,49
 640 1448 640 1448 671 1448 c 128,-1,50
 702 1448 702 1448 726.5 1432.5 c 128,-1,51
 751 1417 751 1417 770.5 1394.5 c 128,-1,52
 790 1372 790 1372 809.5 1350 c 0,53,54
 856.477272727 1297 856.477272727 1297 909 1297 c 0,55,56
 949.769230769 1297 949.769230769 1297 984.384615385 1315 c 128,-1,57
 1019 1333 1019 1333 1032 1340 c 128,-1,58
 1045 1347 1045 1347 1077.5 1368.5 c 128,-1,59
 1110 1390 1110 1390 1118 1395 c 1,60,-1
 1087 1250 l 1,61,62
 1052.33333333 1224 1052.33333333 1224 1030.66666667 1211 c 128,-1,63
 1009 1198 1009 1198 985 1183.5 c 128,-1,64
 961 1169 961 1169 948 1165 c 0,65,66
 902.5 1151 902.5 1151 874.25 1151 c 128,-1,67
 846 1151 846 1151 817.5 1166.5 c 128,-1,68
 789 1182 789 1182 768 1204.5 c 128,-1,69
 747 1227 747 1227 727.5 1249.5 c 0,70,71
 681.133333333 1303 681.133333333 1303 642 1303 c 0,72,73
 577.857142857 1303 577.857142857 1303 505 1252 c 0,74,75
 495 1245 495 1245 472 1228.5 c 128,-1,76
 449 1212 449 1212 440 1206 c 1,77,-1
 471 1352 l 17,43,44
EndSplineSet
EndChar

StartChar: adieresis
Encoding: 228 228 61
Width: 1036
Flags: HMW
LayerCount: 2
Fore
SplineSet
758 529 m 128,-1,1
 701 582 701 582 606.5 582 c 128,-1,2
 512 582 512 582 427 512.5 c 0,3,4
 315 420.923529412 315 420.923529412 315 292 c 0,5,6
 315 209 315 209 372 157.5 c 128,-1,7
 429 106 429 106 523.5 106 c 128,-1,8
 618 106 618 106 703.5 175.5 c 0,9,10
 815 266.134502924 815 266.134502924 815 393 c 0,11,0
 815 476 815 476 758 529 c 128,-1,1
619 717 m 0,12,13
 723 717 723 717 787.5 662.5 c 128,-1,14
 852 608 852 608 854 559 c 1,15,-1
 874 655 l 2,16,17
 886 711 886 711 886 756 c 0,18,19
 886 852 886 852 837 903 c 128,-1,20
 788 954 788 954 706.5 954 c 0,21,22
 547.117647059 954 547.117647059 954 452 877 c 1,23,-1
 397 981 l 1,24,25
 554 1090 554 1090 707.5 1090 c 128,-1,26
 861 1090 861 1090 945 1009 c 128,-1,27
 1029 928 1029 928 1029 779 c 0,28,29
 1029 725 1029 725 1015 655 c 2,30,-1
 876 0 l 1,31,-1
 737 0 l 1,32,-1
 770 156 l 1,33,34
 752.890613148 107.597653287 752.890613148 107.597653287 657.945306574 39.2988266435 c 128,-1,35
 563 -29 563 -29 442.5 -29 c 128,-1,36
 322 -29 322 -29 239.5 47 c 128,-1,37
 157 123 157 123 157 253 c 0,38,39
 157 298 157 298 167 344 c 0,40,41
 201 504 201 504 332.5 610.5 c 128,-1,42
 464 717 464 717 619 717 c 0,12,13
469 1242 m 128,-1,44
 447 1264 447 1264 447 1303.91304348 c 128,-1,45
 447 1343.82608696 447 1343.82608696 486.5 1376.41304348 c 128,-1,46
 526 1409 526 1409 561.5 1409 c 128,-1,47
 597 1409 597 1409 617.5 1388.5 c 0,48,49
 648.6 1357.4 648.6 1357.4 638.8 1316.7 c 128,-1,50
 629 1276 629 1276 595 1248 c 128,-1,51
 561 1220 561 1220 526 1220 c 128,-1,43
 491 1220 491 1220 469 1242 c 128,-1,44
919 1288 m 0,52,53
 919 1346.66423358 919 1346.66423358 958 1378.83211679 c 128,-1,54
 997 1411 997 1411 1032.5 1411 c 128,-1,55
 1068 1411 1068 1411 1088.5 1390.5 c 128,-1,56
 1109 1370 1109 1370 1110 1328.01492537 c 128,-1,57
 1111 1286.02985075 1111 1286.02985075 1072 1254.01492537 c 128,-1,58
 1033 1222 1033 1222 997.5 1222 c 128,-1,59
 962 1222 962 1222 940.5 1243.5 c 128,-1,60
 919 1265 919 1265 919 1288 c 0,52,53
EndSplineSet
EndChar

StartChar: aring
Encoding: 229 229 62
Width: 1036
Flags: HMW
LayerCount: 2
Fore
SplineSet
758 529 m 128,-1,1
 701 582 701 582 606.5 582 c 128,-1,2
 512 582 512 582 427 512.5 c 0,3,4
 315 420.923529412 315 420.923529412 315 292 c 0,5,6
 315 209 315 209 372 157.5 c 128,-1,7
 429 106 429 106 523.5 106 c 128,-1,8
 618 106 618 106 703.5 175.5 c 0,9,10
 815 266.134502924 815 266.134502924 815 393 c 0,11,0
 815 476 815 476 758 529 c 128,-1,1
619 717 m 0,12,13
 723 717 723 717 787.5 662.5 c 128,-1,14
 852 608 852 608 854 559 c 1,15,-1
 874 655 l 2,16,17
 886 711 886 711 886 756 c 0,18,19
 886 852 886 852 837 903 c 128,-1,20
 788 954 788 954 706.5 954 c 0,21,22
 547.117647059 954 547.117647059 954 452 877 c 1,23,-1
 397 981 l 1,24,25
 554 1090 554 1090 707.5 1090 c 128,-1,26
 861 1090 861 1090 945 1009 c 128,-1,27
 1029 928 1029 928 1029 779 c 0,28,29
 1029 725 1029 725 1015 655 c 2,30,-1
 876 0 l 1,31,-1
 737 0 l 1,32,-1
 770 156 l 1,33,34
 752.890613148 107.597653287 752.890613148 107.597653287 657.945306574 39.2988266435 c 128,-1,35
 563 -29 563 -29 442.5 -29 c 128,-1,36
 322 -29 322 -29 239.5 47 c 128,-1,37
 157 123 157 123 157 253 c 0,38,39
 157 298 157 298 167 344 c 0,40,41
 201 504 201 504 332.5 610.5 c 128,-1,42
 464 717 464 717 619 717 c 0,12,13
915 1485.5 m 128,-1,44
 883 1518 883 1518 827 1518 c 128,-1,45
 771 1518 771 1518 711 1466.82352941 c 128,-1,46
 651 1415.64705882 651 1415.64705882 651 1333 c 0,47,48
 651 1282 651 1282 683 1250 c 128,-1,49
 715 1218 715 1218 771.5 1218 c 128,-1,50
 828 1218 828 1218 878.5 1261.5 c 0,51,52
 947 1320.5049505 947 1320.5049505 947 1402 c 0,53,43
 947 1453 947 1453 915 1485.5 c 128,-1,44
536 1364 m 0,54,55
 558 1471 558 1471 651 1546.5 c 128,-1,56
 744 1622 744 1622 846 1622 c 128,-1,57
 948 1622 948 1622 1007 1563 c 128,-1,58
 1066 1504 1066 1504 1066 1414 c 0,59,60
 1066 1390 1066 1390 1060 1364 c 0,61,62
 1037 1256 1037 1256 944.5 1180.5 c 128,-1,63
 852 1105 852 1105 749.5 1105 c 128,-1,64
 647 1105 647 1105 588.5 1164 c 128,-1,65
 530 1223 530 1223 530 1314 c 0,66,67
 530 1338 530 1338 536 1364 c 0,54,55
EndSplineSet
EndChar

StartChar: ae
Encoding: 230 230 63
Width: 1486
Flags: HMW
LayerCount: 2
Back
SplineSet
849.216 604.16 m 5,0,-1
 1379.01 604.16 l 1,1,2
 1373.56185957 658.514097003 1373.56185957 658.514097003 1360.14908049 709.107954125 c 0
 1346.73630141 759.701811248 1346.73630141 759.701811248 1323.95139951 805.357629875 c 0
 1301.16649761 851.013448501 1301.16649761 851.013448501 1271.44460049 884.839570125 c 0
 1241.72270337 918.665691749 1241.72270337 918.665691749 1201.15491951 938.564845875 c 0
 1160.58713566 958.464 1160.58713566 958.464 1114.11 958.464 c 0,3,4
 1080.63460056 958.464 1080.63460056 958.464 1050.11035889 948.11471925 c 0
 1019.58611721 937.765438501 1019.58611721 937.765438501 994.75632333 919.238884248 c 0
 969.926529448 900.712329996 969.926529448 900.712329996 948.412737894 874.783483099 c 0
 926.89894634 848.854636202 926.89894634 848.854636202 910.553670269 818.017251595 c 0
 894.208394199 787.179866988 894.208394199 787.179866988 881.603350139 751.865727997 c 0
 868.998306079 716.551589005 868.998306079 716.551589005 861.035845196 679.597648097 c 0
 853.073384314 642.643707188 853.073384314 642.643707188 849.216 604.16 c 5,0,-1
849.185 468.992 m 5,5,6
 853.688524883 423.498127156 853.688524883 423.498127156 863.965711547 379.993190493 c 0
 874.242898211 336.48825383 874.242898211 336.48825383 890.092705119 295.646809507 c 0
 905.942512027 254.805365183 905.942512027 254.805365183 928.44680414 220.631412716 c 0
 950.951096253 186.457460249 950.951096253 186.457460249 978.190519934 160.834365062 c 0
 1005.42994361 135.211269876 1005.42994361 135.211269876 1040.31923007 120.853634938 c 0
 1075.20851652 106.496 1075.20851652 106.496 1114.11 106.496 c 0,7,8
 1181.70226737 106.496 1181.70226737 106.496 1232.59276752 142.723496841 c 0
 1283.48326767 178.950993682 1283.48326767 178.950993682 1317.73 242.655 c 1,9,-1
 1450.69 187.616 l 1,10,11
 1415.92295749 120.345334947 1415.92295749 120.345334947 1367.64493954 72.66229207 c 0
 1319.36692159 24.9792491933 1319.36692159 24.9792491933 1254.58839379 -1.84632540335 c 0
 1189.80986599 -28.6719 1189.80986599 -28.6719 1114.11 -28.6719 c 0,12,13
 1016.67266847 -28.6719 1016.67266847 -28.6719 937.871475995 15.1779940334 c 0
 859.070283519 59.0278880669 859.070283519 59.0278880669 808.047430255 135.798140342 c 0
 757.024576991 212.568392616 757.024576991 212.568392616 729.744288495 315.081925283 c 0
 702.464 417.595457951 702.464 417.595457951 702.464 536.576 c 0,14,15
 702.464 631.385317976 702.464 631.385317976 719.513838515 715.560142747 c 0
 736.563677031 799.734967518 736.563677031 799.734967518 770.889345485 868.968353253 c 0
 805.215013938 938.201738988 805.215013938 938.201738988 853.993294515 988.319886747 c 0
 902.771575093 1038.43803451 902.771575093 1038.43803451 969.265921485 1066.03401725 c 0
 1035.76026788 1093.63 1035.76026788 1093.63 1114.11 1093.63 c 0,16,17
 1211.71288503 1093.63 1211.71288503 1093.63 1290.37746 1051.04043796 c 0
 1369.04203498 1008.45087593 1369.04203498 1008.45087593 1420.1478525 933.276874535 c 0
 1471.25367001 858.102873141 1471.25367001 858.102873141 1498.506835 756.769812965 c 0
 1525.76 655.436752788 1525.76 655.436752788 1525.76 536.576 c 0,18,19
 1525.76 520.268448824 1525.76 520.268448824 1524.96227329 503.32229349 c 0
 1524.16454659 486.376138157 1524.16454659 486.376138157 1522.62 468.992 c 1,20,-1
 849.185 468.992 l 5,5,6
466.944 602.112 m 4,21,22
 411.767591241 602.112 411.767591241 602.112 364.883931873 581.551847619 c 0
 318.000272506 560.991695238 318.000272506 560.991695238 286.956068127 526.576152381 c 0
 255.911863747 492.160609524 255.911863747 492.160609524 238.547931873 447.471847619 c 0
 221.184 402.783085714 221.184 402.783085714 221.184 354.304 c 0,23,24
 221.184 332.880377991 221.184 332.880377991 224.596925116 311.833830209 c 0
 228.009850232 290.787282426 228.009850232 290.787282426 234.761889699 270.98651547 c 0
 241.513929165 251.185748514 241.513929165 251.185748514 251.195641166 232.723158055 c 0
 260.877353166 214.260567596 260.877353166 214.260567596 273.800309452 197.859711629 c 0
 286.723265737 181.458855662 286.723265737 181.458855662 302.066949808 167.366955037 c 0
 317.410633878 153.275054412 317.410633878 153.275054412 335.897692168 142.060841945 c 0
 354.384750458 130.846629477 354.384750458 130.846629477 374.783591783 122.912151196 c 0
 395.182433108 114.977672916 395.182433108 114.977672916 418.626778588 110.736836458 c 0
 442.071124067 106.496 442.071124067 106.496 466.944 106.496 c 0,25,26
 563.038011299 106.496 563.038011299 106.496 637.87100565 180.90858427 c 0
 712.704 255.321168539 712.704 255.321168539 712.704 354.304 c 0,27,28
 712.704 378.867551487 712.704 378.867551487 707.3292667 403.143682249 c 0
 701.954533401 427.419813011 701.954533401 427.419813011 692.1827333 449.212317751 c 0
 682.410933199 471.004822491 682.410933199 471.004822491 668.4012667 491.183682249 c 0
 654.391600202 511.362542007 654.391600202 511.362542007 637.4627333 528.156317751 c 0
 620.533866397 544.950093495 620.533866397 544.950093495 600.4812667 558.775682249 c 0
 580.428667003 572.601271004 580.428667003 572.601271004 558.9347333 582.140317751 c 0
 537.440799596 591.679364498 537.440799596 591.679364498 513.9372667 596.895682249 c 0
 490.433733804 602.112 490.433733804 602.112 466.944 602.112 c 4,21,22
466.944 737.28 m 4,29,30
 516.826666667 737.28 516.826666667 737.28 560.205214815 727.738107937 c 0
 603.583762963 718.196215873 603.583762963 718.196215873 633.842785185 702.277892063 c 0
 664.101807407 686.359568254 664.101807407 686.359568254 684.749214815 668.346107937 c 0
 705.396622222 650.332647619 705.396622222 650.332647619 716.8 630.784 c 1,31,-1
 715.651 675.84 l 2,32,33
 715.651 701.33506745 715.651 701.33506745 712.273233705 725.835351181 c 0
 708.895467409 750.335634912 708.895467409 750.335634912 702.222358888 772.946673511 c 0
 695.549250367 795.55771211 695.549250367 795.55771211 685.933003252 816.306945145 c 0
 676.316756137 837.05617818 676.316756137 837.05617818 663.518079053 855.209411508 c 0
 650.719401969 873.362644836 650.719401969 873.362644836 635.433661688 888.77636627 c 0
 620.147921407 904.190087704 620.147921407 904.190087704 601.792663415 916.301054855 c 0
 583.437405422 928.412022006 583.437405422 928.412022006 563.05115963 936.905770934 c 0
 542.664913839 945.399519861 542.664913839 945.399519861 519.322062592 949.88375993 c 0
 495.979211345 954.368 495.979211345 954.368 471.04 954.368 c 0,34,35
 436.388881356 954.368 436.388881356 954.368 402.548193097 948.547379538 c 0
 368.707504839 942.726759076 368.707504839 942.726759076 339.851806903 932.348620462 c 0
 310.996108967 921.970481848 310.996108967 921.970481848 286.836193097 907.715379538 c 0
 262.676277228 893.460277228 262.676277228 893.460277228 245.76 876.544 c 1,36,37
 167.936 978.944 l 1,38,39
 180.214628755 989.056164588 180.214628755 989.056164588 191.967453366 997.872752056 c 0
 203.720277977 1006.68933952 203.720277977 1006.68933952 217.733682437 1015.99588992 c 0
 231.747086897 1025.30244031 231.747086897 1025.30244031 245.625615231 1033.13669719 c 0
 259.504143566 1040.97095406 259.504143566 1040.97095406 275.774395743 1048.63022188 c 0
 292.044647919 1056.2894897 292.044647919 1056.2894897 308.588270924 1062.33229664 c 0
 325.131893929 1068.37510357 325.131893929 1068.37510357 344.198384769 1073.57796948 c 0
 363.264875609 1078.78083539 363.264875609 1078.78083539 383.01298423 1082.22307304 c 0
 402.761092851 1085.6653107 402.761092851 1085.6653107 425.163213301 1087.60265535 c 0
 447.565333751 1089.54 447.565333751 1089.54 471.04 1089.54 c 0,40,41
 572.541437289 1089.54 572.541437289 1089.54 657.692609322 1043.27744188 c 0
 742.843781356 997.014883757 742.843781356 997.014883757 797.270390678 900.961224788 c 0
 851.697 804.907565819 851.697 804.907565819 851.697 675.84 c 1,42,-1
 849.92 552.96 l 1,43,-1
 851.968 270.336 l 2,44,45
 851.968 251.221333333 851.968 251.221333333 854.553643493 233.138251852 c 0
 857.139286986 215.05517037 857.139286986 215.05517037 862.52368984 197.283081481 c 0
 867.908092695 179.510992593 867.908092695 179.510992593 877.119569419 164.795733333 c 0
 886.331046143 150.080474074 886.331046143 150.080474074 898.629171322 138.725451852 c 0
 910.9272965 127.37042963 910.9272965 127.37042963 928.357495345 121.029214815 c 0
 945.78769419 114.688 945.78769419 114.688 966.656 114.688 c 1,46,-1
 966.656 -20.4805 l 1,47,48
 868.962501557 -20.4805 868.962501557 -20.4805 813.824151552 6.90138234078 c 0
 758.685801548 34.2832646816 758.685801548 34.2832646816 745.472 100.352 c 1,49,50
 733.118267831 80.0565828649 733.118267831 80.0565828649 712.0325228 59.8814461025 c 0
 690.946777769 39.70630934 690.946777769 39.70630934 657.7594772 18.6146195225 c 0
 624.572176631 -2.47707029502 624.572176631 -2.47707029502 574.6885228 -15.5744851475 c 0
 524.804868969 -28.6719 524.804868969 -28.6719 466.944 -28.6719 c 0,51,52
 356.335183621 -28.6719 356.335183621 -28.6719 266.918512572 22.0068157797 c 0
 177.501841523 72.6855315594 177.501841523 72.6855315594 127.663020761 160.26528422 c 0
 77.8242 247.845036881 77.8242 247.845036881 77.8242 354.304 c 0,53,54
 77.8242 394.001648122 77.8242 394.001648122 86.1741994058 432.455546294 c 0
 94.5241988116 470.909444467 94.5241988116 470.909444467 109.79416075 504.908453706 c 0
 125.064122689 538.907462944 125.064122689 538.907462944 146.974144718 569.935546294 c 0
 168.884166747 600.963629645 168.884166747 600.963629645 195.554092 626.476453706 c 0
 222.224017254 651.989277767 222.224017254 651.989277767 253.854071281 672.759546294 c 0
 285.484125308 693.529814822 285.484125308 693.529814822 319.71402325 707.724453706 c 0
 353.943921193 721.919092589 353.943921193 721.919092589 391.454016593 729.599546294 c 0
 428.964111994 737.28 428.964111994 737.28 466.944 737.28 c 4,29,30
EndSplineSet
Fore
SplineSet
300.974358974 265.22452334 m 0,0,1
 300.974358974 106 300.974358974 106 459 106 c 0,2,3
 551 106 551 106 620.5 178 c 0,4,5
 712.410849772 273.216995448 712.410849772 273.216995448 720 425 c 1,6,7
 719 504 719 504 679 553 c 128,-1,8
 639 602 639 602 549 602 c 128,-1,9
 459 602 459 602 396.5 532 c 128,-1,10
 334 462 334 462 311 354 c 0,11,12
 300.974358974 305.876923077 300.974358974 305.876923077 300.974358974 265.22452334 c 0,0,1
798 789 m 1,13,14
 800.142857143 954 800.142857143 954 643 954 c 0,15,16
 578 954 578 954 533.5 935 c 128,-1,17
 489 916 489 916 442 877 c 1,18,-1
 386 979 l 1,19,20
 392 983 392 983 415.5 999.5 c 128,-1,21
 439 1016 439 1016 446 1020.5 c 128,-1,22
 453 1025 453 1025 474.5 1038.5 c 128,-1,23
 496 1052 496 1052 507 1056.5 c 128,-1,24
 518 1061 518 1061 539.5 1069.5 c 128,-1,25
 561 1078 561 1078 579 1081 c 0,26,27
 633 1090 633 1090 672 1090 c 0,28,29
 766 1090 766 1090 823 1045.5 c 128,-1,30
 880 1001 880 1001 914 910 c 1,31,32
 992 1005 992 1005 1063 1049.5 c 128,-1,33
 1134 1094 1134 1094 1234 1094 c 0,34,35
 1378 1094 1378 1094 1447.5 1004 c 128,-1,36
 1517 914 1517 914 1516 756 c 1,37,-1
 1516 749 l 2,38,39
 1516 641 1516 641 1473 469 c 1,40,-1
 883 469 l 1,41,42
 867 394 867 394 867 337 c 128,-1,43
 867 280 867 280 874.5 244 c 128,-1,44
 882 208 882 208 898.5 175.5 c 0,45,46
 933.784615385 106 933.784615385 106 1024 106 c 0,47,48
 1092.02040816 106 1092.02040816 106 1126.51020408 138.5 c 128,-1,49
 1161 171 1161 171 1172.5 185.5 c 128,-1,50
 1184 200 1184 200 1216 243 c 1,51,-1
 1337 188 l 1,52,53
 1285 115 1285 115 1239.5 71 c 0,54,55
 1136.09090909 -29 1136.09090909 -29 995 -29 c 0,56,57
 899.909090909 -29 899.909090909 -29 854.5 8 c 0,58,59
 841 19 841 19 832 26 c 128,-1,60
 823 33 823 33 812.5 49.5 c 128,-1,61
 802 66 802 66 796.5 74 c 128,-1,62
 791 82 791 82 781.5 102.5 c 0,63,64
 769.185185185 129.074074074 769.185185185 129.074074074 754 164 c 1,65,66
 728.375 128.125 728.375 128.125 716.1875 114.0625 c 128,-1,67
 704 100 704 100 688.5 81.5 c 128,-1,68
 673 63 673 63 664 55 c 128,-1,69
 655 47 655 47 637.5 32.5 c 128,-1,70
 620 18 620 18 606 11.5 c 128,-1,71
 592 5 592 5 571.5 -4.5 c 128,-1,72
 551 -14 551 -14 530.5 -18 c 0,73,74
 474.125 -29 474.125 -29 430 -29 c 0,75,76
 294 -29 294 -29 220.5 48 c 128,-1,77
 147 125 147 125 147 251 c 1,78,79
 155.118190483 482.36842877 155.118190483 482.36842877 317.5 627 c 0,80,81
 441 737 441 737 593 737 c 0,82,83
 684.818181818 737 684.818181818 737 713.909090909 713 c 128,-1,84
 743 689 743 689 753.5 674 c 128,-1,85
 764 659 764 659 776 633 c 1,86,87
 778 640 778 640 781 661.5 c 128,-1,88
 784 683 784 683 791 712.5 c 128,-1,89
 798 742 798 742 798 783 c 2,90,-1
 798 789 l 1,13,14
911 604 m 1,91,-1
 1349 604 l 1,92,93
 1358 680 1358 680 1358 727 c 2,94,-1
 1358 732 l 2,95,96
 1358.02547771 734.878980892 1358.02547771 734.878980892 1358.02547771 737.721286868 c 0,97,98
 1358.02547771 958 1358.02547771 958 1205 958 c 0,99,100
 1047.29059829 958 1047.29059829 958 949.5 724.5 c 0,101,102
 925 666 925 666 911 604 c 1,91,-1
EndSplineSet
EndChar

StartChar: egrave
Encoding: 232 232 64
Width: 996
Flags: HMW
LayerCount: 2
Fore
SplineSet
868 1329 m 2,0,1
 878 1317 878 1317 878 1307 c 0,2,3
 878 1281.58823529 878 1281.58823529 859 1261.29411765 c 0,4,5
 834.382608696 1235 834.382608696 1235 813.191304348 1235 c 128,-1,6
 792 1235 792 1235 781 1244 c 2,7,-1
 523 1463 l 1,8,9
 507 1481 507 1481 505 1504 c 1,10,-1
 505 1521 l 1,11,12
 511 1548 511 1548 532 1568.5 c 0,13,14
 561.195121951 1597 561.195121951 1597 592.097560976 1597 c 128,-1,15
 623 1597 623 1597 641 1579 c 1,16,-1
 868 1329 l 2,0,1
385 604 m 1,17,-1
 907 604 l 1,18,19
 914 655 914 655 914 690 c 0,20,21
 914 806 914 806 865 882 c 128,-1,22
 816 958 816 958 731 958 c 128,-1,23
 646 958 646 958 575 904 c 0,24,25
 440.544375126 801.737975448 440.544375126 801.737975448 385 604 c 1,17,-1
357 469 m 1,26,27
 351 425 351 425 351 382 c 0,28,29
 351 261 351 261 398.5 183.5 c 128,-1,30
 446 106 446 106 529.5 106 c 128,-1,31
 613 106 613 106 692 144.5 c 128,-1,32
 771 183 771 183 815 243 c 1,33,-1
 936 188 l 1,34,35
 864 89 864 89 747 30 c 128,-1,36
 630 -29 630 -29 512 -29 c 0,37,38
 357 -29 357 -29 274.5 76.5 c 128,-1,39
 192 182 192 182 192 357 c 0,40,41
 192 440 192 440 219 568 c 128,-1,42
 246 696 246 696 321.5 821 c 128,-1,43
 397 946 397 946 509 1020 c 128,-1,44
 621 1094 621 1094 738 1094 c 128,-1,45
 855 1094 855 1094 926.5 1042 c 0,46,47
 1061 944.181818182 1061 944.181818182 1061 719 c 0,48,49
 1061 645 1061 645 1051 599 c 0,50,51
 1036.55555556 532.555555556 1036.55555556 532.555555556 1025 469 c 1,52,-1
 357 469 l 1,26,27
EndSplineSet
EndChar

StartChar: eacute
Encoding: 233 233 65
Width: 1046
Flags: HMW
LayerCount: 2
Fore
SplineSet
713 1329 m 2,0,-1
 1048 1579 l 1,1,2
 1074 1597 1074 1597 1092.5 1597 c 0,3,4
 1136 1597 1136 1597 1151 1567 c 1,5,6
 1160 1553 1160 1553 1160 1542 c 0,7,8
 1160 1494.68 1160 1494.68 1116 1463 c 1,9,-1
 764 1244 l 2,10,11
 750.5 1235 750.5 1235 741.75 1235 c 0,12,13
 708.2 1235 708.2 1235 697.1 1254.5 c 0,14,15
 681.366088632 1282.14065511 681.366088632 1282.14065511 691.183044316 1300.57032755 c 128,-1,16
 701 1319 701 1319 713 1329 c 2,0,-1
395 604 m 1,17,-1
 917 604 l 1,18,19
 924 655 924 655 924 690 c 0,20,21
 924 806 924 806 875 882 c 128,-1,22
 826 958 826 958 741 958 c 128,-1,23
 656 958 656 958 585 904 c 0,24,25
 450.544375126 801.737975448 450.544375126 801.737975448 395 604 c 1,17,-1
367 469 m 1,26,27
 361 425 361 425 361 382 c 0,28,29
 361 261 361 261 408.5 183.5 c 128,-1,30
 456 106 456 106 539.5 106 c 128,-1,31
 623 106 623 106 702 144.5 c 128,-1,32
 781 183 781 183 825 243 c 1,33,-1
 946 188 l 1,34,35
 874 89 874 89 757 30 c 128,-1,36
 640 -29 640 -29 522 -29 c 0,37,38
 367 -29 367 -29 284.5 76.5 c 128,-1,39
 202 182 202 182 202 357 c 0,40,41
 202 440 202 440 229 568 c 128,-1,42
 256 696 256 696 331.5 821 c 128,-1,43
 407 946 407 946 519 1020 c 128,-1,44
 631 1094 631 1094 748 1094 c 128,-1,45
 865 1094 865 1094 936.5 1042 c 0,46,47
 1071 944.181818182 1071 944.181818182 1071 719 c 0,48,49
 1071 645 1071 645 1061 599 c 0,50,51
 1046.55555556 532.555555556 1046.55555556 532.555555556 1035 469 c 1,52,-1
 367 469 l 1,26,27
EndSplineSet
EndChar

StartChar: ecircumflex
Encoding: 234 234 66
Width: 1046
Flags: HMW
LayerCount: 2
Fore
SplineSet
395 604 m 1,0,-1
 917 604 l 1,1,2
 924 655 924 655 924 690 c 0,3,4
 924 806 924 806 875 882 c 128,-1,5
 826 958 826 958 741 958 c 128,-1,6
 656 958 656 958 585 904 c 0,7,8
 450.544375126 801.737975448 450.544375126 801.737975448 395 604 c 1,0,-1
367 469 m 1,9,10
 361 425 361 425 361 382 c 0,11,12
 361 261 361 261 408.5 183.5 c 128,-1,13
 456 106 456 106 539.5 106 c 128,-1,14
 623 106 623 106 702 144.5 c 128,-1,15
 781 183 781 183 825 243 c 1,16,-1
 946 188 l 1,17,18
 874 89 874 89 757 30 c 128,-1,19
 640 -29 640 -29 522 -29 c 0,20,21
 367 -29 367 -29 284.5 76.5 c 128,-1,22
 202 182 202 182 202 357 c 0,23,24
 202 440 202 440 229 568 c 128,-1,25
 256 696 256 696 331.5 821 c 128,-1,26
 407 946 407 946 519 1020 c 128,-1,27
 631 1094 631 1094 748 1094 c 128,-1,28
 865 1094 865 1094 936.5 1042 c 0,29,30
 1071 944.181818182 1071 944.181818182 1071 719 c 0,31,32
 1071 645 1071 645 1061 599 c 0,33,34
 1046.55555556 532.555555556 1046.55555556 532.555555556 1035 469 c 1,35,-1
 367 469 l 1,9,10
1119 1153 m 1,36,-1
 931 1153 l 1,37,-1
 820 1366 l 1,38,-1
 618 1155 l 1,39,-1
 432 1155 l 1,40,-1
 781 1497 l 1,41,-1
 912 1497 l 1,42,-1
 1119 1153 l 1,36,-1
EndSplineSet
EndChar

StartChar: edieresis
Encoding: 235 235 67
Width: 1046
Flags: HMW
LayerCount: 2
Fore
SplineSet
395 604 m 1,0,-1
 917 604 l 1,1,2
 924 655 924 655 924 690 c 0,3,4
 924 806 924 806 875 882 c 128,-1,5
 826 958 826 958 741 958 c 128,-1,6
 656 958 656 958 585 904 c 0,7,8
 450.544375126 801.737975448 450.544375126 801.737975448 395 604 c 1,0,-1
367 469 m 1,9,10
 361 425 361 425 361 382 c 0,11,12
 361 261 361 261 408.5 183.5 c 128,-1,13
 456 106 456 106 539.5 106 c 128,-1,14
 623 106 623 106 702 144.5 c 128,-1,15
 781 183 781 183 825 243 c 1,16,-1
 946 188 l 1,17,18
 874 89 874 89 757 30 c 128,-1,19
 640 -29 640 -29 522 -29 c 0,20,21
 367 -29 367 -29 284.5 76.5 c 128,-1,22
 202 182 202 182 202 357 c 0,23,24
 202 440 202 440 229 568 c 128,-1,25
 256 696 256 696 331.5 821 c 128,-1,26
 407 946 407 946 519 1020 c 128,-1,27
 631 1094 631 1094 748 1094 c 128,-1,28
 865 1094 865 1094 936.5 1042 c 0,29,30
 1071 944.181818182 1071 944.181818182 1071 719 c 0,31,32
 1071 645 1071 645 1061 599 c 0,33,34
 1046.55555556 532.555555556 1046.55555556 532.555555556 1035 469 c 1,35,-1
 367 469 l 1,9,10
481 1305.82608696 m 128,-1,37
 481 1346.65217391 481 1346.65217391 520 1378.82608696 c 128,-1,38
 559 1411 559 1411 594.5 1411 c 128,-1,39
 630 1411 630 1411 650.5 1390.5 c 128,-1,40
 671 1370 671 1370 672 1328.01492537 c 128,-1,41
 673 1286.02985075 673 1286.02985075 634 1254.01492537 c 128,-1,42
 595 1222 595 1222 559.5 1222 c 128,-1,43
 524 1222 524 1222 502.5 1243.5 c 128,-1,36
 481 1265 481 1265 481 1305.82608696 c 128,-1,37
974 1246 m 128,-1,45
 952 1268 952 1268 952 1290.5 c 0,46,47
 952 1348.65217391 952 1348.65217391 991 1380.82608696 c 128,-1,48
 1030 1413 1030 1413 1066 1413 c 0,49,50
 1139.71428571 1413 1139.71428571 1413 1144 1338 c 1,51,52
 1144 1288 1144 1288 1105 1256 c 128,-1,53
 1066 1224 1066 1224 1031 1224 c 128,-1,44
 996 1224 996 1224 974 1246 c 128,-1,45
EndSplineSet
EndChar

StartChar: igrave
Encoding: 236 236 68
Width: 430
Flags: HMW
LayerCount: 2
Fore
SplineSet
569 1329 m 1,0,1
 579 1316 579 1316 579 1306 c 0,2,3
 579 1281.58823529 579 1281.58823529 560 1261.29411765 c 0,4,5
 535.382608696 1235 535.382608696 1235 513.691304348 1235 c 128,-1,6
 492 1235 492 1235 482 1244 c 2,7,-1
 224 1463 l 1,8,9
 208 1481 208 1481 206 1504 c 1,10,-1
 206 1521 l 1,11,12
 212 1548 212 1548 233 1568.5 c 0,13,14
 262.195121951 1597 262.195121951 1597 293.097560976 1597 c 128,-1,15
 324 1597 324 1597 342 1579 c 1,16,-1
 569 1329 l 1,0,1
378 1073 m 1,17,-1
 529 1073 l 1,18,-1
 301 0 l 1,19,-1
 150 0 l 1,20,-1
 378 1073 l 1,17,-1
EndSplineSet
EndChar

StartChar: iacute
Encoding: 237 237 69
Width: 421
Flags: HMW
LayerCount: 2
Fore
SplineSet
449 1329 m 2,0,-1
 784 1579 l 1,1,2
 810 1597 810 1597 828.5 1597 c 0,3,4
 872 1597 872 1597 887 1567 c 1,5,6
 896 1553 896 1553 896 1542 c 0,7,8
 896 1494.68 896 1494.68 852 1463 c 1,9,-1
 500 1244 l 2,10,11
 486.5 1235 486.5 1235 477.75 1235 c 0,12,13
 444.2 1235 444.2 1235 433.1 1254.5 c 0,14,15
 417.366088632 1282.14065511 417.366088632 1282.14065511 427.183044316 1300.57032755 c 128,-1,16
 437 1319 437 1319 449 1329 c 2,0,-1
378 1073 m 1,17,-1
 529 1073 l 1,18,-1
 301 0 l 1,19,-1
 150 0 l 1,20,-1
 378 1073 l 1,17,-1
EndSplineSet
EndChar

StartChar: icircumflex
Encoding: 238 238 70
Width: 888
Flags: HMW
LayerCount: 2
Fore
SplineSet
1041 1118 m 1,0,-1
 853 1118 l 1,1,-1
 742 1331 l 1,2,-1
 539 1120 l 1,3,-1
 353 1120 l 1,4,-1
 703 1462 l 1,5,-1
 834 1462 l 1,6,-1
 1041 1118 l 1,0,-1
619 1073 m 1,7,-1
 771 1073 l 1,8,-1
 543 0 l 1,9,-1
 391 0 l 1,10,-1
 619 1073 l 1,7,-1
EndSplineSet
EndChar

StartChar: idieresis
Encoding: 239 239 71
Width: 667
Flags: HMW
LayerCount: 2
Fore
SplineSet
300 1209 m 128,-1,1
 278 1231 278 1231 278 1271.375 c 128,-1,2
 278 1311.75 278 1311.75 317.5 1343.875 c 128,-1,3
 357 1376 357 1376 392.5 1376 c 128,-1,4
 428 1376 428 1376 448.5 1355.5 c 0,5,6
 478.8 1325.2 478.8 1325.2 468.9 1283.6 c 128,-1,7
 459 1242 459 1242 425.5 1214.5 c 128,-1,8
 392 1187 392 1187 357 1187 c 128,-1,0
 322 1187 322 1187 300 1209 c 128,-1,1
750 1255 m 0,9,10
 750 1313.66423358 750 1313.66423358 789 1345.83211679 c 128,-1,11
 828 1378 828 1378 863.5 1378 c 128,-1,12
 899 1378 899 1378 919.5 1357.5 c 128,-1,13
 940 1337 940 1337 941 1295.01492537 c 128,-1,14
 942 1253.02985075 942 1253.02985075 903 1221.01492537 c 128,-1,15
 864 1189 864 1189 828.5 1189 c 128,-1,16
 793 1189 793 1189 771.5 1210.5 c 128,-1,17
 750 1232 750 1232 750 1255 c 0,9,10
500 1073 m 1,18,-1
 652 1073 l 1,19,-1
 424 0 l 1,20,-1
 272 0 l 1,21,-1
 500 1073 l 1,18,-1
EndSplineSet
EndChar

StartChar: eth
Encoding: 240 240 72
Width: 1030
Flags: HMW
LayerCount: 2
Fore
SplineSet
391 607.5 m 0,0,1
 319 483.5 319 483.5 319 362.75 c 128,-1,2
 319 242 319 242 380.5 174 c 128,-1,3
 442 106 442 106 515 106 c 0,4,5
 628 106 628 106 736.5 213.5 c 128,-1,6
 845 321 845 321 873 455 c 0,7,8
 880 492 880 492 880 516 c 2,9,-1
 880 521 l 1,10,11
 881 636 881 636 802.5 713.5 c 128,-1,12
 724 791 724 791 621 791 c 0,13,14
 562 791 562 791 499 738 c 128,-1,15
 436 685 436 685 391 607.5 c 0,0,1
958 1290 m 1,16,17
 1009 1213 1009 1213 1050 1097 c 128,-1,18
 1091 981 1091 981 1091 870 c 0,19,20
 1091 834 1091 834 1073.5 718 c 128,-1,21
 1056 602 1056 602 1048.5 568 c 0,22,23
 1038.27272727 521.636363636 1038.27272727 521.636363636 1035 502 c 0,24,25
 986 273 986 273 830 122 c 128,-1,26
 674 -29 674 -29 499 -29 c 128,-1,27
 324 -29 324 -29 243 62.5 c 128,-1,28
 162 154 162 154 162 306 c 0,29,30
 162 374 162 374 180 459 c 0,31,32
 221 654 221 654 360.5 790 c 128,-1,33
 500 926 500 926 660 926 c 0,34,35
 759.5 926 759.5 926 799.25 899.5 c 128,-1,36
 839 873 839 873 852.5 861 c 128,-1,37
 866 849 866 849 891.5 818 c 128,-1,38
 917 787 917 787 925 778 c 1,39,40
 932 813 932 813 932 878 c 128,-1,41
 932 943 932 943 902.5 1048.5 c 128,-1,42
 873 1154 873 1154 827 1204 c 1,43,-1
 644 1061 l 1,44,-1
 566 1161 l 1,45,-1
 729 1290 l 1,46,47
 663 1315 663 1315 598.5 1315 c 128,-1,48
 534 1315 534 1315 458 1307 c 1,49,-1
 475 1454 l 1,50,51
 502 1456 502 1456 557 1456 c 0,52,53
 749 1456 749 1456 870 1386 c 1,54,-1
 1055 1526 l 1,55,-1
 1128 1417 l 1,56,-1
 958 1290 l 1,16,17
EndSplineSet
EndChar

StartChar: ograve
Encoding: 242 242 73
Width: 996
Flags: HMW
LayerCount: 2
Fore
SplineSet
828 1328 m 2,0,1
 837 1318 837 1318 837 1307 c 0,2,3
 837 1279.625 837 1279.625 818.5 1259.8125 c 0,4,5
 794.397476341 1234 794.397476341 1234 772.94873817 1234 c 128,-1,6
 751.5 1234 751.5 1234 741 1243 c 2,7,-1
 483 1462 l 1,8,9
 460.15862069 1486.11034483 460.15862069 1486.11034483 465.579310345 1516.55517241 c 128,-1,10
 471 1547 471 1547 492 1567.5 c 0,11,12
 521.195121951 1596 521.195121951 1596 551.597560976 1596 c 128,-1,13
 582 1596 582 1596 600 1578 c 1,14,-1
 828 1328 l 2,0,1
216 537 m 0,15,16
 268 783 268 783 416 938.5 c 128,-1,17
 564 1094 564 1094 772 1094 c 0,18,19
 938 1094 938 1094 1023.5 990.5 c 128,-1,20
 1109 887 1109 887 1109 713 c 0,21,22
 1109 632 1109 632 1082 504 c 128,-1,23
 1055 376 1055 376 980.5 250 c 128,-1,24
 906 124 906 124 789.5 47.5 c 128,-1,25
 673 -29 673 -29 520 -29 c 128,-1,26
 367 -29 367 -29 281.5 76 c 128,-1,27
 196 181 196 181 196 357 c 0,28,29
 196 440 196 440 216 537 c 0,15,16
370 537 m 0,30,31
 351 451 351 451 351 349 c 128,-1,32
 351 247 351 247 402.5 176.5 c 128,-1,33
 454 106 454 106 562 106 c 0,34,35
 770.177631579 106 770.177631579 106 883.5 371 c 0,36,37
 954 535.861538462 954 535.861538462 954 677.930769231 c 128,-1,38
 954 820 954 820 902.5 889 c 128,-1,39
 851 958 851 958 743 958 c 0,40,41
 599 958 599 958 504.5 841 c 128,-1,42
 410 724 410 724 370 537 c 0,30,31
EndSplineSet
EndChar

StartChar: oacute
Encoding: 243 243 74
Width: 996
Flags: HMW
LayerCount: 2
Fore
SplineSet
776 1329 m 2,0,-1
 1111 1579 l 1,1,2
 1137 1597 1137 1597 1155.5 1597 c 0,3,4
 1199 1597 1199 1597 1214 1567 c 1,5,6
 1223 1553 1223 1553 1223 1542 c 0,7,8
 1223 1494.68 1223 1494.68 1179 1463 c 1,9,-1
 827 1244 l 2,10,11
 813.5 1235 813.5 1235 804.75 1235 c 0,12,13
 771.2 1235 771.2 1235 760.1 1254.5 c 0,14,15
 744.366088632 1282.14065511 744.366088632 1282.14065511 754.183044316 1300.57032755 c 128,-1,16
 764 1319 764 1319 776 1329 c 2,0,-1
216 537 m 0,17,18
 268 783 268 783 416 938.5 c 128,-1,19
 564 1094 564 1094 772 1094 c 0,20,21
 938 1094 938 1094 1023.5 990.5 c 128,-1,22
 1109 887 1109 887 1109 713 c 0,23,24
 1109 632 1109 632 1082 504 c 128,-1,25
 1055 376 1055 376 980.5 250 c 128,-1,26
 906 124 906 124 789.5 47.5 c 128,-1,27
 673 -29 673 -29 520 -29 c 128,-1,28
 367 -29 367 -29 281.5 76 c 128,-1,29
 196 181 196 181 196 357 c 0,30,31
 196 440 196 440 216 537 c 0,17,18
370 537 m 0,32,33
 351 451 351 451 351 349 c 128,-1,34
 351 247 351 247 402.5 176.5 c 128,-1,35
 454 106 454 106 562 106 c 0,36,37
 770.177631579 106 770.177631579 106 883.5 371 c 0,38,39
 954 535.861538462 954 535.861538462 954 677.930769231 c 128,-1,40
 954 820 954 820 902.5 889 c 128,-1,41
 851 958 851 958 743 958 c 0,42,43
 599 958 599 958 504.5 841 c 128,-1,44
 410 724 410 724 370 537 c 0,32,33
EndSplineSet
EndChar

StartChar: ocircumflex
Encoding: 244 244 75
Width: 1062
Flags: HMW
LayerCount: 2
Fore
SplineSet
226 537 m 0,0,1
 278 783 278 783 426 938.5 c 128,-1,2
 574 1094 574 1094 782 1094 c 0,3,4
 948 1094 948 1094 1033.5 990.5 c 128,-1,5
 1119 887 1119 887 1119 713 c 0,6,7
 1119 632 1119 632 1092 504 c 128,-1,8
 1065 376 1065 376 990.5 250 c 128,-1,9
 916 124 916 124 799.5 47.5 c 128,-1,10
 683 -29 683 -29 530 -29 c 128,-1,11
 377 -29 377 -29 291.5 76 c 128,-1,12
 206 181 206 181 206 357 c 0,13,14
 206 440 206 440 226 537 c 0,0,1
380 537 m 0,15,16
 361 451 361 451 361 349 c 128,-1,17
 361 247 361 247 412.5 176.5 c 128,-1,18
 464 106 464 106 572 106 c 0,19,20
 780.177631579 106 780.177631579 106 893.5 371 c 0,21,22
 964 535.861538462 964 535.861538462 964 677.930769231 c 128,-1,23
 964 820 964 820 912.5 889 c 128,-1,24
 861 958 861 958 753 958 c 0,25,26
 609 958 609 958 514.5 841 c 128,-1,27
 420 724 420 724 380 537 c 0,15,16
1110 1122 m 1,28,-1
 922 1122 l 1,29,-1
 812 1335 l 1,30,-1
 609 1124 l 1,31,-1
 423 1124 l 1,32,-1
 773 1466 l 1,33,-1
 904 1466 l 1,34,-1
 1110 1122 l 1,28,-1
EndSplineSet
EndChar

StartChar: otilde
Encoding: 245 245 76
Width: 1062
Flags: HMW
LayerCount: 2
Fore
SplineSet
226 537 m 0,0,1
 278 783 278 783 426 938.5 c 128,-1,2
 574 1094 574 1094 782 1094 c 0,3,4
 948 1094 948 1094 1033.5 990.5 c 128,-1,5
 1119 887 1119 887 1119 713 c 0,6,7
 1119 632 1119 632 1092 504 c 128,-1,8
 1065 376 1065 376 990.5 250 c 128,-1,9
 916 124 916 124 799.5 47.5 c 128,-1,10
 683 -29 683 -29 530 -29 c 128,-1,11
 377 -29 377 -29 291.5 76 c 128,-1,12
 206 181 206 181 206 357 c 0,13,14
 206 440 206 440 226 537 c 0,0,1
380 537 m 0,15,16
 361 451 361 451 361 349 c 128,-1,17
 361 247 361 247 412.5 176.5 c 128,-1,18
 464 106 464 106 572 106 c 0,19,20
 780.177631579 106 780.177631579 106 893.5 371 c 0,21,22
 964 535.861538462 964 535.861538462 964 677.930769231 c 128,-1,23
 964 820 964 820 912.5 889 c 128,-1,24
 861 958 861 958 753 958 c 0,25,26
 609 958 609 958 514.5 841 c 128,-1,27
 420 724 420 724 380 537 c 0,15,16
508 1323 m 17,28,29
 513 1327 513 1327 535.5 1342.5 c 128,-1,30
 558 1358 558 1358 568 1365 c 128,-1,31
 578 1372 578 1372 600 1384.5 c 128,-1,32
 622 1397 622 1397 637 1403 c 0,33,34
 677 1419 677 1419 708 1419 c 128,-1,35
 739 1419 739 1419 763.5 1403.5 c 128,-1,36
 788 1388 788 1388 807.5 1366 c 128,-1,37
 827 1344 827 1344 846.5 1321.5 c 0,38,39
 892.866666667 1268 892.866666667 1268 946 1268 c 0,40,41
 1007.12195122 1268 1007.12195122 1268 1113.5 1339.5 c 0,42,43
 1144 1360 1144 1360 1154 1366 c 1,44,-1
 1124 1221 l 1,45,46
 1118 1217 1118 1217 1094.5 1201 c 128,-1,47
 1071 1185 1071 1185 1063.5 1180 c 128,-1,48
 1056 1175 1056 1175 1036 1162.5 c 128,-1,49
 1016 1150 1016 1150 1004.5 1145.5 c 128,-1,50
 993 1141 993 1141 976 1134 c 0,51,52
 946.857142857 1122 946.857142857 1122 914.428571429 1122 c 128,-1,53
 882 1122 882 1122 853.5 1137.5 c 128,-1,54
 825 1153 825 1153 804.5 1175.5 c 128,-1,55
 784 1198 784 1198 764.5 1220.5 c 0,56,57
 718.133333333 1274 718.133333333 1274 679 1274 c 0,58,59
 614.857142857 1274 614.857142857 1274 542 1223 c 0,60,61
 532 1216 532 1216 509 1199.5 c 128,-1,62
 486 1183 486 1183 477 1177 c 1,63,-1
 508 1323 l 17,28,29
EndSplineSet
EndChar

StartChar: odieresis
Encoding: 246 246 77
Width: 1060
Flags: HMW
LayerCount: 2
Fore
SplineSet
226 537 m 0,0,1
 278 783 278 783 426 938.5 c 128,-1,2
 574 1094 574 1094 782 1094 c 0,3,4
 948 1094 948 1094 1033.5 990.5 c 128,-1,5
 1119 887 1119 887 1119 713 c 0,6,7
 1119 632 1119 632 1092 504 c 128,-1,8
 1065 376 1065 376 990.5 250 c 128,-1,9
 916 124 916 124 799.5 47.5 c 128,-1,10
 683 -29 683 -29 530 -29 c 128,-1,11
 377 -29 377 -29 291.5 76 c 128,-1,12
 206 181 206 181 206 357 c 0,13,14
 206 440 206 440 226 537 c 0,0,1
380 537 m 0,15,16
 361 451 361 451 361 349 c 128,-1,17
 361 247 361 247 412.5 176.5 c 128,-1,18
 464 106 464 106 572 106 c 0,19,20
 780.177631579 106 780.177631579 106 893.5 371 c 0,21,22
 964 535.861538462 964 535.861538462 964 677.930769231 c 128,-1,23
 964 820 964 820 912.5 889 c 128,-1,24
 861 958 861 958 753 958 c 0,25,26
 609 958 609 958 514.5 841 c 128,-1,27
 420 724 420 724 380 537 c 0,15,16
641 1244 m 128,-1,29
 607 1216 607 1216 572 1216 c 128,-1,30
 537 1216 537 1216 515.5 1237.5 c 128,-1,31
 494 1259 494 1259 494 1299.82608696 c 128,-1,32
 494 1340.65217391 494 1340.65217391 533 1372.82608696 c 128,-1,33
 572 1405 572 1405 607.5 1405 c 128,-1,34
 643 1405 643 1405 663.5 1384.5 c 0,35,36
 694.6 1353.4 694.6 1353.4 684.8 1312.7 c 128,-1,28
 675 1272 675 1272 641 1244 c 128,-1,29
987 1240 m 128,-1,38
 965 1262 965 1262 965 1284.5 c 0,39,40
 965 1342.65217391 965 1342.65217391 1004 1374.82608696 c 128,-1,41
 1043 1407 1043 1407 1079 1407 c 0,42,43
 1152.71428571 1407 1152.71428571 1407 1157 1332 c 1,44,45
 1157 1282 1157 1282 1118 1250 c 128,-1,46
 1079 1218 1079 1218 1044 1218 c 128,-1,37
 1009 1218 1009 1218 987 1240 c 128,-1,38
EndSplineSet
EndChar

StartChar: divide
Encoding: 247 247 78
Width: 911
Flags: HMW
LayerCount: 2
Fore
SplineSet
401 256 m 1,0,1
 400 260 400 260 406.5 291.5 c 128,-1,2
 413 323 413 323 451.5 354.5 c 128,-1,3
 490 386 490 386 531 386 c 128,-1,4
 572 386 572 386 596.5 362 c 128,-1,5
 621 338 621 338 621 314 c 0,6,7
 621 244.776315789 621 244.776315789 576.5 207.888157895 c 128,-1,8
 532 171 532 171 490.5 171 c 128,-1,9
 449 171 449 171 425 195 c 128,-1,10
 401 219 401 219 401 256 c 1,0,1
556 985 m 1,11,12
 555 989 555 989 561.5 1020.5 c 128,-1,13
 568 1052 568 1052 606.5 1083.5 c 128,-1,14
 645 1115 645 1115 686.5 1115 c 128,-1,15
 728 1115 728 1115 752 1090.5 c 128,-1,16
 776 1066 776 1066 776 1042.5 c 0,17,18
 776 973.776315789 776 973.776315789 731.5 936.888157895 c 128,-1,19
 687 900 687 900 645.5 900 c 128,-1,20
 604 900 604 900 580 924 c 128,-1,21
 556 948 556 948 556 985 c 1,11,12
269 705 m 1,22,-1
 946 705 l 1,23,-1
 916 563 l 1,24,-1
 239 563 l 1,25,-1
 269 705 l 1,22,-1
EndSplineSet
EndChar

StartChar: oslash
Encoding: 248 248 79
Width: 1024
Flags: HMW
LayerCount: 2
Back
SplineSet
96.2559 536.576 m 4,0,1
 96.2559 631.38535407 96.2559 631.38535407 113.305763691 715.560147259 c 0
 130.355627381 799.734940447 130.355627381 799.734940447 164.681409909 868.968348741 c 0
 199.007192437 938.201757035 199.007192437 938.201757035 247.785690091 988.319891259 c 0
 296.564187744 1038.43802548 296.564187744 1038.43802548 363.058936309 1066.03401274 c 0
 429.553684874 1093.63 429.553684874 1093.63 507.904 1093.63 c 0,2,3
 605.506862693 1093.63 605.506862693 1093.63 684.171143782 1051.04045631 c 0
 762.835424871 1008.45091262 762.835424871 1008.45091262 813.940856218 933.27685619 c 0
 865.046287564 858.10279976 865.046287564 858.10279976 892.299143782 756.76983131 c 0
 919.552 655.43686286 919.552 655.43686286 919.552 536.576 c 0,4,5
 919.552 280.624072379 919.552 280.624072379 805.574599201 124.358364648 c 1
 693.078424556 -28.1095585375 693.078424556 -28.1095585375 507.904 -28.6719 c 0,6,7
 429.661408726 -28.6719 429.661408726 -28.6719 363.072401791 -0.224310622842 c 0
 296.483394855 28.2232787543 296.483394855 28.2232787543 247.772224609 79.5230250228 c 0
 199.061054363 130.822771291 199.061054363 130.822771291 164.694875391 201.298834977 c 0
 130.328696418 271.774898663 130.328696418 271.774898663 113.292298209 356.740250623 c 0
 96.2559 441.705602583 96.2559 441.705602583 96.2559 536.576 c 4,0,1
239.616 536.576 m 4,8,9
 239.616 369.85673406 239.616 369.85673406 307.449796993 245.454092626 c 1
 384.119600945 107.289250467 384.119600945 107.289250467 507.904 106.496 c 0,10,11
 563.562788571 106.496 563.562788571 106.496 609.489188571 132.478503385 c 0
 655.415588571 158.461006769 655.415588571 158.461006769 685.747931429 201.132504615 c 0
 716.080274286 243.804002462 716.080274286 243.804002462 736.956708571 300.381735385 c 0
 757.833142857 356.959468308 757.833142857 356.959468308 767.012571429 416.221656615 c 0
 776.192 475.483844923 776.192 475.483844923 776.192 536.576 c 0,12,13
 776.192 586.379915916 776.192 586.379915916 768.704153797 636.158821221 c 0
 761.216307593 685.937726527 761.216307593 685.937726527 746.815846203 733.270512112 c 0
 732.415384814 780.603297698 732.415384814 780.603297698 709.501783426 821.313191592 c 0
 686.588182039 862.023085485 686.588182039 862.023085485 657.689920277 892.711104705 c 0
 628.791658516 923.399123924 628.791658516 923.399123924 590.224746389 940.931561962 c 0
 551.657834262 958.464 551.657834262 958.464 507.904 958.464 c 0,14,15
 378.281706673 958.464 378.281706673 958.464 302.464155434 814.351684387 c 0
 239.863098015 694.33048644 239.863098015 694.33048644 239.616 536.576 c 4,8,9
EndSplineSet
Fore
SplineSet
907 771 m 1,0,-1
 406 174 l 1,1,2
 456 106 456 106 533 106 c 128,-1,3
 610 106 610 106 671 145 c 128,-1,4
 732 184 732 184 775.5 248.5 c 0,5,6
 860.634225996 374.733507511 860.634225996 374.733507511 896 537 c 0,7,8
 914 619 914 619 914 680 c 128,-1,9
 914 741 914 741 907 771 c 1,0,-1
856 895 m 1,10,11
 804 958 804 958 730.5 958 c 128,-1,12
 657 958 657 958 597 920 c 128,-1,13
 537 882 537 882 492.5 820.5 c 0,14,15
 401.087572977 694.165971643 401.087572977 694.165971643 368 537 c 0,16,17
 350 452 350 452 350 393 c 128,-1,18
 350 334 350 334 357 299 c 1,19,-1
 856 895 l 1,10,11
1067 717 m 2,20,-1
 1067 704 l 2,21,22
 1067 630 1067 630 1040.5 503.5 c 128,-1,23
 1014 377 1014 377 939.5 250 c 128,-1,24
 865 123 865 123 753 47 c 128,-1,25
 641 -29 641 -29 512.5 -29 c 128,-1,26
 384 -29 384 -29 301 49 c 1,27,-1
 237 -29 l 1,28,-1
 80 -29 l 1,29,-1
 234 153 l 1,30,31
 197 242 197 242 198 348 c 128,-1,32
 199 454 199 454 216 537 c 0,33,34
 268 781 268 781 412.5 937.5 c 128,-1,35
 557 1094 557 1094 751 1094 c 0,36,37
 881 1094 881 1094 961 1019 c 1,38,-1
 1026 1098 l 1,39,-1
 1181 1098 l 1,40,-1
 1030 917 l 1,41,42
 1067 831 1067 831 1067 717 c 2,20,-1
EndSplineSet
EndChar

StartChar: ucircumflex
Encoding: 251 251 80
Width: 1064
Flags: HMW
LayerCount: 2
Fore
SplineSet
373 355 m 0,0,1
 373 108 373 108 563 108 c 0,2,3
 695 108 695 108 787 228.5 c 128,-1,4
 879 349 879 349 918 533 c 2,5,-1
 1033 1073 l 9,6,-1
 1185 1073 l 1,7,-1
 957 0 l 1,8,-1
 805 0 l 1,9,-1
 843 181 l 1,10,11
 796 92 796 92 701.5 31.5 c 128,-1,12
 607 -29 607 -29 485.5 -29 c 128,-1,13
 364 -29 364 -29 290 54.5 c 128,-1,14
 216 138 216 138 216 307 c 0,15,16
 216 404.5 216 404.5 243 532 c 2,17,-1
 358 1073 l 1,18,-1
 509 1073 l 1,19,-1
 394 532 l 2,20,21
 373 430 373 430 373 355 c 0,0,1
1124 1196 m 1,22,-1
 936 1196 l 1,23,-1
 825 1409 l 1,24,-1
 623 1198 l 1,25,-1
 437 1198 l 1,26,-1
 786 1540 l 1,27,-1
 917 1540 l 1,28,-1
 1124 1196 l 1,22,-1
EndSplineSet
EndChar

StartChar: udieresis
Encoding: 252 252 81
Width: 1064
Flags: HMW
LayerCount: 2
Fore
SplineSet
373 355 m 0,0,1
 373 108 373 108 563 108 c 0,2,3
 695 108 695 108 787 228.5 c 128,-1,4
 879 349 879 349 918 533 c 2,5,-1
 1033 1073 l 9,6,-1
 1185 1073 l 1,7,-1
 957 0 l 1,8,-1
 805 0 l 1,9,-1
 843 181 l 1,10,11
 796 92 796 92 701.5 31.5 c 128,-1,12
 607 -29 607 -29 485.5 -29 c 128,-1,13
 364 -29 364 -29 290 54.5 c 128,-1,14
 216 138 216 138 216 307 c 0,15,16
 216 404.5 216 404.5 243 532 c 2,17,-1
 358 1073 l 1,18,-1
 509 1073 l 1,19,-1
 394 532 l 2,20,21
 373 430 373 430 373 355 c 0,0,1
503 1246 m 128,-1,23
 481 1268 481 1268 481 1308.32608696 c 128,-1,24
 481 1348.65217391 481 1348.65217391 520 1380.82608696 c 128,-1,25
 559 1413 559 1413 595 1413 c 0,26,27
 668.714285714 1413 668.714285714 1413 673 1338 c 1,28,29
 673 1288 673 1288 634 1256 c 128,-1,30
 595 1224 595 1224 560 1224 c 128,-1,22
 525 1224 525 1224 503 1246 c 128,-1,23
953 1292 m 0,31,32
 953 1350.66423358 953 1350.66423358 992 1382.83211679 c 128,-1,33
 1031 1415 1031 1415 1066.5 1415 c 128,-1,34
 1102 1415 1102 1415 1122.5 1394.5 c 128,-1,35
 1143 1374 1143 1374 1144 1332.01492537 c 128,-1,36
 1145 1290.02985075 1145 1290.02985075 1106 1258.01492537 c 128,-1,37
 1067 1226 1067 1226 1031.5 1226 c 128,-1,38
 996 1226 996 1226 974.5 1247.5 c 128,-1,39
 953 1269 953 1269 953 1292 c 0,31,32
EndSplineSet
EndChar

StartChar: yacute
Encoding: 253 253 82
Width: 996
Flags: HMW
LayerCount: 2
Fore
SplineSet
706 1329 m 2,0,-1
 1041 1579 l 1,1,2
 1067 1597 1067 1597 1085.5 1597 c 0,3,4
 1129 1597 1129 1597 1144 1567 c 1,5,6
 1160.54545455 1540.27272727 1160.54545455 1540.27272727 1147.27272727 1510.63636364 c 128,-1,7
 1134 1481 1134 1481 1109 1463 c 1,8,-1
 757 1244 l 2,9,10
 743.5 1235 743.5 1235 734.75 1235 c 0,11,12
 701.2 1235 701.2 1235 690.1 1254.5 c 0,13,14
 674.366088632 1282.14065511 674.366088632 1282.14065511 684.183044316 1300.57032755 c 128,-1,15
 694 1319 694 1319 706 1329 c 2,0,-1
363 355 m 0,16,17
 363 108 363 108 553 108 c 0,18,19
 685 108 685 108 777 228.5 c 128,-1,20
 869 349 869 349 908 533 c 2,21,-1
 1023 1073 l 1,22,-1
 1175 1073 l 1,23,-1
 943 -18 l 2,24,25
 922 -117 922 -117 866.5 -200 c 128,-1,26
 811 -283 811 -283 738 -336.5 c 0,27,28
 584.495327103 -449 584.495327103 -449 425 -449 c 0,29,30
 213 -449 213 -449 99 -275 c 1,31,-1
 223 -190 l 1,32,33
 300 -313 300 -313 453 -313 c 0,34,35
 552.846153846 -313 552.846153846 -313 651.5 -245.5 c 0,36,37
 757.583333333 -172.916666667 757.583333333 -172.916666667 788 -33 c 1,38,39
 811 82 811 82 833 181 c 1,40,41
 786 92 786 92 691.5 31.5 c 128,-1,42
 597 -29 597 -29 475.5 -29 c 128,-1,43
 354 -29 354 -29 280 54.5 c 128,-1,44
 206 138 206 138 206 307 c 0,45,46
 206 404.5 206 404.5 233 532 c 2,47,-1
 348 1073 l 1,48,-1
 499 1073 l 1,49,-1
 384 532 l 2,50,51
 363 430 363 430 363 355 c 0,16,17
EndSplineSet
EndChar

StartChar: thorn
Encoding: 254 254 83
Width: 1003
Flags: HMW
LayerCount: 2
Fore
SplineSet
281 0 m 17,0,-1
 129 0 l 1,1,-1
 438 1454 l 1,2,-1
 590 1454 l 1,3,-1
 517 1112 l 1,4,5
 593 1196 593 1196 664 1240 c 128,-1,6
 735 1284 735 1284 834 1284 c 0,7,8
 973 1284 973 1284 1042 1184 c 128,-1,9
 1111 1084 1111 1084 1111 922 c 0,10,11
 1111 754.428571429 1111 754.428571429 1043 565 c 0,12,13
 941.401500938 281.975609756 941.401500938 281.975609756 731 196.5 c 0,14,15
 651 164 651 164 581 164 c 128,-1,16
 511 164 511 164 472.5 179 c 128,-1,17
 434 194 434 194 412 216 c 0,18,19
 364.368421053 263.631578947 364.368421053 263.631578947 347 311 c 1,20,21
 307 121 307 121 281 0 c 17,0,-1
937 729 m 0,22,23
 957 826 957 826 957 921 c 128,-1,24
 957 1016 957 1016 920 1082.5 c 128,-1,25
 883 1149 883 1149 822.5 1149 c 128,-1,26
 762 1149 762 1149 703.5 1119 c 128,-1,27
 645 1089 645 1089 591.5 1036.5 c 0,28,29
 471.886511272 919.122277417 471.886511272 919.122277417 431 729 c 0,30,31
 414 651 414 651 414 582 c 2,32,-1
 414 576 l 1,33,34
 413 444 413 444 467.5 371.5 c 128,-1,35
 522 299 522 299 596 299 c 0,36,37
 710 299 710 299 802 412.5 c 128,-1,38
 894 526 894 526 937 729 c 0,22,23
EndSplineSet
EndChar

StartChar: ydieresis
Encoding: 255 255 84
Width: 1064
Flags: HMW
LayerCount: 2
Fore
SplineSet
373 355 m 0,0,1
 373 108 373 108 563 108 c 0,2,3
 695 108 695 108 787 228.5 c 128,-1,4
 879 349 879 349 918 533 c 2,5,-1
 1033 1073 l 1,6,-1
 1185 1073 l 1,7,-1
 953 -18 l 2,8,9
 932 -117 932 -117 876.5 -200 c 128,-1,10
 821 -283 821 -283 748 -336.5 c 0,11,12
 594.495327103 -449 594.495327103 -449 435 -449 c 0,13,14
 223 -449 223 -449 109 -275 c 1,15,-1
 233 -190 l 1,16,17
 310 -313 310 -313 463 -313 c 0,18,19
 562.846153846 -313 562.846153846 -313 661.5 -245.5 c 0,20,21
 767.583333333 -172.916666667 767.583333333 -172.916666667 798 -33 c 1,22,23
 821 82 821 82 843 181 c 1,24,25
 796 92 796 92 701.5 31.5 c 128,-1,26
 607 -29 607 -29 485.5 -29 c 128,-1,27
 364 -29 364 -29 290 54.5 c 128,-1,28
 216 138 216 138 216 307 c 0,29,30
 216 404.5 216 404.5 243 532 c 2,31,-1
 358 1073 l 1,32,-1
 509 1073 l 1,33,-1
 394 532 l 2,34,35
 373 430 373 430 373 355 c 0,0,1
521 1235 m 128,-1,37
 499 1257 499 1257 499 1297.32608696 c 128,-1,38
 499 1337.65217391 499 1337.65217391 538 1369.82608696 c 128,-1,39
 577 1402 577 1402 613 1402 c 0,40,41
 686.714285714 1402 686.714285714 1402 691 1327 c 1,42,43
 691 1277 691 1277 652 1245 c 128,-1,44
 613 1213 613 1213 578 1213 c 128,-1,36
 543 1213 543 1213 521 1235 c 128,-1,37
992 1237 m 128,-1,46
 970 1259 970 1259 970 1281.5 c 0,47,48
 970 1339.65217391 970 1339.65217391 1009 1371.82608696 c 128,-1,49
 1048 1404 1048 1404 1084 1404 c 0,50,51
 1157.71428571 1404 1157.71428571 1404 1162 1329 c 1,52,53
 1162 1279 1162 1279 1123 1247 c 128,-1,54
 1084 1215 1084 1215 1049 1215 c 128,-1,45
 1014 1215 1014 1215 992 1237 c 128,-1,46
EndSplineSet
EndChar

StartChar: quotedblbase
Encoding: 8222 8222 85
Width: 688
Flags: HMW
LayerCount: 2
Fore
SplineSet
330 195 m 128,-1,1
 354 171 354 171 354 131.41025641 c 128,-1,2
 354 91.8205128205 354 91.8205128205 329 35.4102564103 c 128,-1,3
 304 -21 304 -21 278 -59 c 128,-1,4
 252 -97 252 -97 233 -121.5 c 128,-1,5
 214 -146 214 -146 188.5 -174 c 128,-1,6
 163 -202 163 -202 162 -204 c 1,7,-1
 112 -173 l 1,8,9
 207 -68 207 -68 222 5 c 1,10,11
 183 5 183 5 159 28.5 c 128,-1,12
 135 52 135 52 135 89 c 1,13,14
 134 93 134 93 140.5 124.5 c 128,-1,15
 147 156 147 156 185.5 187.5 c 128,-1,16
 224 219 224 219 265 219 c 128,-1,0
 306 219 306 219 330 195 c 128,-1,1
658 192.5 m 128,-1,18
 682 168 682 168 682 130.038461538 c 128,-1,19
 682 92.0769230769 682 92.0769230769 656.5 34.5384615385 c 128,-1,20
 631 -23 631 -23 605 -61 c 128,-1,21
 579 -99 579 -99 560 -123.5 c 128,-1,22
 541 -148 541 -148 515.5 -176 c 128,-1,23
 490 -204 490 -204 489 -206 c 1,24,-1
 440 -175 l 1,25,26
 535 -70 535 -70 550 3 c 1,27,28
 511 3 511 3 486.5 26.5 c 128,-1,29
 462 50 462 50 462 87 c 1,30,31
 461 91 461 91 467.5 122.5 c 128,-1,32
 474 154 474 154 512.5 185.5 c 128,-1,33
 551 217 551 217 592.5 217 c 128,-1,17
 634 217 634 217 658 192.5 c 128,-1,18
EndSplineSet
EndChar

StartChar: uni201F
Encoding: 8223 8223 86
Width: 688
Flags: HMW
LayerCount: 2
Fore
SplineSet
366 1112 m 128,-1,1
 342 1136 342 1136 342 1174.46153846 c 128,-1,2
 342 1212.92307692 342 1212.92307692 367.5 1270.46153846 c 128,-1,3
 393 1328 393 1328 419 1366 c 128,-1,4
 445 1404 445 1404 464 1428.5 c 128,-1,5
 483 1453 483 1453 508.5 1481 c 128,-1,6
 534 1509 534 1509 535 1511 c 1,7,-1
 585 1480 l 1,8,9
 490 1375 490 1375 475 1302 c 1,10,11
 514 1302 514 1302 538 1278.5 c 128,-1,12
 562 1255 562 1255 562 1218 c 1,13,14
 563 1214 563 1214 556.5 1182.5 c 128,-1,15
 550 1151 550 1151 511.5 1119.5 c 128,-1,16
 473 1088 473 1088 431.5 1088 c 128,-1,0
 390 1088 390 1088 366 1112 c 128,-1,1
696 1110 m 128,-1,18
 672 1134 672 1134 672 1172.46153846 c 128,-1,19
 672 1210.92307692 672 1210.92307692 697.5 1268.46153846 c 128,-1,20
 723 1326 723 1326 749 1364 c 128,-1,21
 775 1402 775 1402 794 1426.5 c 128,-1,22
 813 1451 813 1451 838.5 1479 c 128,-1,23
 864 1507 864 1507 865 1509 c 1,24,-1
 914 1478 l 1,25,26
 819 1373 819 1373 804 1300 c 1,27,28
 843 1300 843 1300 867 1276.5 c 128,-1,29
 891 1253 891 1253 891 1216 c 1,30,31
 892 1209 892 1209 886 1179 c 128,-1,32
 880 1149 880 1149 841.5 1117.5 c 128,-1,33
 803 1086 803 1086 761.5 1086 c 128,-1,17
 720 1086 720 1086 696 1110 c 128,-1,18
EndSplineSet
EndChar

StartChar: Euro
Encoding: 8364 8364 87
Width: 1089
Flags: HMW
LayerCount: 2
Fore
SplineSet
432 762 m 1,0,-1
 303 762 l 1,1,-1
 332 897 l 1,2,-1
 485 897 l 1,3,4
 553 1032 553 1032 659.5 1114 c 128,-1,5
 766 1196 766 1196 885 1196 c 128,-1,6
 1004 1196 1004 1196 1061 1167 c 128,-1,7
 1118 1138 1118 1138 1178 1063 c 1,8,-1
 1062 967 l 1,9,10
 1022 1018 1022 1018 983 1039.5 c 128,-1,11
 944 1061 944 1061 873.5 1061 c 0,12,13
 745.342465753 1061 745.342465753 1061 642 897 c 1,14,-1
 912 897 l 1,15,-1
 883 762 l 1,16,-1
 577 762 l 1,17,18
 556.820224719 696.415730337 556.820224719 696.415730337 552 645 c 1,19,-1
 852 645 l 1,20,-1
 823 510 l 1,21,-1
 558 510 l 1,22,23
 575 434 575 434 619 390 c 128,-1,24
 663 346 663 346 721.5 346 c 128,-1,25
 780 346 780 346 830.5 367.5 c 128,-1,26
 881 389 881 389 957 457 c 1,27,-1
 1033 360 l 1,28,29
 907.507997441 243.690339091 907.507997441 243.690339091 803 222 c 0,30,31
 750 211 750 211 682 211 c 0,32,33
 550 211 550 211 480.5 293 c 128,-1,34
 411 375 411 375 402 510 c 1,35,-1
 243 510 l 1,36,-1
 272 645 l 1,37,-1
 408 645 l 1,38,39
 417 711 417 711 432 762 c 1,0,-1
EndSplineSet
EndChar

StartChar: A
Encoding: 65 65 88
Width: 1302
Flags: HMW
LayerCount: 2
Fore
SplineSet
917 1214 m 1,0,-1
 587 621 l 1,1,-1
 1002 621 l 1,2,-1
 917 1214 l 1,0,-1
1010 485 m 1,3,-1
 513 485 l 1,4,-1
 248 0 l 1,5,-1
 72 0 l 1,6,-1
 905 1456 l 1,7,8
 1032 1456 l 1,9,-1
 1247 0 l 1,10,-1
 1067 0 l 1,11,-1
 1010 485 l 1,3,-1
EndSplineSet
EndChar

StartChar: B
Encoding: 66 66 89
Width: 1179
Flags: HMW
LayerCount: 2
Back
SplineSet
337.92 1085.44 m 4,0,1
 337.92 1204.1425 337.92 1204.1425 421.92875 1288.15125 c 0
 505.9375 1372.16 505.9375 1372.16 624.64 1372.16 c 0,2,3
 743.341922652 1372.16 743.341922652 1372.16 827.350961326 1288.15116367 c 0
 911.36 1204.14232735 911.36 1204.14232735 911.36 1085.44 c 0,4,5
 911.36 966.73825 911.36 966.73825 827.350875 882.729125 c 0
 743.34175 798.72 743.34175 798.72 624.64 798.72 c 0,6,7
 505.937672652 798.72 505.937672652 798.72 421.928836326 882.729038674 c 0
 337.92 966.738077348 337.92 966.738077348 337.92 1085.44 c 4,0,1
262.144 405.504 m 4,8,9
 262.144 478.796660582 262.144 478.796660582 290.704310277 545.54356843 c 0
 319.264620553 612.290476279 319.264620553 612.290476279 367.535330348 660.56105657 c 0
 415.806040143 708.831636861 415.806040143 708.831636861 482.552841527 737.39181843 c 0
 549.29964291 765.952 549.29964291 765.952 622.592 765.952 c 0,10,11
 720.453796804 765.952 720.453796804 765.952 803.492115868 717.697217466 c 0
 886.530434932 669.442434932 886.530434932 669.442434932 934.785217466 586.404115868 c 0
 983.04 503.365796804 983.04 503.365796804 983.04 405.504 c 0,12,13
 983.04 332.211639716 983.04 332.211639716 954.479817172 265.464794119 c 0
 925.919634345 198.717948523 925.919634345 198.717948523 877.649057828 150.447180881 c 0
 829.378481311 102.176413239 829.378481311 102.176413239 762.631567172 73.6160566193 c 0
 695.884653034 45.0557 695.884653034 45.0557 622.592 45.0557 c 0,14,15
 549.299696041 45.0557 549.299696041 45.0557 482.552850382 73.6160642163 c 0
 415.806004723 102.176428433 415.806004723 102.176428433 367.535321493 150.447173284 c 0
 319.264638264 198.717918135 319.264638264 198.717918135 290.704319132 265.464801716 c 0
 262.144 332.211685298 262.144 332.211685298 262.144 405.504 c 4,8,9
EndSplineSet
Fore
SplineSet
429 705 m 1,0,-1
 309 141 l 1,1,-1
 628 141 l 2,2,3
 795 141 795 141 895.5 225.5 c 128,-1,4
 996 310 996 310 1021 430 c 0,5,6
 1028 465 1028 465 1028 488 c 2,7,-1
 1028 494 l 1,8,9
 1029 588 1029 588 960.5 646.5 c 128,-1,10
 892 705 892 705 748 705 c 2,11,-1
 429 705 l 1,0,-1
796 1315 m 1,12,-1
 559 1317 l 1,13,-1
 458 844 l 1,14,-1
 695 844 l 2,15,16
 921.089552239 844 921.089552239 844 1018.5 958.5 c 0,17,18
 1063.12167607 1010.95004029 1063.12167607 1010.95004029 1074.06083803 1060.97502015 c 128,-1,19
 1085 1111 1085 1111 1085 1138 c 128,-1,20
 1085 1165 1085 1165 1072.5 1195 c 128,-1,21
 1060 1225 1060 1225 1030.5 1253.5 c 0,22,23
 966.842105263 1315 966.842105263 1315 796 1315 c 1,12,-1
430 1456 m 1,24,-1
 825 1456 l 2,25,26
 1092.85 1456 1092.85 1456 1193.5 1324 c 0,27,28
 1248 1252.52459016 1248 1252.52459016 1248 1156 c 1,29,30
 1239.41581633 984.316326531 1239.41581633 984.316326531 1111.5 872 c 0,31,32
 1009 782 1009 782 922 782 c 1,33,34
 1117 782 1117 782 1169 594 c 0,35,36
 1182 547 1182 547 1182 504 c 128,-1,37
 1182 461 1182 461 1173 417.5 c 128,-1,38
 1164 374 1164 374 1146 326.5 c 128,-1,39
 1128 279 1128 279 1084.5 216.5 c 128,-1,40
 1041 154 1041 154 981.5 109 c 128,-1,41
 922 64 922 64 822 32 c 128,-1,42
 722 0 722 0 598 0 c 2,43,-1
 121 0 l 1,44,-1
 430 1456 l 1,24,-1
EndSplineSet
EndChar

StartChar: C
Encoding: 67 67 90
Width: 1220
Flags: HMW
LayerCount: 2
Fore
SplineSet
1229 293 m 1,0,1
 1152.20402178 163.659405111 1152.20402178 163.659405111 1026.5 72.5 c 0,2,3
 886.536842105 -29 886.536842105 -29 694 -29 c 0,4,5
 454.02739726 -29 454.02739726 -29 338 125 c 0,6,7
 229 269.672727273 229 269.672727273 229 497 c 0,8,9
 229 725.182795699 229 725.182795699 325.5 954.5 c 0,10,11
 423.244581527 1186.77475825 423.244581527 1186.77475825 597 1336 c 0,12,13
 782.136986301 1495 782.136986301 1495 1020 1495 c 0,14,15
 1234.95061728 1495 1234.95061728 1495 1338.5 1357.5 c 0,16,17
 1394.21098266 1283.52312139 1394.21098266 1283.52312139 1407 1194 c 1,18,-1
 1249 1153 l 1,19,20
 1239 1244 1239 1244 1166.5 1299 c 128,-1,21
 1094 1354 1094 1354 990 1354 c 2,22,-1
 988 1354 l 2,23,24
 884 1354 884 1354 788 1300 c 128,-1,25
 692 1246 692 1246 620 1156 c 0,26,27
 471.566951567 970.458689459 471.566951567 970.458689459 420 725 c 0,28,29
 399 627.5 399 627.5 399 520.75 c 128,-1,30
 399 414 399 414 434 320 c 128,-1,31
 469 226 469 226 544 168.5 c 128,-1,32
 619 111 619 111 724.5 111 c 128,-1,33
 830 111 830 111 935 176.5 c 128,-1,34
 1040 242 1040 242 1091 334 c 1,35,-1
 1229 293 l 1,0,1
EndSplineSet
EndChar

StartChar: D
Encoding: 68 68 91
Width: 1220
Flags: HMW
LayerCount: 2
Fore
SplineSet
1067 488.5 m 0,0,1
 1161 700 1161 700 1161 905 c 0,2,3
 1161 1212.696 1161 1212.696 945.5 1292 c 0,4,5
 883 1315 883 1315 804 1315 c 2,6,-1
 559 1315 l 1,7,-1
 309 141 l 1,8,-1
 554 141 l 2,9,10
 809.025 141 809.025 141 951.5 305 c 0,11,12
 1021 385 1021 385 1067 488.5 c 0,0,1
1308 727 m 0,13,14
 1264 521 1264 521 1162 358 c 128,-1,15
 1060 195 1060 195 904 97.5 c 128,-1,16
 748 0 748 0 565 0 c 2,17,-1
 121 0 l 1,18,-1
 430 1456 l 1,19,-1
 874 1456 l 2,20,21
 1100.79310345 1456 1100.79310345 1456 1218 1301.5 c 0,22,23
 1330 1153.86363636 1330 1153.86363636 1330 929 c 0,24,25
 1330 828 1330 828 1308 727 c 0,13,14
EndSplineSet
EndChar

StartChar: E
Encoding: 69 69 92
Width: 1142
Flags: HMW
LayerCount: 2
Fore
SplineSet
430 1456 m 1,0,-1
 1351 1456 l 1,1,-1
 1322 1315 l 1,2,-1
 559 1315 l 1,3,-1
 453 817 l 1,4,-1
 1173 817 l 1,5,-1
 1143 676 l 1,6,-1
 423 676 l 1,7,-1
 309 141 l 1,8,-1
 1072 141 l 1,9,-1
 1042 0 l 1,10,-1
 121 0 l 1,11,-1
 430 1456 l 1,0,-1
EndSplineSet
EndChar

StartChar: F
Encoding: 70 70 93
Width: 1146
Flags: HMW
LayerCount: 2
Fore
SplineSet
430 1456 m 1,0,-1
 1351 1456 l 1,1,-1
 1322 1315 l 1,2,-1
 559 1315 l 1,3,-1
 453 817 l 1,4,-1
 1173 817 l 1,5,-1
 1143 676 l 1,6,-1
 423 676 l 1,7,-1
 279 0 l 1,8,-1
 121 0 l 1,9,-1
 430 1456 l 1,0,-1
EndSplineSet
EndChar

StartChar: G
Encoding: 71 71 94
Width: 1363
Flags: HMW
LayerCount: 2
Fore
SplineSet
694 -29 m 2,0,1
 462.16 -29 462.16 -29 344.5 130 c 0,2,3
 232 282.027027027 232 282.027027027 232 514 c 0,4,5
 232 855.510638298 232 855.510638298 437.5 1147 c 0,6,7
 590.003274899 1363.31670198 590.003274899 1363.31670198 790 1448 c 0,8,9
 901 1495 901 1495 1040 1495 c 0,10,11
 1304.86956522 1495 1304.86956522 1495 1405 1260 c 1,12,-1
 1252 1192 l 1,13,14
 1211 1273 1211 1273 1153.5 1313.5 c 128,-1,15
 1096 1354 1096 1354 1001.5 1354 c 128,-1,16
 907 1354 907 1354 826.5 1315.5 c 128,-1,17
 746 1277 746 1277 682 1213.5 c 128,-1,18
 618 1150 618 1150 564 1068.5 c 0,19,20
 402 824 402 824 402 546 c 0,21,22
 402 289.093959732 402 289.093959732 541.5 173 c 0,23,24
 616 111 616 111 712 111 c 128,-1,25
 808 111 808 111 882 141.5 c 128,-1,26
 956 172 956 172 1007 219 c 128,-1,27
 1058 266 1058 266 1098.5 327 c 0,28,29
 1170.71075198 435.761873351 1170.71075198 435.761873351 1195 555 c 1,30,-1
 802 555 l 1,31,-1
 832 696 l 1,32,-1
 1381 696 l 1,33,-1
 1363 610 l 2,34,35
 1322.47658219 418.04696829 1322.47658219 418.04696829 1209.5 259.5 c 0,36,37
 1003.92215569 -29 1003.92215569 -29 700 -29 c 2,38,-1
 694 -29 l 2,0,1
EndSplineSet
EndChar

StartChar: H
Encoding: 72 72 95
Width: 1198
Flags: HMW
LayerCount: 2
Fore
SplineSet
430 1456 m 1,0,-1
 588 1456 l 1,1,-1
 452 815 l 1,2,-1
 1113 815 l 1,3,-1
 1249 1456 l 1,4,-1
 1407 1456 l 1,5,-1
 1098 0 l 1,6,-1
 940 0 l 1,7,-1
 1083 674 l 1,8,-1
 422 674 l 1,9,-1
 279 0 l 1,10,-1
 121 0 l 1,11,-1
 430 1456 l 1,0,-1
EndSplineSet
EndChar

StartChar: I
Encoding: 73 73 96
Width: 444
Flags: HMW
LayerCount: 2
Fore
SplineSet
154 0 m 1,0,-1
 463 1456 l 1,1,-1
 620 1456 l 1,2,-1
 311 0 l 1,3,-1
 154 0 l 1,0,-1
EndSplineSet
EndChar

StartChar: J
Encoding: 74 74 97
Width: 1140
Flags: HMW
LayerCount: 2
Fore
SplineSet
227 535 m 1,0,-1
 368 535 l 1,1,2
 356 475 356 475 356 430 c 0,3,4
 356 302 356 302 418 211.5 c 128,-1,5
 480 121 480 121 581.5 121 c 128,-1,6
 683 121 683 121 767.5 183.5 c 0,7,8
 935.456505424 307.728184485 935.456505424 307.728184485 984 535 c 2,9,-1
 1179 1456 l 1,10,-1
 1337 1456 l 1,11,-1
 1142 535 l 2,12,13
 1090 289 1090 289 927 130 c 128,-1,14
 764 -29 764 -29 559 -29 c 0,15,16
 394 -29 394 -29 301 84.5 c 128,-1,17
 208 198 208 198 209 378 c 1,18,-1
 209 384 l 2,19,20
 209 448 209 448 227 535 c 1,0,-1
EndSplineSet
EndChar

StartChar: K
Encoding: 75 75 98
Width: 1239
Flags: HMW
LayerCount: 2
Fore
SplineSet
430 1456 m 1,0,-1
 588 1456 l 1,1,-1
 428 702 l 1,2,-1
 1335 1456 l 1,3,-1
 1528 1456 l 1,4,-1
 742 803 l 1,5,-1
 1235 0 l 1,6,-1
 1028 0 l 1,7,-1
 616 702 l 1,8,-1
 389 516 l 1,9,-1
 279 0 l 1,10,-1
 121 0 l 1,11,-1
 430 1456 l 1,0,-1
EndSplineSet
EndChar

StartChar: L
Encoding: 76 76 99
Width: 1105
Flags: HMW
LayerCount: 2
Fore
SplineSet
430 1456 m 1,0,-1
 588 1456 l 1,1,-1
 309 141 l 1,2,-1
 1074 141 l 1,3,-1
 1044 0 l 1,4,-1
 121 0 l 1,5,-1
 430 1456 l 1,0,-1
EndSplineSet
EndChar

StartChar: M
Encoding: 77 77 100
Width: 1562
Flags: HMW
LayerCount: 2
Fore
SplineSet
121 0 m 1,0,-1
 430 1456 l 1,1,-1
 645 1456 l 1,2,-1
 839 209 l 1,3,-1
 1564 1456 l 1,4,-1
 1771 1456 l 1,5,-1
 1462 0 l 1,6,-1
 1309 0 l 1,7,-1
 1565 1204 l 1,8,-1
 884 16 l 1,9,-1
 705 16 l 1,10,-1
 530 1204 l 1,11,-1
 274 0 l 1,12,-1
 121 0 l 1,0,-1
EndSplineSet
EndChar

StartChar: N
Encoding: 78 78 101
Width: 1271
Flags: HMW
LayerCount: 2
Fore
SplineSet
121 0 m 1,0,-1
 430 1456 l 1,1,-1
 583 1456 l 1,2,-1
 1077 295 l 1,3,-1
 1323 1456 l 1,4,-1
 1480 1456 l 1,5,-1
 1171 0 l 1,6,-1
 1026 0 l 1,7,-1
 532 1190 l 1,8,-1
 279 0 l 1,9,-1
 121 0 l 1,0,-1
EndSplineSet
EndChar

StartChar: O
Encoding: 79 79 102
Width: 1333
Flags: HMW
LayerCount: 2
Fore
SplineSet
1124 394 m 0,0,1
 1275 651.958333333 1275 651.958333333 1275 952 c 0,2,3
 1275 1117.73913043 1275 1117.73913043 1208.5 1230.5 c 0,4,5
 1135.66666667 1354 1135.66666667 1354 964 1354 c 0,6,7
 871 1354 871 1354 788.5 1314 c 128,-1,8
 706 1274 706 1274 646.5 1210.5 c 128,-1,9
 587 1147 587 1147 538.5 1062.5 c 0,10,11
 393.356114092 809.620446202 393.356114092 809.620446202 388 507 c 1,12,13
 388 341.657142857 388 341.657142857 455 233.5 c 0,14,15
 529.646017699 113 529.646017699 113 700 113 c 0,16,17
 959.512195122 113 959.512195122 113 1124 394 c 0,0,1
223 511 m 0,18,19
 223 838.298507463 223 838.298507463 416 1135 c 0,20,21
 561.07360545 1358.02360241 561.07360545 1358.02360241 759 1445.5 c 0,22,23
 871 1495 871 1495 981 1495 c 128,-1,24
 1091 1495 1091 1495 1168.5 1464 c 128,-1,25
 1246 1433 1246 1433 1296 1381.5 c 128,-1,26
 1346 1330 1346 1330 1379 1259 c 0,27,28
 1440 1127.75757576 1440 1127.75757576 1440 983.378787879 c 128,-1,29
 1440 839 1440 839 1419 740.5 c 128,-1,30
 1398 642 1398 642 1366 558 c 128,-1,31
 1334 474 1334 474 1287.5 388 c 128,-1,32
 1241 302 1241 302 1177.5 228 c 128,-1,33
 1114 154 1114 154 1039 96 c 0,34,35
 877.362068966 -29 877.362068966 -29 670 -29 c 0,36,37
 392.829787234 -29 392.829787234 -29 284 203.5 c 0,38,39
 223 333.818181818 223 333.818181818 223 511 c 0,18,19
EndSplineSet
EndChar

StartChar: P
Encoding: 80 80 103
Width: 1099
Flags: HMW
LayerCount: 2
Fore
SplineSet
444 774 m 1,0,-1
 650 774 l 2,1,2
 1036 774 1036 774 1093 1047 c 0,3,4
 1100 1081 1100 1081 1099 1107 c 1,5,6
 1099 1315 1099 1315 765 1315 c 2,7,-1
 559 1315 l 1,8,-1
 444 774 l 1,0,-1
430 1456 m 1,9,-1
 794 1456 l 2,10,11
 1024 1456 1024 1456 1144 1368 c 128,-1,12
 1264 1280 1264 1280 1265 1132 c 1,13,14
 1254.15548211 893.420606409 1254.15548211 893.420606409 1052.5 748.5 c 0,15,16
 889 631 889 631 619 631 c 2,17,-1
 413 631 l 1,18,-1
 279 0 l 1,19,-1
 121 0 l 1,20,-1
 430 1456 l 1,9,-1
EndSplineSet
EndChar

StartChar: Q
Encoding: 81 81 104
Width: 1370
Flags: HMW
LayerCount: 2
Back
SplineSet
1273.04 83.6143 m 5,0,-1
 1186.51 -32.9658 l 1,1,-1
 699.626 328.428 l 1,2,-1
 786.157 445.006 l 1,3,-1
 1273.04 83.6143 l 5,0,-1
1101.68 725.914 m 0,4,5
 1101.68 785.598492778 1101.68 785.598492778 1094.98024666 845.504719879 c 0
 1088.28049333 905.410946981 1088.28049333 905.410946981 1072.84375625 967.886813649 c 0
 1057.40701918 1030.36268032 1057.40701918 1030.36268032 1034.44014171 1086.02494145 c 0
 1011.47326423 1141.68720259 1011.47326423 1141.68720259 976.636817477 1191.15273202 c 0
 941.800370722 1240.61826144 941.800370722 1240.61826144 898.7568764 1276.35024758 c 0
 855.713382078 1312.08223371 855.713382078 1312.08223371 797.667732929 1332.85111686 c 0
 739.622083781 1353.62 739.622083781 1353.62 672.539 1353.62 c 0,6,7
 447.718504325 1353.62 447.718504325 1353.62 332.116811616 1131.33000639 c 0
 244.959091794 963.734804895 244.959091794 963.734804895 243.417754063 732.725768062 c 0
 243.397847244 728.81788728 243.397847244 728.81788728 243.395 725.914 c 0,8,9
 243.395 655.966922056 243.395 655.966922056 253.205852913 586.688803317 c 0
 263.016705826 517.410684578 263.016705826 517.410684578 283.22385542 447.204196683 c 0
 303.431005015 376.997708789 303.431005015 376.997708789 338.133102913 317.317692206 c 0
 372.835200811 257.637675622 372.835200811 257.637675622 418.680522087 210.926418906 c 0
 464.525843363 164.215162189 464.525843363 164.215162189 529.812686246 137.618581094 c 0
 595.09952913 111.022 595.09952913 111.022 672.539 111.022 c 0,10,11
 739.226135023 111.022 739.226135023 111.022 797.000136616 131.07148851 c 0
 854.77413821 151.120977021 854.77413821 151.120977021 897.819306532 185.760721402 c 0
 940.864474855 220.400465784 940.864474855 220.400465784 975.745244488 268.436013292 c 0
 1010.62601412 316.471560799 1010.62601412 316.471560799 1033.76387796 370.855578545 c 0
 1056.9017418 425.239596291 1056.9017418 425.239596291 1072.47479551 486.471605128 c 0
 1088.04784922 547.703613966 1088.04784922 547.703613966 1094.86392461 607.042307408 c 0
 1101.68 666.38100085 1101.68 666.38100085 1101.68 725.914 c 0,4,5
93.9424 725.914 m 0,12,13
 93.9424 827.089693026 93.9424 827.089693026 112.32388889 929.177497628 c 0
 130.705377779 1031.26530223 130.705377779 1031.26530223 174.60966471 1134.46829437 c 0
 218.513951642 1237.67128651 218.513951642 1237.67128651 282.88805529 1316.56002563 c 0
 347.262158938 1395.44876474 347.262158938 1395.44876474 448.16839111 1444.98938237 c 0
 549.074623283 1494.53 549.074623283 1494.53 672.539 1494.53 c 0,14,15
 761.766202661 1494.53 761.766202661 1494.53 839.500533409 1468.63966915 c 0
 917.234864158 1442.7493383 917.234864158 1442.7493383 975.127889331 1398.29314718 c 0
 1033.0209145 1353.83695605 1033.0209145 1353.83695605 1080.21666169 1292.73175078 c 0
 1127.41240887 1231.62654552 1127.41240887 1231.62654552 1158.73960362 1163.00237167 c 0
 1190.06679836 1094.37819781 1190.06679836 1094.37819781 1211.28049842 1018.22595487 c 0
 1232.49419849 942.073711916 1232.49419849 942.073711916 1241.81209924 869.449392074 c 0
 1251.13 796.825072231 1251.13 796.825072231 1251.13 725.914 c 0,16,17
 1251.13 655.137627552 1251.13 655.137627552 1241.69589813 583.096147486 c 0
 1232.26179626 511.054667419 1232.26179626 511.054667419 1210.91232636 436.133545809 c 0
 1189.56285646 361.212424199 1189.56285646 361.212424199 1158.06451038 293.876119497 c 0
 1126.5661643 226.539814795 1126.5661643 226.539814795 1079.32685697 166.85742336 c 0
 1032.08754965 107.175031925 1032.08754965 107.175031925 974.191979764 63.8151399053 c 0
 916.296409882 20.4552478861 916.296409882 20.4552478861 838.834285542 -4.71717605694 c 0
 761.372161203 -29.8896 761.372161203 -29.8896 672.539 -29.8896 c 0,18,19
 583.706245075 -29.8896 583.706245075 -29.8896 506.244034223 -4.71719610168 c 0
 428.781823371 20.4552077966 428.781823371 20.4552077966 370.885784436 63.8151599501 c 0
 312.989745502 107.175112104 312.989745502 107.175112104 265.749778829 166.857403315 c 0
 218.509812157 226.539694527 218.509812157 226.539694527 187.010723212 293.876139542 c 0
 155.511634267 361.212584557 155.511634267 361.212584557 134.161533931 436.133525764 c 0
 112.811433595 511.054466972 112.811433595 511.054466972 103.376916798 583.09616753 c 0
 93.9424 655.137868089 93.9424 655.137868089 93.9424 725.914 c 0,12,13
EndSplineSet
Fore
SplineSet
1258 725 m 0,0,1
 1283 845 1283 845 1283 929 c 128,-1,2
 1283 1013 1283 1013 1272.5 1071.5 c 128,-1,3
 1262 1130 1262 1130 1238 1183 c 128,-1,4
 1214 1236 1214 1236 1178 1273 c 0,5,6
 1099.18918919 1354 1099.18918919 1354 980.594594595 1354 c 128,-1,7
 862 1354 862 1354 769.5 1301.5 c 128,-1,8
 677 1249 677 1249 608 1160 c 0,9,10
 464.94767536 975.483233436 464.94767536 975.483233436 412 725 c 0,11,12
 390 620 390 620 390 521 c 2,13,-1
 390 516 l 2,14,15
 390 351.183098592 390 351.183098592 457.5 239 c 0,16,17
 533.313559322 113 533.313559322 113 716 113 c 0,18,19
 770 113 770 113 836 133.5 c 128,-1,20
 902 154 902 154 943 188 c 1,21,-1
 785 330 l 1,22,-1
 898 446 l 1,23,-1
 1064 297 l 1,24,25
 1197 441 1197 441 1258 725 c 0,0,1
223 515 m 2,26,27
 223 836.681481481 223 836.681481481 418.5 1135 c 0,28,29
 564.167114654 1357.27722681 564.167114654 1357.27722681 762 1445.5 c 0,30,31
 873 1495 873 1495 982.5 1495 c 128,-1,32
 1092 1495 1092 1495 1170.5 1463.5 c 128,-1,33
 1249 1432 1249 1432 1300 1380 c 128,-1,34
 1351 1328 1351 1328 1384.5 1256 c 0,35,36
 1446 1123.82089552 1446 1123.82089552 1446 974.910447761 c 128,-1,37
 1446 826 1446 826 1418 697 c 128,-1,38
 1390 568 1390 568 1318 428.5 c 128,-1,39
 1246 289 1246 289 1166 207 c 1,40,-1
 1306 86 l 1,41,-1
 1191 -31 l 1,42,-1
 1046 96 l 1,43,44
 958 36 958 36 875 3.5 c 128,-1,45
 792 -29 792 -29 687 -29 c 128,-1,46
 582 -29 582 -29 502.5 1 c 128,-1,47
 423 31 423 31 371.5 81.5 c 128,-1,48
 320 132 320 132 286 202.5 c 0,49,50
 223 333.132352941 223 333.132352941 223 509 c 2,51,-1
 223 515 l 2,26,27
EndSplineSet
EndChar

StartChar: R
Encoding: 82 82 105
Width: 1101
Flags: HMW
LayerCount: 2
Back
SplineSet
268.288 774.145 m 5,0,-1
 475.136 774.145 l 2,1,2
 567.442409035 774.145 567.442409035 774.145 637.513597129 790.445085864 c 0
 707.584785224 806.745171728 707.584785224 806.745171728 749.031554871 832.506490136 c 0
 790.478324518 858.267808544 790.478324518 858.267808544 816.295805129 895.269789864 c 0
 842.113285741 932.271771184 842.113285741 932.271771184 851.136642871 968.297434136 c 0
 860.16 1004.32309709 860.16 1004.32309709 860.16 1046.53 c 0,3,4
 860.16 1066.57751787 860.16 1066.57751787 857.815588845 1085.46823993 c 0
 855.471177689 1104.35896199 855.471177689 1104.35896199 849.255621032 1125.74398229 c 0
 843.040064374 1147.1290026 843.040064374 1147.1290026 833.228351533 1166.22000948 c 0
 823.416638692 1185.31101635 823.416638692 1185.31101635 807.407873432 1204.69229505 c 0
 791.399108173 1224.07357375 791.399108173 1224.07357375 770.614052493 1240.09474199 c 0
 749.828996814 1256.11591022 749.828996814 1256.11591022 720.5209818 1270.22332386 c 0
 691.212966786 1284.33073749 691.212966786 1284.33073749 655.948527116 1294.01194363 c 0
 620.684087446 1303.69314977 620.684087446 1303.69314977 574.570781526 1309.25657489 c 0
 528.457475605 1314.82 528.457475605 1314.82 475.136 1314.82 c 2,5,-1
 268.288 1314.82 l 1,6,-1
 268.288 774.145 l 5,0,-1
110.592 1456.13 m 5,7,-1
 268.288 1456.13 l 1,8,-1
 475.136 1456.13 l 2,9,10
 607.5246242 1455.37705733 607.5246242 1455.37705733 712.1764582 1424.49233318 c 0
 816.8282922 1393.60760902 816.8282922 1393.60760902 884.1742293 1338.77407307 c 0
 951.5201664 1283.94053713 951.5201664 1283.94053713 986.7350832 1209.70889568 c 0
 1021.95 1135.47725422 1021.95 1135.47725422 1021.95 1046.53 c 0,11,12
 1021.95 997.756138918 1021.95 997.756138918 1011.660813 952.543376008 c 0
 1001.37162599 907.330613098 1001.37162599 907.330613098 979.702224905 865.610915537 c 0
 958.032823817 823.891217977 958.032823817 823.891217977 926.147040401 788.296472218 c 0
 894.261256986 752.701726459 894.261256986 752.701726459 849.299775925 723.50422166 c 0
 804.338294865 694.30671686 804.338294865 694.30671686 749.351122034 673.775329361 c 0
 694.363949203 653.243941862 694.363949203 653.243941862 624.605595167 642.013970931 c 0
 554.847241131 630.784 554.847241131 630.784 475.136 630.784 c 2,13,-1
 268.288 630.784 l 1,14,-1
 268.288 0 l 1,15,-1
 110.592 0 l 1,16,-1
 110.592 1456.13 l 5,7,-1
EndSplineSet
Fore
SplineSet
444 774 m 1,0,-1
 650 774 l 2,1,2
 1034 774 1034 774 1093 1047 c 0,3,4
 1099 1072 1099 1072 1099 1108 c 0,5,6
 1099 1315 1099 1315 765 1315 c 2,7,-1
 559 1315 l 1,8,-1
 444 774 l 1,0,-1
923 0 m 1,9,-1
 628 631 l 1,10,-1
 413 631 l 1,11,-1
 279 0 l 1,12,-1
 121 0 l 1,13,-1
 430 1456 l 1,14,-1
 794 1456 l 2,15,16
 1007 1456 1007 1456 1136.5 1370.5 c 128,-1,17
 1266 1285 1266 1285 1266 1130 c 0,18,19
 1266 934.816326531 1266 934.816326531 1102.5 788 c 0,20,21
 980 678 980 678 808 648 c 1,22,-1
 1104 0 l 1,23,-1
 923 0 l 1,9,-1
EndSplineSet
EndChar

